<?xml version="1.0" standalone="no"?>
<!DOCTYPE svg PUBLIC "-//W3C//DTD SVG 20010904//EN"
 "http://www.w3.org/TR/2001/REC-SVG-20010904/DTD/svg10.dtd">
<svg version="1.0" xmlns="http://www.w3.org/2000/svg"
 width="82.000000pt" height="137.000000pt" viewBox="0 0 82.000000 137.000000"
 preserveAspectRatio="xMidYMid meet">
<metadata>
Created by potrace 1.15, written by Peter Selinger 2001-2017
</metadata>
<g transform="translate(0.000000,137.000000) scale(0.100000,-0.100000)"
fill="#000000" stroke="none">
<path d="M205 1119 c-108 -138 -199 -257 -202 -264 -4 -12 88 -95 106 -95 5 0
56 61 115 136 l106 136 0 -516 0 -516 80 0 80 0 2 512 3 512 103 -130 c57 -71
108 -130 112 -132 13 -5 109 71 109 85 1 13 -394 516 -409 521 -4 2 -96 -110
-205 -249z"/>
</g>
</svg>
