<?xml version="1.0" standalone="no"?>
<!DOCTYPE svg PUBLIC "-//W3C//DTD SVG 20010904//EN"
 "http://www.w3.org/TR/2001/REC-SVG-20010904/DTD/svg10.dtd">
<svg version="1.0" xmlns="http://www.w3.org/2000/svg"
 width="83.000000pt" height="137.000000pt" viewBox="0 0 83.000000 137.000000"
 preserveAspectRatio="xMidYMid meet">
<metadata>
Created by potrace 1.15, written by Peter Selinger 2001-2017
</metadata>
<g transform="translate(0.000000,137.000000) scale(0.100000,-0.100000)"
fill="#000000" stroke="none">
<path d="M328 864 l-3 -507 -103 132 c-68 85 -108 128 -116 123 -28 -17 -105
-77 -106 -82 0 -8 409 -525 418 -527 8 -2 399 498 407 519 2 7 -21 32 -53 56
l-57 43 -22 -29 c-13 -15 -61 -77 -108 -137 l-85 -108 0 512 0 511 -85 0 -85
0 -2 -506z"/>
</g>
</svg>
