<?xml version="1.0" standalone="no"?>
<!DOCTYPE svg PUBLIC "-//W3C//DTD SVG 20010904//EN"
 "http://www.w3.org/TR/2001/REC-SVG-20010904/DTD/svg10.dtd">
<svg version="1.0" xmlns="http://www.w3.org/2000/svg"
 width="131.000000pt" height="80.000000pt" viewBox="0 0 131.000000 80.000000"
 preserveAspectRatio="xMidYMid meet">
<metadata>
Created by potrace 1.15, written by Peter Selinger 2001-2017
</metadata>
<g transform="translate(0.000000,80.000000) scale(0.100000,-0.100000)"
fill="#000000" stroke="none">
<path d="M250 603 c-135 -108 -246 -199 -248 -203 -2 -6 451 -366 494 -393 11
-6 94 91 94 110 0 5 -55 51 -122 103 l-123 95 460 6 c253 3 470 7 483 8 21 1
22 5 22 76 l0 75 -482 2 -482 3 122 98 c67 54 122 100 122 104 0 9 -82 113
-89 113 -3 -1 -116 -89 -251 -197z"/>
</g>
</svg>
