<?xml version="1.0" standalone="no"?>
<!DOCTYPE svg PUBLIC "-//W3C//DTD SVG 20010904//EN"
 "http://www.w3.org/TR/2001/REC-SVG-20010904/DTD/svg10.dtd">
<svg version="1.0" xmlns="http://www.w3.org/2000/svg"
 width="147.000000pt" height="137.000000pt" viewBox="0 0 147.000000 137.000000"
 preserveAspectRatio="xMidYMid meet">
<metadata>
Created by potrace 1.15, written by Peter Selinger 2001-2017
</metadata>
<g transform="translate(0.000000,137.000000) scale(0.100000,-0.100000)"
fill="#000000" stroke="none">
<path d="M169 1356 c-207 -55 -225 -348 -27 -431 81 -33 190 -11 251 51 48 48
61 83 61 159 0 119 -63 200 -175 224 -58 13 -52 13 -110 -3z m127 -115 c29
-18 64 -73 64 -102 0 -7 -9 -32 -20 -55 -38 -77 -131 -96 -191 -38 -43 41 -53
83 -33 134 30 74 113 102 180 61z"/>
<path d="M1041 1164 c-215 -46 -380 -209 -432 -424 -19 -77 -16 -260 4 -340
54 -208 190 -340 394 -386 128 -28 402 -6 447 36 7 7 -8 100 -20 121 -2 4 -32
-2 -66 -13 -88 -29 -250 -30 -331 -4 -117 38 -199 119 -248 244 -20 49 -23 75
-23 187 0 144 14 198 77 292 107 158 349 212 571 127 11 -4 20 10 34 58 l20
63 -25 13 c-72 39 -282 52 -402 26z"/>
</g>
</svg>
