<?xml version="1.0" standalone="no"?>
<!DOCTYPE svg PUBLIC "-//W3C//DTD SVG 20010904//EN"
 "http://www.w3.org/TR/2001/REC-SVG-20010904/DTD/svg10.dtd">
<svg version="1.0" xmlns="http://www.w3.org/2000/svg"
 width="360.000000pt" height="239.000000pt" viewBox="0 0 360.000000 239.000000"
 preserveAspectRatio="xMidYMid meet">
<metadata>
Created by potrace 1.15, written by Peter Selinger 2001-2017
</metadata>
<g transform="translate(0.000000,239.000000) scale(0.100000,-0.100000)"
fill="#000000" stroke="none">
<path d="M1630 2376 c-264 -56 -456 -246 -515 -509 -4 -20 -10 -27 -21 -23
-39 15 -154 27 -204 21 -72 -8 -153 -31 -210 -60 -163 -83 -281 -258 -297
-440 l-6 -73 -41 -12 c-133 -39 -244 -128 -290 -230 -15 -34 -30 -91 -35 -133
-21 -187 48 -345 194 -441 92 -61 151 -77 325 -86 224 -12 354 -59 525 -190
180 -137 376 -194 670 -193 205 0 301 29 420 124 188 151 318 162 673 55 266
-80 349 -85 419 -23 52 45 76 107 78 195 l2 72 44 29 c113 72 206 216 230 354
34 203 -76 410 -265 498 l-66 31 0 51 c-1 176 -101 357 -252 455 -103 66 -173
86 -308 86 -102 0 -123 -4 -185 -28 -38 -15 -77 -29 -85 -32 -11 -4 -20 11
-33 58 -56 193 -222 361 -421 424 -100 31 -250 40 -346 20z m314 -159 c120
-44 206 -115 271 -222 57 -95 69 -150 67 -302 -2 -73 1 -133 5 -133 4 0 46 38
93 85 108 105 182 144 293 152 247 19 466 -199 443 -441 -14 -142 -19 -127 50
-142 118 -24 213 -94 261 -193 23 -46 28 -69 28 -131 -1 -63 -6 -86 -32 -142
-34 -72 -95 -145 -149 -179 l-34 -21 -37 24 c-58 35 -155 33 -212 -5 -46 -31
-81 -91 -81 -142 0 -47 35 -112 69 -129 40 -21 64 -20 92 4 l24 19 -42 40
c-51 48 -56 80 -17 116 51 47 133 25 169 -45 31 -61 11 -163 -39 -196 -39 -25
-125 -14 -300 40 -186 57 -284 76 -398 76 -154 0 -257 -37 -386 -141 -94 -76
-165 -99 -322 -106 -193 -9 -419 35 -540 104 -25 14 -73 48 -106 74 -127 101
-243 159 -378 189 l-81 18 99 1 c126 1 187 -15 356 -94 285 -133 416 -170 605
-170 120 0 134 2 187 27 31 14 85 53 120 86 77 71 133 105 213 128 52 15 82
16 225 9 91 -5 196 -8 234 -7 148 4 226 86 226 237 0 185 -244 293 -385 172
-32 -28 -38 -40 -42 -82 -5 -61 18 -104 70 -128 49 -23 91 -21 123 6 l26 23
-33 25 c-19 14 -46 29 -61 33 -39 9 -37 41 4 62 69 35 177 -9 197 -81 10 -39
1 -94 -23 -130 -28 -42 -80 -50 -234 -37 -176 16 -241 15 -327 -3 -99 -21
-186 -67 -263 -140 -80 -74 -110 -91 -189 -104 -144 -23 -345 30 -641 168
-188 88 -222 96 -382 95 -112 -1 -147 -5 -205 -24 -38 -13 -88 -23 -110 -24
-44 -1 -135 30 -135 45 0 17 143 78 232 99 99 24 215 25 313 5 41 -9 126 -42
205 -80 160 -77 255 -110 369 -130 203 -36 396 -1 544 98 75 51 114 110 123
188 19 167 -105 304 -259 285 -108 -12 -167 -69 -167 -161 0 -93 65 -155 163
-155 50 0 51 1 41 61 -6 32 -9 35 -41 35 -36 0 -73 30 -73 59 0 33 37 58 92
63 50 4 58 2 91 -27 20 -18 41 -48 48 -68 15 -45 6 -118 -17 -150 -31 -41
-138 -99 -227 -123 -70 -19 -99 -22 -202 -18 -104 4 -135 10 -226 41 -59 20
-157 61 -218 91 -156 79 -237 100 -386 100 -150 1 -266 -26 -401 -94 -107 -54
-105 -54 -145 35 -40 88 -27 219 28 292 41 55 91 86 206 124 l112 37 6 109 c7
121 23 173 74 249 64 92 165 156 282 175 90 15 159 1 272 -57 47 -24 88 -44
91 -44 3 0 5 46 6 103 1 148 39 253 133 359 60 69 181 136 286 158 70 16 203
4 279 -23z"/>
</g>
</svg>
