<?xml version="1.0" standalone="no"?>
<!DOCTYPE svg PUBLIC "-//W3C//DTD SVG 20010904//EN"
 "http://www.w3.org/TR/2001/REC-SVG-20010904/DTD/svg10.dtd">
<svg version="1.0" xmlns="http://www.w3.org/2000/svg"
 width="451.000000pt" height="288.000000pt" viewBox="0 0 451.000000 288.000000"
 preserveAspectRatio="xMidYMid meet">
<metadata>
Created by potrace 1.15, written by Peter Selinger 2001-2017
</metadata>
<g transform="translate(0.000000,288.000000) scale(0.100000,-0.100000)"
fill="#000000" stroke="none">
<path d="M3260 2873 c-8 -3 -18 -11 -22 -17 -12 -17 -10 -504 2 -527 13 -23
62 -26 80 -4 10 12 12 74 8 272 -5 233 -7 258 -24 270 -19 14 -21 14 -44 6z"/>
<path d="M3998 2588 c-8 -7 -81 -97 -162 -200 -114 -146 -146 -195 -146 -218
0 -23 5 -31 25 -36 14 -3 31 -4 38 -1 8 3 82 92 165 199 158 201 175 235 133
258 -25 13 -34 13 -53 -2z"/>
<path d="M2438 2529 c-43 -24 -23 -58 148 -252 156 -177 168 -188 197 -185 28
3 32 7 35 34 3 28 -14 51 -148 205 -194 223 -193 221 -232 198z"/>
<path d="M3163 2249 c-174 -29 -349 -158 -432 -319 -53 -102 -71 -177 -71
-299 l0 -101 -58 0 c-62 0 -144 -20 -203 -50 l-36 -19 -12 48 c-7 27 -25 76
-41 110 l-29 61 25 0 c14 0 79 -5 145 -11 134 -12 149 -8 149 42 0 21 -6 32
-22 38 -13 4 -104 14 -203 21 l-180 14 -53 43 c-66 54 -170 107 -249 127 -78
20 -247 21 -333 0 -216 -50 -410 -238 -465 -449 -8 -32 -16 -59 -18 -61 -1 -2
-23 2 -47 7 -71 17 -235 6 -305 -19 -201 -73 -334 -249 -361 -474 l-6 -57 -52
-17 c-73 -23 -134 -60 -189 -113 -88 -84 -123 -185 -115 -338 3 -76 9 -101 35
-154 41 -83 89 -138 164 -188 126 -84 13 -78 1539 -86 1268 -7 1359 -7 1415 9
91 27 150 63 219 137 186 196 197 474 27 662 -41 45 -118 98 -173 118 -34 12
-38 16 -38 49 l0 36 64 -4 c282 -18 559 190 631 473 19 76 19 224 0 300 -43
171 -173 333 -325 407 -122 60 -261 80 -397 57z m248 -155 c81 -24 149 -66
213 -133 178 -187 178 -465 -1 -652 -96 -101 -205 -149 -338 -150 -111 -1
-118 3 -156 79 -45 93 -152 197 -241 237 -37 17 -70 37 -73 45 -14 33 -17 160
-5 211 39 170 164 307 328 360 72 23 200 24 273 3z m-1566 -279 c191 -49 337
-198 376 -382 7 -37 10 -100 6 -170 -3 -62 -3 -113 1 -113 3 0 45 38 92 85 64
62 106 94 156 117 63 30 77 33 164 33 86 0 101 -3 162 -32 170 -80 269 -257
239 -428 -17 -95 -19 -91 61 -109 86 -19 141 -50 192 -107 74 -81 98 -176 72
-280 -44 -171 -167 -276 -334 -285 -42 -3 -653 -1 -1357 3 l-1280 8 -56 26
c-149 70 -224 212 -189 357 26 112 88 167 249 221 l106 36 6 110 c4 83 11 122
27 158 76 169 238 269 409 254 54 -5 87 -16 162 -54 52 -26 98 -49 102 -51 3
-2 8 53 11 122 4 122 5 126 46 209 107 217 349 330 577 272z"/>
<path d="M4220 1840 c-124 -15 -235 -30 -247 -34 -18 -6 -23 -15 -23 -41 0
-29 4 -36 25 -41 29 -7 478 42 513 56 44 19 20 93 -30 89 -7 -1 -114 -14 -238
-29z"/>
<path d="M3891 1281 c-26 -26 -26 -33 -3 -59 26 -32 438 -244 464 -240 29 4
47 50 29 72 -12 14 -415 229 -452 241 -11 4 -26 -2 -38 -14z"/>
<path d="M3450 996 c-7 -20 6 -67 66 -236 100 -285 98 -280 128 -280 24 0 56
23 56 40 0 15 -163 475 -173 488 -5 6 -23 12 -38 12 -22 0 -32 -6 -39 -24z"/>
</g>
</svg>
