<?xml version="1.0" standalone="no"?>
<!DOCTYPE svg PUBLIC "-//W3C//DTD SVG 20010904//EN"
 "http://www.w3.org/TR/2001/REC-SVG-20010904/DTD/svg10.dtd">
<svg version="1.0" xmlns="http://www.w3.org/2000/svg"
 width="416.000000pt" height="213.000000pt" viewBox="0 0 416.000000 213.000000"
 preserveAspectRatio="xMidYMid meet">
<metadata>
Created by potrace 1.15, written by Peter Selinger 2001-2017
</metadata>
<g transform="translate(0.000000,213.000000) scale(0.100000,-0.100000)"
fill="#000000" stroke="none">
<path d="M2551 2114 c-30 -8 -77 -27 -105 -41 -71 -38 -187 -156 -217 -220
-13 -29 -27 -52 -30 -53 -4 0 -29 18 -55 40 -64 53 -172 105 -259 126 -105 24
-276 16 -373 -19 -189 -67 -330 -206 -398 -393 -13 -35 -24 -75 -24 -88 0 -23
0 -23 -53 -9 -76 21 -223 12 -307 -19 -202 -74 -341 -251 -359 -457 l-6 -74
-50 -17 c-141 -48 -219 -110 -271 -216 -33 -66 -38 -84 -42 -173 -4 -82 -1
-111 17 -169 39 -130 142 -234 289 -294 57 -23 60 -23 577 -26 286 -2 898 -6
1360 -9 614 -4 854 -3 893 6 85 18 159 59 232 127 98 93 160 223 160 336 l0
48 128 0 c195 0 277 28 375 126 119 120 155 317 86 462 -31 63 -123 154 -181
178 -46 18 -48 21 -48 59 0 52 -24 144 -51 197 -28 54 -113 143 -167 175 -112
66 -262 81 -384 39 -56 -18 -68 -20 -68 -8 0 8 -16 49 -37 91 -63 132 -182
230 -332 275 -68 20 -225 20 -300 0z m292 -150 c100 -39 188 -127 226 -229 17
-46 21 -78 21 -187 l0 -132 89 87 c107 105 156 131 256 131 55 1 81 -5 125
-25 141 -67 204 -197 177 -365 l-9 -52 44 -7 c72 -12 136 -45 178 -92 49 -56
64 -101 57 -173 -6 -67 -34 -126 -84 -176 -60 -60 -100 -72 -264 -80 l-145 -7
-30 59 c-40 80 -126 163 -214 205 l-70 34 0 60 c-1 235 -178 450 -420 511 -99
25 -233 15 -332 -23 l-76 -30 -12 45 c-6 24 -20 62 -31 83 -16 33 -18 45 -9
85 31 135 140 250 278 290 61 17 182 11 245 -12z m-1011 -135 c147 -30 292
-141 355 -269 45 -95 56 -163 48 -299 l-7 -116 95 92 c57 54 117 101 150 117
243 119 524 -26 579 -298 8 -45 8 -77 -1 -138 -7 -44 -11 -81 -9 -82 2 -1 29
-7 62 -14 118 -23 208 -89 257 -187 19 -40 24 -65 24 -130 0 -71 -4 -89 -33
-147 -40 -83 -104 -148 -180 -185 l-57 -28 -1335 3 c-1466 4 -1393 1 -1493 64
-132 84 -182 253 -116 393 36 76 101 119 249 165 l85 26 5 111 c5 102 9 116
43 186 61 123 166 203 302 228 84 15 162 -1 268 -56 48 -25 89 -45 91 -45 2 0
6 51 8 113 4 82 12 128 28 170 90 236 339 376 582 326z"/>
</g>
</svg>
