<?xml version="1.0" standalone="no"?>
<!DOCTYPE svg PUBLIC "-//W3C//DTD SVG 20010904//EN"
 "http://www.w3.org/TR/2001/REC-SVG-20010904/DTD/svg10.dtd">
<svg version="1.0" xmlns="http://www.w3.org/2000/svg"
 width="456.000000pt" height="328.000000pt" viewBox="0 0 456.000000 328.000000"
 preserveAspectRatio="xMidYMid meet">
<metadata>
Created by potrace 1.15, written by Peter Selinger 2001-2017
</metadata>
<g transform="translate(0.000000,328.000000) scale(0.100000,-0.100000)"
fill="#000000" stroke="none">
<path d="M3442 3268 c-9 -9 -12 -76 -12 -239 0 -194 2 -230 16 -243 20 -21 38
-20 60 1 15 15 16 38 9 242 -4 128 -11 231 -17 239 -13 15 -40 16 -56 0z"/>
<path d="M4057 2963 c-221 -280 -229 -292 -223 -319 6 -21 12 -25 39 -22 27 3
47 22 154 158 146 183 158 202 143 230 -21 39 -55 25 -113 -47z"/>
<path d="M2720 2966 c-6 -8 -10 -24 -8 -35 5 -33 289 -351 313 -351 26 0 45
18 45 43 0 15 -262 326 -295 349 -16 12 -42 9 -55 -6z"/>
<path d="M3361 2705 c-189 -43 -346 -185 -401 -363 -22 -69 -28 -230 -11 -288
l9 -31 -102 5 c-111 5 -189 -10 -277 -52 l-49 -23 -10 41 c-18 68 -49 140 -84
194 l-33 50 36 -4 c121 -14 403 -33 415 -28 35 13 29 71 -8 79 -11 2 -117 12
-235 21 l-214 17 -16 -22 -17 -22 -29 32 c-51 54 -173 127 -259 155 -117 38
-280 44 -397 15 -137 -34 -220 -82 -324 -186 -110 -110 -137 -160 -191 -354
-3 -8 -11 -10 -21 -7 -36 14 -162 26 -213 21 -139 -16 -249 -66 -347 -159
-110 -104 -168 -220 -181 -364 l-7 -74 -70 -26 c-62 -22 -138 -65 -186 -104
-8 -7 -32 -35 -52 -61 -101 -133 -106 -378 -11 -529 33 -52 105 -122 159 -153
88 -52 151 -67 320 -75 237 -12 353 -53 545 -195 107 -79 157 -107 245 -138
215 -76 551 -93 729 -36 68 22 97 40 216 131 100 77 152 93 305 92 138 -1 146
-3 465 -100 115 -35 225 -42 285 -20 80 31 125 117 125 237 l0 68 55 36 c158
105 260 318 239 500 -19 171 -118 309 -275 383 l-78 37 -1 65 c0 60 -7 105
-23 155 -6 19 -2 20 91 20 114 1 197 25 289 84 320 207 323 686 6 897 -116 77
-281 109 -412 79z m208 -100 c88 -21 151 -58 215 -125 94 -98 133 -206 123
-338 -19 -249 -262 -437 -507 -393 -50 9 -77 19 -89 34 -53 67 -111 122 -166
156 -70 44 -87 75 -104 180 -29 178 77 374 242 452 106 49 182 58 286 34z
m-1568 -269 c122 -36 245 -127 309 -225 17 -28 43 -81 56 -118 21 -60 24 -86
24 -217 l0 -149 98 94 c109 105 171 141 275 159 174 31 366 -66 450 -227 49
-95 63 -174 48 -274 -7 -44 -10 -83 -7 -88 3 -5 27 -11 53 -15 112 -15 226
-95 280 -198 24 -46 28 -64 28 -143 0 -78 -4 -98 -28 -149 -35 -75 -85 -137
-144 -177 l-45 -31 -46 23 c-73 36 -136 37 -201 2 -87 -46 -123 -140 -87 -227
29 -69 107 -97 157 -57 l23 19 -33 28 c-53 44 -61 54 -61 75 0 32 18 57 52 75
42 22 87 11 128 -31 27 -28 34 -44 38 -89 5 -66 -11 -119 -45 -146 -38 -30
-108 -25 -243 16 -245 74 -343 96 -451 101 -183 10 -303 -30 -449 -147 -50
-40 -96 -67 -137 -81 -84 -28 -220 -39 -343 -29 -255 23 -402 74 -541 191
-113 95 -335 198 -427 199 -24 1 -25 2 -8 12 28 16 178 3 261 -23 39 -12 108
-40 155 -64 289 -145 579 -216 755 -186 91 16 154 50 237 127 133 125 243 155
497 134 266 -22 344 -2 397 102 89 176 -9 354 -204 366 -79 5 -140 -16 -182
-64 -25 -29 -30 -43 -30 -86 0 -45 4 -54 38 -88 46 -47 93 -58 145 -36 21 8
37 22 37 30 0 17 -67 72 -77 63 -11 -11 -43 13 -43 33 0 25 48 50 97 50 76 0
153 -68 153 -134 -1 -50 -34 -113 -71 -132 -30 -15 -49 -16 -169 -8 -380 25
-494 -2 -664 -156 -97 -89 -140 -105 -271 -104 -154 1 -320 51 -583 174 -81
37 -174 76 -207 84 -136 37 -313 30 -444 -16 -31 -11 -70 -20 -87 -19 -36 0
-144 38 -144 50 0 10 139 74 205 95 122 38 268 42 395 9 30 -7 120 -45 200
-83 238 -113 354 -144 540 -143 260 2 481 115 526 268 34 118 -13 250 -111
310 -43 26 -57 30 -124 30 -133 0 -201 -56 -201 -165 0 -93 55 -154 151 -165
60 -8 70 1 61 55 -7 41 -10 45 -40 46 -63 3 -96 69 -53 108 30 27 110 31 149
7 89 -57 105 -187 30 -261 -34 -34 -140 -91 -203 -109 -132 -38 -296 -32 -450
16 -44 14 -150 58 -235 98 -195 92 -258 108 -415 108 -156 0 -266 -26 -410
-97 l-107 -53 -29 46 c-36 56 -49 101 -49 167 0 79 26 150 73 201 50 55 93 77
222 118 l100 31 1 110 c1 115 12 160 58 239 31 53 121 137 177 165 141 73 277
66 435 -21 39 -21 74 -39 78 -39 3 0 6 37 6 83 0 45 7 112 14 148 45 209 224
380 439 419 64 11 189 4 248 -14z"/>
<path d="M4297 2361 c-158 -19 -221 -31 -227 -41 -25 -39 6 -74 59 -66 20 3
117 15 216 26 99 11 188 23 198 26 24 8 23 60 -2 74 -11 5 -21 10 -23 9 -2 -1
-101 -13 -221 -28z"/>
<path d="M4010 1866 c-31 -38 -11 -55 190 -162 107 -57 205 -104 218 -104 26
0 44 36 31 62 -10 18 -387 218 -412 218 -8 0 -20 -7 -27 -14z"/>
<path d="M3632 1628 c-20 -20 -14 -45 62 -258 l73 -205 34 0 c29 0 34 4 37 26
3 26 -128 410 -149 435 -14 17 -41 18 -57 2z"/>
</g>
</svg>
