<?xml version="1.0" standalone="no"?>
<!DOCTYPE svg PUBLIC "-//W3C//DTD SVG 20010904//EN"
 "http://www.w3.org/TR/2001/REC-SVG-20010904/DTD/svg10.dtd">
<svg version="1.0" xmlns="http://www.w3.org/2000/svg"
 width="432.000000pt" height="346.000000pt" viewBox="0 0 432.000000 346.000000"
 preserveAspectRatio="xMidYMid meet">
<metadata>
Created by potrace 1.15, written by Peter Selinger 2001-2017
</metadata>
<g transform="translate(0.000000,346.000000) scale(0.100000,-0.100000)"
fill="#000000" stroke="none">
<path d="M2360 3435 l-23 -25 6 -390 c4 -233 11 -398 17 -409 21 -41 96 -35
120 8 6 13 7 154 3 412 -6 362 -8 394 -25 411 -26 26 -70 23 -98 -7z"/>
<path d="M3526 3008 c-14 -13 -127 -153 -251 -313 -183 -236 -225 -296 -225
-321 0 -40 27 -64 72 -64 35 0 41 6 277 309 262 336 269 348 215 390 -34 27
-57 26 -88 -1z"/>
<path d="M1096 2908 c-23 -32 -20 -61 12 -100 116 -146 490 -560 510 -565 53
-13 105 45 84 93 -6 11 -123 150 -261 307 -249 284 -252 287 -291 287 -29 0
-43 -6 -54 -22z"/>
<path d="M2193 2444 c-288 -63 -554 -288 -659 -557 l-29 -74 -58 -11 c-32 -6
-90 -25 -128 -43 l-69 -32 -344 28 c-189 15 -355 25 -369 21 -29 -7 -52 -54
-42 -86 13 -42 40 -48 331 -71 l281 -22 -37 -59 c-21 -32 -49 -92 -61 -133
-19 -59 -27 -74 -39 -69 -31 14 -184 16 -239 4 -120 -26 -251 -118 -316 -220
-41 -64 -75 -167 -75 -226 l0 -51 -62 -23 c-159 -57 -242 -152 -269 -305 -36
-211 78 -402 286 -476 59 -21 74 -21 815 -25 415 -1 946 -5 1180 -9 234 -3
465 -1 513 3 170 17 299 111 376 272 35 73 36 79 36 190 0 110 -1 118 -33 182
-23 48 -52 85 -102 131 l-69 64 45 44 c98 95 184 242 231 396 24 79 26 104 27
243 0 114 -4 173 -17 223 -87 349 -367 621 -709 691 -94 20 -307 20 -395 0z
m355 -140 c297 -61 536 -294 609 -591 23 -98 21 -266 -6 -365 -34 -130 -111
-266 -195 -347 l-35 -34 -6 29 c-37 173 -131 297 -279 369 -127 62 -293 68
-414 15 -25 -11 -49 -17 -53 -13 -3 5 -12 26 -19 48 -43 137 -154 266 -289
333 -45 23 -108 47 -141 54 l-58 12 19 43 c49 115 156 241 272 324 169 119
392 165 595 123z m-826 -655 c126 -42 215 -120 272 -239 30 -63 31 -70 34
-219 l3 -153 87 85 c48 46 112 97 142 113 50 26 64 29 155 29 95 0 103 -2 163
-34 154 -83 219 -228 189 -417 l-9 -51 49 -7 c58 -9 137 -43 178 -79 17 -14
44 -49 60 -79 63 -113 29 -267 -82 -368 -98 -89 1 -84 -1371 -76 -1163 7
-1205 8 -1256 27 -114 42 -186 141 -186 254 0 149 63 215 256 273 l71 22 5
102 c4 86 9 113 33 163 53 111 149 184 274 207 80 15 147 0 256 -58 l83 -44 4
123 c5 138 20 184 89 273 34 45 112 104 186 143 69 36 224 41 315 10z"/>
<path d="M3880 1854 c-195 -24 -363 -43 -372 -44 -27 0 -58 -37 -58 -68 0 -17
10 -38 25 -52 l25 -23 391 46 c427 50 429 50 429 113 0 35 -38 75 -69 73 -9
-1 -176 -21 -371 -45z"/>
<path d="M3360 990 c-23 -23 -26 -68 -7 -92 22 -30 680 -368 714 -368 53 0 85
76 49 113 -28 27 -685 367 -710 367 -14 0 -35 -9 -46 -20z"/>
</g>
</svg>
