<?xml version="1.0" standalone="no"?>
<!DOCTYPE svg PUBLIC "-//W3C//DTD SVG 20010904//EN"
 "http://www.w3.org/TR/2001/REC-SVG-20010904/DTD/svg10.dtd">
<svg version="1.0" xmlns="http://www.w3.org/2000/svg"
 width="429.000000pt" height="368.000000pt" viewBox="0 0 429.000000 368.000000"
 preserveAspectRatio="xMidYMid meet">
<metadata>
Created by potrace 1.15, written by Peter Selinger 2001-2017
</metadata>
<g transform="translate(0.000000,368.000000) scale(0.100000,-0.100000)"
fill="#000000" stroke="none">
<path d="M3210 3658 c-7 -15 -8 -94 -3 -238 8 -214 8 -215 31 -218 49 -7 52 5
51 217 -2 237 -4 255 -41 259 -21 3 -30 -2 -38 -20z"/>
<path d="M3723 3275 c-141 -182 -157 -220 -96 -220 29 0 42 13 154 155 138
176 148 193 129 215 -32 38 -54 20 -187 -150z"/>
<path d="M2527 3383 c-23 -23 1 -61 134 -212 77 -89 147 -161 154 -161 29 0
45 13 45 37 0 17 -40 71 -137 183 -110 126 -143 159 -164 159 -14 1 -29 -2
-32 -6z"/>
<path d="M3180 3140 c-174 -21 -320 -126 -396 -285 -71 -148 -71 -288 0 -456
6 -15 -7 -17 -111 -21 -99 -4 -128 -9 -183 -32 -36 -15 -69 -28 -73 -29 -5 -1
-19 33 -33 75 -60 188 -225 350 -419 411 -59 19 -92 22 -215 22 -133 -1 -151
-3 -216 -28 -114 -43 -164 -75 -250 -161 -87 -87 -140 -178 -168 -286 -12 -49
-16 -55 -37 -52 -124 13 -220 13 -283 -2 -229 -54 -397 -248 -423 -490 l-8
-69 -40 -12 c-134 -40 -235 -121 -287 -230 -32 -68 -33 -74 -33 -196 0 -124 0
-126 37 -200 67 -135 208 -237 358 -258 36 -5 66 -8 66 -7 1 0 20 30 43 66
l42 65 -78 7 c-222 19 -359 175 -331 379 17 128 87 195 265 250 115 37 108 27
103 137 -6 161 87 315 236 389 64 31 88 37 157 41 95 5 166 -15 265 -73 33
-19 64 -35 68 -35 4 0 4 30 1 67 -13 164 43 314 157 421 107 100 220 143 371
143 195 0 377 -113 459 -284 46 -96 58 -167 50 -302 l-7 -110 92 88 c143 138
265 183 410 153 89 -19 142 -46 208 -108 98 -94 140 -199 129 -328 -3 -41 -8
-87 -12 -101 -6 -26 -4 -27 47 -34 131 -18 261 -125 295 -242 43 -148 -43
-340 -187 -417 -30 -16 -55 -30 -57 -32 -8 -6 34 -117 45 -121 25 -10 128 53
194 117 206 203 209 521 7 705 -34 30 -88 66 -124 82 l-64 27 0 56 c0 71 -23
167 -55 231 l-26 50 43 -6 c70 -10 175 11 263 55 177 86 285 261 285 460 0
143 -48 260 -149 361 -116 117 -267 169 -431 149z m193 -117 c233 -74 354
-352 247 -569 -81 -165 -268 -266 -436 -235 -342 63 -470 470 -223 706 117
112 261 146 412 98z"/>
<path d="M4043 2805 c-236 -29 -233 -28 -233 -66 0 -18 6 -32 16 -36 27 -10
446 43 455 58 13 21 11 36 -7 53 -18 19 -1 19 -231 -9z"/>
<path d="M2207 2753 c-12 -11 -8 -50 6 -60 6 -5 108 -18 225 -27 224 -18 242
-16 242 24 0 10 -6 23 -14 29 -23 20 -443 51 -459 34z"/>
<path d="M3757 2333 c-12 -11 -8 -50 6 -60 6 -6 90 -52 186 -102 191 -101 224
-109 229 -56 3 29 -1 32 -182 128 -170 89 -221 109 -239 90z"/>
<path d="M3391 2091 c-8 -14 5 -63 60 -217 39 -110 76 -205 84 -213 11 -12 19
-12 40 -3 14 6 25 19 25 27 0 21 -130 396 -143 413 -14 18 -55 14 -66 -7z"/>
<path d="M1636 1228 c-17 -167 -55 -300 -128 -438 -46 -87 -50 -99 -46 -150 7
-100 79 -160 191 -160 67 0 102 12 141 48 57 54 72 139 36 202 -88 152 -139
297 -161 460 -7 52 -15 99 -19 103 -4 5 -10 -25 -14 -65z"/>
<path d="M2450 1192 c0 -57 -34 -181 -69 -251 -39 -75 -40 -119 -5 -154 49
-50 135 -48 178 4 35 42 33 71 -14 164 -38 76 -69 186 -70 248 0 15 -4 27 -10
27 -5 0 -10 -17 -10 -38z"/>
<path d="M937 945 c-14 -122 -56 -312 -86 -396 -18 -48 -52 -120 -76 -160 -39
-65 -45 -81 -45 -132 0 -32 6 -70 14 -85 56 -107 207 -150 321 -91 67 34 109
101 109 173 0 44 -8 65 -53 144 -67 116 -113 248 -141 405 -11 67 -24 140 -29
162 l-8 40 -6 -60z"/>
<path d="M2172 657 c-18 -141 -48 -241 -107 -362 -30 -61 -55 -122 -55 -136 0
-14 10 -45 23 -69 29 -59 83 -90 155 -90 67 0 109 18 150 64 50 57 46 110 -17
228 -56 105 -95 227 -112 356 -7 48 -15 90 -19 94 -3 5 -11 -34 -18 -85z"/>
</g>
</svg>
