<?xml version="1.0" standalone="no"?>
<!DOCTYPE svg PUBLIC "-//W3C//DTD SVG 20010904//EN"
 "http://www.w3.org/TR/2001/REC-SVG-20010904/DTD/svg10.dtd">
<svg version="1.0" xmlns="http://www.w3.org/2000/svg"
 width="460.000000pt" height="400.000000pt" viewBox="0 0 460.000000 400.000000"
 preserveAspectRatio="xMidYMid meet">
<metadata>
Created by potrace 1.15, written by Peter Selinger 2001-2017
</metadata>
<g transform="translate(0.000000,400.000000) scale(0.100000,-0.100000)"
fill="#000000" stroke="none">
<path d="M3332 3988 c-9 -9 -12 -76 -12 -265 0 -240 1 -254 20 -273 24 -24 29
-24 58 -4 22 15 22 18 21 257 -1 133 -4 253 -8 267 -5 18 -15 26 -36 28 -17 2
-36 -3 -43 -10z"/>
<path d="M4073 3698 c-12 -13 -82 -102 -157 -198 -115 -148 -136 -180 -134
-205 3 -25 8 -30 33 -33 37 -4 35 -7 210 218 115 148 136 179 133 205 -3 25
-8 30 -33 33 -22 2 -37 -4 -52 -20z"/>
<path d="M2532 3659 c-49 -18 -27 -57 143 -253 88 -102 168 -188 177 -191 28
-10 58 12 58 44 0 22 -35 68 -161 212 -88 101 -168 187 -177 190 -9 4 -27 3
-40 -2z"/>
<path d="M3290 3380 c-148 -20 -255 -74 -361 -180 -83 -83 -136 -176 -164
-285 -26 -103 -17 -281 20 -376 5 -13 -8 -15 -92 -16 -97 -1 -190 -22 -253
-57 l-25 -14 -31 86 c-36 102 -69 157 -137 229 l-50 53 29 0 c16 0 122 -7 237
-17 128 -10 211 -13 216 -7 17 18 21 50 9 67 -11 14 -55 21 -265 38 -139 12
-259 19 -268 15 -9 -3 -19 -14 -22 -25 -4 -17 -10 -16 -70 15 -91 46 -188 67
-302 67 -288 -1 -530 -168 -625 -431 -14 -40 -26 -82 -26 -94 0 -17 -4 -19
-28 -13 -15 3 -72 9 -127 12 -165 8 -288 -36 -405 -146 -99 -93 -159 -217
-175 -363 -6 -55 -8 -57 -43 -69 -229 -74 -343 -233 -329 -459 2 -47 13 -105
22 -130 64 -162 224 -284 390 -297 l60 -5 38 61 c20 34 37 63 37 65 0 1 -34 6
-75 9 -134 10 -253 85 -307 195 -32 66 -33 208 -1 267 44 82 114 129 263 175
l85 26 1 100 c1 113 18 171 71 252 43 65 101 113 179 149 53 25 70 28 166 28
l107 0 100 -52 101 -53 0 98 c1 114 11 165 50 247 111 230 397 348 639 262
135 -48 245 -143 300 -261 44 -94 54 -153 49 -287 -3 -66 -2 -119 1 -119 4 0
43 38 89 84 160 165 329 205 507 120 161 -76 261 -263 234 -436 -5 -35 -12
-70 -14 -78 -4 -12 10 -18 61 -28 124 -24 221 -97 269 -204 24 -54 27 -70 23
-137 -8 -131 -86 -255 -200 -315 -29 -16 -54 -30 -55 -31 -2 -1 7 -30 18 -64
20 -59 23 -62 48 -56 89 21 229 151 279 257 43 91 55 157 50 258 -6 96 -30
163 -90 246 -41 57 -134 128 -198 151 l-47 17 -6 90 c-3 50 -8 100 -12 111 -6
19 -1 20 127 20 104 0 145 4 188 19 200 68 346 209 411 396 30 89 38 260 15
350 -55 218 -233 402 -441 453 -79 20 -177 27 -245 17z m201 -156 c129 -38
248 -133 304 -245 132 -260 10 -561 -270 -669 -82 -32 -224 -32 -307 -2 -336
122 -435 528 -191 783 57 60 145 113 222 135 65 17 178 17 242 -2z"/>
<path d="M4265 2963 c-110 -14 -206 -30 -213 -35 -7 -6 -12 -25 -10 -42 3 -28
7 -31 41 -34 53 -5 489 48 505 61 7 6 12 24 10 41 -3 31 -3 31 -68 32 -36 1
-155 -9 -265 -23z"/>
<path d="M3971 2398 c-4 -12 -6 -30 -4 -39 6 -20 435 -249 468 -249 11 0 26 5
33 12 16 16 15 53 0 66 -38 30 -439 232 -462 232 -18 0 -29 -7 -35 -22z"/>
<path d="M3552 2138 c-7 -7 -12 -23 -12 -37 0 -23 140 -432 161 -473 14 -26
65 -24 80 3 9 18 -3 60 -72 258 -45 130 -87 242 -92 249 -12 15 -49 16 -65 0z"/>
<path d="M782 1343 c-98 -48 -109 -201 -19 -265 44 -32 131 -36 175 -9 97 62
97 211 0 271 -40 24 -110 26 -156 3z"/>
<path d="M2342 1153 c-45 -22 -74 -67 -79 -122 -8 -91 57 -161 149 -161 96 0
148 53 148 152 0 46 -5 62 -26 88 -51 60 -125 77 -192 43z"/>
<path d="M1630 1027 c-19 -6 -54 -30 -77 -53 -135 -135 -39 -364 152 -364 192
0 286 229 150 365 -59 60 -141 79 -225 52z"/>
<path d="M2824 872 c-85 -54 -80 -178 9 -232 59 -36 141 -17 177 42 32 50 24
129 -18 170 -40 41 -120 50 -168 20z"/>
<path d="M940 602 c-51 -25 -80 -74 -80 -136 0 -92 56 -146 152 -146 49 0 62
4 91 30 45 39 61 79 54 136 -8 78 -70 134 -147 134 -19 0 -51 -8 -70 -18z"/>
<path d="M1625 281 c-130 -78 -72 -281 80 -281 59 0 106 29 133 80 12 24 22
56 22 70 -1 43 -37 108 -72 130 -43 26 -122 27 -163 1z"/>
<path d="M2338 264 c-78 -42 -77 -188 2 -229 48 -25 123 -20 159 11 63 53 62
160 -3 209 -38 29 -113 34 -158 9z"/>
</g>
</svg>
