<?xml version="1.0" standalone="no"?>
<!DOCTYPE svg PUBLIC "-//W3C//DTD SVG 20010904//EN"
 "http://www.w3.org/TR/2001/REC-SVG-20010904/DTD/svg10.dtd">
<svg version="1.0" xmlns="http://www.w3.org/2000/svg"
 width="202.000000pt" height="220.000000pt" viewBox="0 0 202.000000 220.000000"
 preserveAspectRatio="xMidYMid meet">
<metadata>
Created by potrace 1.15, written by Peter Selinger 2001-2017
</metadata>
<g transform="translate(0.000000,220.000000) scale(0.100000,-0.100000)"
fill="#000000" stroke="none">
<path d="M74 2181 c-17 -10 -40 -31 -52 -46 l-22 -28 0 -1004 c0 -1108 -4
-1043 63 -1083 43 -26 121 -26 164 0 64 39 63 26 63 592 0 434 2 517 15 534
19 28 137 85 253 124 113 38 311 59 378 41 63 -17 129 -67 193 -145 101 -123
182 -152 405 -143 215 9 445 70 475 126 6 11 9 32 5 46 -6 23 -11 25 -60 25
-65 0 -114 23 -165 77 -36 37 -114 152 -107 157 50 40 252 223 276 250 33 38
36 46 26 81 -5 19 -14 20 -247 20 -216 0 -251 3 -330 23 -104 26 -114 31 -260
127 -212 139 -348 199 -477 211 -82 8 -206 -16 -304 -57 -69 -29 -85 -28 -86
7 0 13 -47 58 -77 73 -33 17 -94 13 -129 -8z m113 -111 c10 -20 13 -231 13
-970 0 -739 -3 -950 -13 -970 -18 -35 -61 -39 -82 -7 -14 21 -15 124 -13 984
3 810 5 963 17 977 20 24 63 17 78 -14z m538 -15 c85 -22 218 -90 380 -195
188 -123 272 -147 549 -159 l149 -6 -122 -105 c-108 -93 -121 -108 -116 -130
12 -48 100 -184 158 -243 32 -32 57 -60 55 -61 -9 -7 -124 -27 -202 -35 -99
-10 -202 0 -264 24 -26 11 -66 45 -116 99 -138 153 -221 185 -423 168 -147
-13 -280 -48 -398 -106 l-85 -42 0 347 0 346 58 30 c50 27 150 63 207 76 43
10 113 6 170 -8z"/>
</g>
</svg>
