<?xml version="1.0" standalone="no"?>
<!DOCTYPE svg PUBLIC "-//W3C//DTD SVG 20010904//EN"
 "http://www.w3.org/TR/2001/REC-SVG-20010904/DTD/svg10.dtd">
<svg version="1.0" xmlns="http://www.w3.org/2000/svg"
 width="360.000000pt" height="375.000000pt" viewBox="0 0 360.000000 375.000000"
 preserveAspectRatio="xMidYMid meet">
<metadata>
Created by potrace 1.15, written by Peter Selinger 2001-2017
</metadata>
<g transform="translate(0.000000,375.000000) scale(0.100000,-0.100000)"
fill="#000000" stroke="none">
<path d="M1668 3739 c-272 -37 -495 -244 -553 -513 -5 -24 -9 -27 -28 -21 -12
4 -72 9 -132 12 -100 5 -118 3 -189 -21 -95 -32 -164 -76 -233 -146 -88 -89
-152 -241 -153 -357 0 -41 0 -42 -52 -59 -191 -62 -295 -179 -316 -354 -19
-152 21 -282 118 -384 76 -80 216 -146 311 -146 34 0 39 5 78 63 l41 62 -69 6
c-86 8 -133 23 -193 61 -103 64 -150 150 -151 268 0 56 5 87 22 125 40 90 92
128 248 179 l98 31 5 110 c5 96 10 118 37 177 74 157 214 249 379 249 83 0
152 -21 243 -75 34 -20 63 -36 64 -36 1 0 2 46 2 103 1 123 22 204 75 286 89
137 212 216 380 242 191 29 417 -77 514 -244 57 -96 68 -150 67 -306 l-1 -144
92 89 c105 102 170 139 271 156 207 34 423 -119 468 -332 11 -51 8 -147 -7
-211 -6 -25 -3 -27 42 -34 167 -25 291 -141 310 -291 17 -136 -80 -311 -209
-373 -26 -12 -47 -25 -47 -29 0 -21 37 -115 47 -119 23 -9 138 62 198 123 111
112 169 276 148 422 -23 157 -125 294 -266 357 l-66 30 -1 55 c-2 238 -170
456 -405 526 -121 36 -323 16 -412 -42 -30 -19 -33 -18 -33 9 -1 40 -57 165
-104 232 -139 194 -390 298 -638 264z"/>
<path d="M1727 2083 c-4 -3 -7 -361 -7 -794 0 -768 0 -789 19 -799 21 -10 51
-4 63 14 4 6 8 360 8 787 0 590 -3 778 -12 787 -13 13 -60 16 -71 5z"/>
<path d="M2567 2084 c-4 -4 -7 -362 -7 -796 l0 -788 24 -11 c17 -8 29 -8 45 0
l21 12 -2 792 -3 792 -35 3 c-20 2 -39 0 -43 -4z"/>
<path d="M817 1984 c-4 -4 -7 -362 -7 -796 l0 -788 24 -11 c17 -8 29 -8 45 0
l21 12 -2 792 -3 792 -35 3 c-20 2 -39 0 -43 -4z"/>
<path d="M1187 1748 c-16 -12 -17 -69 -15 -803 l3 -790 40 0 40 0 3 790 c2
734 1 791 -15 803 -9 6 -22 12 -28 12 -6 0 -19 -6 -28 -12z"/>
<path d="M2162 1598 c-17 -17 -17 -1569 0 -1586 15 -15 51 -15 66 0 17 17 17
1569 0 1586 -7 7 -21 12 -33 12 -12 0 -26 -5 -33 -12z"/>
</g>
</svg>
