<?xml version="1.0" standalone="no"?>
<!DOCTYPE svg PUBLIC "-//W3C//DTD SVG 20010904//EN"
 "http://www.w3.org/TR/2001/REC-SVG-20010904/DTD/svg10.dtd">
<svg version="1.0" xmlns="http://www.w3.org/2000/svg"
 width="360.000000pt" height="412.000000pt" viewBox="0 0 360.000000 412.000000"
 preserveAspectRatio="xMidYMid meet">
<metadata>
Created by potrace 1.15, written by Peter Selinger 2001-2017
</metadata>
<g transform="translate(0.000000,412.000000) scale(0.100000,-0.100000)"
fill="#000000" stroke="none">
<path d="M1592 4100 c-178 -47 -344 -181 -421 -339 -22 -46 -45 -107 -51 -136
-11 -54 -11 -54 -38 -43 -15 6 -79 12 -142 12 -96 1 -126 -3 -182 -22 -211
-73 -354 -254 -376 -479 l-7 -66 -50 -17 c-158 -54 -251 -136 -294 -263 -78
-227 17 -464 227 -570 84 -42 210 -68 223 -46 4 8 24 39 43 69 l35 55 -77 6
c-176 14 -313 129 -337 285 -10 57 11 152 43 204 36 58 108 102 233 141 l97
30 4 112 c3 101 7 119 35 179 67 141 196 234 344 245 92 7 162 -11 267 -69
l72 -39 0 83 c0 168 47 285 155 393 164 165 398 202 613 97 76 -36 181 -141
220 -217 46 -92 54 -137 53 -284 l-1 -134 90 87 c65 62 110 96 158 119 62 30
75 32 173 32 101 0 108 -1 181 -38 170 -84 259 -255 230 -444 -7 -42 -11 -78
-9 -79 2 -2 28 -8 58 -14 119 -23 220 -98 268 -200 68 -148 -5 -355 -158 -447
-30 -18 -59 -34 -65 -36 -15 -5 21 -116 40 -124 23 -9 119 44 178 98 263 240
215 652 -94 800 l-70 34 0 45 c0 70 -26 173 -61 247 -40 84 -148 195 -234 240
-150 78 -339 85 -494 17 -30 -14 -55 -23 -55 -22 -1 2 -12 35 -24 73 -64 204
-242 370 -458 425 -101 26 -242 26 -342 0z"/>
<path d="M2572 2458 c-17 -17 -17 -1569 0 -1586 15 -15 51 -15 66 0 17 17 17
1569 0 1586 -7 7 -21 12 -33 12 -12 0 -26 -5 -33 -12z"/>
<path d="M823 2363 c-10 -4 -13 -173 -13 -799 l0 -794 27 -6 c61 -16 58 -63
61 796 1 570 -1 786 -9 796 -11 14 -42 17 -66 7z"/>
<path d="M1616 1660 c-113 -264 -206 -484 -206 -490 0 -6 90 -11 238 -12 l238
-3 -253 -569 c-140 -313 -252 -573 -251 -578 2 -5 167 279 367 632 200 353
360 644 356 648 -3 4 -119 8 -256 11 -137 2 -249 6 -249 10 0 3 61 188 135
411 74 223 135 408 135 412 0 5 -11 8 -24 8 -22 0 -40 -39 -230 -480z"/>
<path d="M1177 2124 c-4 -4 -7 -362 -7 -796 l0 -788 24 -11 c17 -8 29 -8 45 0
l21 12 -2 792 -3 792 -35 3 c-20 2 -39 0 -43 -4z"/>
<path d="M2172 1979 l-22 -8 2 -793 3 -793 40 0 40 0 0 794 c0 785 0 794 -20
801 -11 4 -30 4 -43 -1z"/>
</g>
</svg>
