<?xml version="1.0" standalone="no"?>
<!DOCTYPE svg PUBLIC "-//W3C//DTD SVG 20010904//EN"
 "http://www.w3.org/TR/2001/REC-SVG-20010904/DTD/svg10.dtd">
<svg version="1.0" xmlns="http://www.w3.org/2000/svg"
 width="360.000000pt" height="283.000000pt" viewBox="0 0 360.000000 283.000000"
 preserveAspectRatio="xMidYMid meet">
<metadata>
Created by potrace 1.15, written by Peter Selinger 2001-2017
</metadata>
<g transform="translate(0.000000,283.000000) scale(0.100000,-0.100000)"
fill="#000000" stroke="none">
<path d="M1598 2815 c-227 -56 -415 -238 -472 -459 -9 -33 -18 -61 -20 -64 -3
-2 -25 1 -50 7 -63 16 -191 14 -259 -4 -231 -60 -416 -287 -417 -512 l0 -41
-64 -22 c-79 -26 -169 -83 -215 -135 -102 -117 -127 -327 -56 -482 60 -132
212 -241 367 -262 l60 -8 44 66 44 66 -80 7 c-141 12 -252 83 -307 197 -53
108 -28 269 54 341 47 41 94 64 201 96 l92 28 0 91 c0 146 40 247 133 332 93
85 184 118 310 111 70 -4 90 -10 177 -54 l97 -50 6 110 c8 172 51 269 165 378
100 96 217 141 361 140 225 -1 420 -141 492 -354 18 -53 21 -84 20 -202 l-1
-139 92 89 c103 100 165 135 266 154 207 37 422 -112 472 -329 12 -50 10 -117
-5 -201 l-7 -36 63 -13 c162 -33 274 -144 294 -292 8 -57 -15 -156 -52 -219
-36 -60 -110 -131 -162 -155 -37 -16 -42 -22 -38 -44 9 -43 37 -101 48 -101 6
0 37 14 68 30 150 80 245 216 271 388 31 198 -76 398 -258 483 l-72 34 0 45
c-1 146 -60 282 -169 390 -125 124 -236 166 -422 158 -101 -4 -123 -10 -246
-64 -7 -3 -14 10 -18 35 -9 55 -68 174 -116 235 -87 111 -224 198 -359 230
-80 19 -254 19 -332 1z"/>
<path d="M1646 1240 c-18 -165 -68 -345 -122 -438 -51 -90 -58 -107 -58 -153
0 -170 253 -234 361 -92 23 30 28 46 28 92 0 49 -6 67 -47 136 -57 97 -102
227 -123 360 -27 162 -30 171 -39 95z"/>
<path d="M2460 1200 c0 -57 -31 -174 -66 -245 -41 -85 -44 -135 -10 -170 45
-45 127 -45 171 0 42 41 42 68 -3 158 -38 77 -72 195 -72 251 0 14 -4 28 -10
31 -6 4 -10 -7 -10 -25z"/>
<path d="M947 987 c-4 -10 -7 -35 -7 -56 0 -134 -66 -368 -148 -521 -45 -86
-55 -114 -56 -155 -1 -184 244 -270 387 -136 43 39 57 74 57 139 0 47 -5 67
-30 106 -86 135 -139 288 -173 501 -14 85 -26 133 -30 122z"/>
<path d="M2185 688 c-17 -159 -71 -334 -131 -429 -52 -83 -40 -171 32 -225 34
-26 45 -29 115 -29 86 0 115 14 157 75 36 54 30 111 -22 197 -54 91 -91 201
-116 350 -11 64 -22 118 -24 120 -2 3 -7 -24 -11 -59z"/>
</g>
</svg>
