<?xml version="1.0" standalone="no"?>
<!DOCTYPE svg PUBLIC "-//W3C//DTD SVG 20010904//EN"
 "http://www.w3.org/TR/2001/REC-SVG-20010904/DTD/svg10.dtd">
<svg version="1.0" xmlns="http://www.w3.org/2000/svg"
 width="359.000000pt" height="410.000000pt" viewBox="0 0 359.000000 410.000000"
 preserveAspectRatio="xMidYMid meet">
<metadata>
Created by potrace 1.15, written by Peter Selinger 2001-2017
</metadata>
<g transform="translate(0.000000,410.000000) scale(0.100000,-0.100000)"
fill="#000000" stroke="none">
<path d="M1670 4091 c-231 -32 -418 -167 -512 -368 -18 -37 -37 -90 -43 -118
-11 -44 -15 -50 -36 -47 -94 11 -223 13 -271 3 -132 -28 -275 -127 -349 -243
-44 -69 -78 -166 -85 -248 l-7 -69 -64 -22 c-85 -28 -179 -92 -226 -154 -57
-76 -80 -163 -75 -288 3 -89 8 -110 35 -167 39 -83 92 -143 167 -192 67 -43
168 -78 227 -78 36 0 41 3 79 63 l40 62 0 -36 c0 -104 -52 -286 -120 -417 -47
-91 -49 -124 -10 -186 57 -93 225 -95 293 -4 30 40 33 115 7 158 -73 124 -119
255 -142 414 l-11 81 -82 1 c-68 0 -91 5 -146 31 -88 41 -133 83 -170 159 -26
53 -31 74 -31 131 3 167 67 242 262 304 52 17 99 34 103 39 5 4 10 55 11 112
1 99 3 109 39 180 63 129 183 218 317 236 94 13 162 -1 272 -58 l96 -49 0 107
c0 85 4 120 21 171 115 334 517 462 806 257 156 -112 221 -262 209 -486 l-7
-115 94 91 c105 100 170 138 269 156 201 35 410 -102 465 -306 17 -64 17 -159
-1 -237 -5 -24 -3 -26 39 -32 124 -17 234 -92 284 -195 24 -48 28 -69 28 -137
0 -72 -4 -89 -34 -150 -40 -80 -116 -161 -179 -189 -23 -11 -42 -23 -42 -27 0
-21 43 -119 52 -119 30 0 141 72 195 127 149 150 193 378 107 559 -46 98 -158
201 -255 234 l-36 13 -6 86 c-19 292 -254 514 -547 515 -96 0 -173 -16 -243
-51 -35 -17 -48 -20 -51 -11 -2 7 -12 38 -21 68 -59 196 -247 372 -450 423
-77 20 -195 27 -265 18z"/>
<path d="M2557 2627 c-4 -10 -7 -33 -7 -51 0 -56 -38 -183 -80 -269 -48 -98
-46 -130 7 -177 62 -55 174 -36 208 36 22 46 19 59 -24 143 -44 85 -66 156
-84 263 -9 49 -15 67 -20 55z"/>
<path d="M1347 2580 c-3 -14 -10 -60 -16 -103 -13 -96 -53 -216 -92 -280 -71
-115 -12 -227 121 -227 73 0 133 48 146 116 5 29 -1 50 -38 122 -56 109 -76
169 -98 296 -11 68 -19 93 -23 76z"/>
<path d="M1610 1639 c-162 -260 -296 -478 -298 -485 -3 -11 58 -14 340 -16
l344 -3 -363 -560 c-200 -308 -363 -564 -363 -569 0 -15 -6 -22 539 639 l511
620 -142 6 c-79 4 -245 7 -370 8 -126 0 -228 4 -228 9 0 4 88 187 195 406 107
219 195 403 195 407 0 5 -15 9 -32 9 -33 0 -37 -7 -328 -471z"/>
<path d="M2176 1895 c-14 -92 -36 -166 -72 -242 -43 -89 -40 -123 15 -160 75
-51 180 -9 181 72 0 17 -16 62 -35 100 -19 39 -42 99 -50 135 -8 36 -18 83
-23 105 l-9 40 -7 -50z"/>
</g>
</svg>
