<?xml version="1.0" standalone="no"?>
<!DOCTYPE svg PUBLIC "-//W3C//DTD SVG 20010904//EN"
 "http://www.w3.org/TR/2001/REC-SVG-20010904/DTD/svg10.dtd">
<svg version="1.0" xmlns="http://www.w3.org/2000/svg"
 width="148.000000pt" height="147.000000pt" viewBox="0 0 148.000000 147.000000"
 preserveAspectRatio="xMidYMid meet">
<metadata>
Created by potrace 1.15, written by Peter Selinger 2001-2017
</metadata>
<g transform="translate(0.000000,147.000000) scale(0.100000,-0.100000)"
fill="#000000" stroke="none">
<path d="M553 1450 c-259 -68 -457 -267 -529 -532 -24 -87 -24 -280 0 -368 62
-229 228 -416 446 -503 101 -40 176 -50 313 -45 137 6 234 34 343 99 120 70
241 213 301 354 55 130 67 336 28 480 -69 251 -274 451 -529 515 -105 26 -272
27 -373 0z m314 -46 c152 -31 261 -92 371 -208 122 -129 183 -282 183 -461 0
-120 -17 -190 -72 -305 -34 -70 -58 -101 -133 -175 -142 -141 -279 -199 -471
-199 -123 -1 -184 14 -300 69 -161 77 -286 218 -349 394 -28 79 -31 96 -31
216 0 120 3 137 31 216 63 176 187 317 349 394 50 24 115 48 145 54 30 6 64
13 75 15 47 9 131 5 202 -10z"/>
<path d="M590 1384 c-179 -38 -358 -179 -438 -344 -56 -113 -72 -183 -72 -305
0 -122 16 -192 72 -305 81 -167 260 -307 443 -345 299 -63 606 80 740 345 94
186 94 424 0 610 -112 220 -347 361 -600 359 -44 0 -109 -7 -145 -15z"/>
</g>
</svg>
