<?xml version="1.0" standalone="no"?>
<!DOCTYPE svg PUBLIC "-//W3C//DTD SVG 20010904//EN"
 "http://www.w3.org/TR/2001/REC-SVG-20010904/DTD/svg10.dtd">
<svg version="1.0" xmlns="http://www.w3.org/2000/svg"
 width="147.000000pt" height="147.000000pt" viewBox="0 0 147.000000 147.000000"
 preserveAspectRatio="xMidYMid meet">
<metadata>
Created by potrace 1.15, written by Peter Selinger 2001-2017
</metadata>
<g transform="translate(0.000000,147.000000) scale(0.100000,-0.100000)"
fill="#000000" stroke="none">
<path d="M542 1450 c-125 -33 -225 -92 -327 -195 -152 -151 -215 -304 -215
-520 0 -216 63 -369 215 -520 151 -152 304 -215 519 -215 139 0 215 18 336 77
78 39 110 62 181 133 93 92 143 171 187 293 24 66 26 85 26 232 0 147 -2 166
-26 232 -44 122 -94 201 -187 293 -71 71 -103 94 -181 133 -52 25 -124 53
-160 62 -93 21 -276 19 -368 -5z m398 -66 c194 -61 356 -213 430 -405 42 -110
57 -226 41 -330 -25 -163 -83 -280 -197 -393 -110 -111 -251 -181 -401 -200
l-53 -7 0 686 0 686 53 -7 c28 -4 86 -17 127 -30z"/>
</g>
</svg>
