<?xml version="1.0" standalone="no"?>
<!DOCTYPE svg PUBLIC "-//W3C//DTD SVG 20010904//EN"
 "http://www.w3.org/TR/2001/REC-SVG-20010904/DTD/svg10.dtd">
<svg version="1.0" xmlns="http://www.w3.org/2000/svg"
 width="241.000000pt" height="189.000000pt" viewBox="0 0 241.000000 189.000000"
 preserveAspectRatio="xMidYMid meet">
<metadata>
Created by potrace 1.15, written by Peter Selinger 2001-2017
</metadata>
<g transform="translate(0.000000,189.000000) scale(0.100000,-0.100000)"
fill="#000000" stroke="none">
<path d="M1418 1883 c-27 -2 -48 -8 -48 -12 0 -4 17 -20 38 -34 63 -46 171
-159 219 -230 157 -235 188 -555 78 -810 -49 -114 -91 -180 -169 -264 -116
-125 -261 -212 -417 -252 -38 -9 -71 -20 -75 -23 -10 -10 175 -95 245 -113
236 -60 483 -27 686 93 109 64 255 211 314 315 161 286 159 623 -6 907 -52 88
-209 246 -299 299 -85 50 -170 84 -262 105 -73 17 -228 26 -304 19z"/>
<path d="M229 1573 l-35 -88 -84 -21 c-47 -11 -91 -23 -98 -25 -8 -3 17 -30
63 -68 l76 -62 -7 -101 -7 -100 82 51 c44 28 84 51 89 51 4 0 45 -16 91 -35
46 -20 85 -34 87 -32 2 1 -8 44 -21 95 l-23 93 63 72 c35 40 61 75 58 79 -2 5
-37 8 -76 8 -107 0 -111 3 -163 91 -25 43 -49 79 -53 79 -4 0 -23 -39 -42 -87z"/>
<path d="M1065 1221 l-30 -79 -83 -18 c-45 -9 -81 -20 -80 -24 2 -4 31 -31 65
-59 l62 -52 -5 -67 c-3 -37 -7 -75 -9 -84 -2 -10 -1 -18 1 -18 2 0 35 20 74
45 l70 45 75 -31 c42 -18 77 -30 80 -28 2 3 -5 40 -16 82 l-20 78 56 63 c64
73 62 76 -45 76 l-68 0 -44 75 c-23 41 -45 75 -48 75 -3 0 -19 -36 -35 -79z"/>
<path d="M347 683 c-2 -4 -24 -56 -47 -115 -47 -122 -29 -109 -197 -144 -46
-10 -83 -20 -83 -24 0 -3 42 -40 92 -82 l93 -76 -9 -116 c-5 -64 -7 -119 -3
-122 3 -3 48 22 101 55 52 34 100 61 105 61 5 0 56 -20 113 -44 56 -25 105
-40 107 -35 1 6 -9 59 -24 120 l-27 109 48 56 c92 107 106 125 101 131 -3 3
-53 8 -111 10 -59 3 -113 11 -121 17 -9 6 -42 55 -74 109 -32 55 -61 95 -64
90z"/>
</g>
</svg>
