<?xml version="1.0" standalone="no"?>
<!DOCTYPE svg PUBLIC "-//W3C//DTD SVG 20010904//EN"
 "http://www.w3.org/TR/2001/REC-SVG-20010904/DTD/svg10.dtd">
<svg version="1.0" xmlns="http://www.w3.org/2000/svg"
 width="242.000000pt" height="175.000000pt" viewBox="0 0 242.000000 175.000000"
 preserveAspectRatio="xMidYMid meet">
<metadata>
Created by potrace 1.15, written by Peter Selinger 2001-2017
</metadata>
<g transform="translate(0.000000,175.000000) scale(0.100000,-0.100000)"
fill="#000000" stroke="none">
<path d="M1475 1744 c-69 -8 -70 -12 -7 -59 352 -265 438 -757 197 -1131 l-39
-59 -9 35 c-25 99 -34 117 -87 172 -79 81 -175 107 -283 74 l-45 -14 -17 44
c-25 67 -94 136 -167 170 -89 40 -197 41 -283 1 -33 -16 -77 -45 -98 -65 -39
-37 -87 -118 -87 -146 0 -11 -19 -15 -82 -18 -95 -4 -143 -23 -198 -78 -43
-43 -71 -99 -78 -155 -4 -38 -8 -42 -64 -68 -68 -33 -101 -76 -118 -151 -20
-93 14 -185 92 -242 71 -53 77 -53 800 -54 l671 0 56 24 c31 13 83 29 116 36
194 39 392 168 514 335 114 157 175 392 152 588 -50 428 -379 739 -802 760
-52 3 -112 3 -134 1z m-481 -872 c34 -20 61 -45 81 -77 27 -44 30 -58 33 -147
l4 -99 61 59 c95 91 176 105 260 45 67 -47 96 -132 74 -215 -6 -24 -4 -28 14
-28 22 0 22 0 3 -21 -61 -67 -275 -179 -372 -195 -23 -4 -45 -10 -48 -15 -2
-5 26 -24 63 -43 l68 -35 -500 0 c-467 -1 -503 1 -541 18 -81 37 -114 135 -67
199 17 23 89 60 146 75 14 4 17 16 17 61 0 67 17 111 56 148 62 58 148 65 231
18 29 -16 55 -30 58 -30 3 0 5 31 5 68 0 197 185 309 354 214z"/>
</g>
</svg>
