<?xml version="1.0" standalone="no"?>
<!DOCTYPE svg PUBLIC "-//W3C//DTD SVG 20010904//EN"
 "http://www.w3.org/TR/2001/REC-SVG-20010904/DTD/svg10.dtd">
<svg version="1.0" xmlns="http://www.w3.org/2000/svg"
 width="148.000000pt" height="147.000000pt" viewBox="0 0 148.000000 147.000000"
 preserveAspectRatio="xMidYMid meet">
<metadata>
Created by potrace 1.15, written by Peter Selinger 2001-2017
</metadata>
<g transform="translate(0.000000,147.000000) scale(0.100000,-0.100000)"
fill="#000000" stroke="none">
<path d="M551 1449 c-253 -66 -441 -249 -523 -509 -33 -108 -33 -302 0 -410
104 -329 373 -530 712 -530 293 0 543 156 666 415 53 111 68 184 68 320 0 136
-15 209 -68 320 -93 196 -270 341 -482 395 -104 27 -270 26 -373 -1z m360 -54
c178 -46 357 -192 436 -355 53 -108 73 -194 73 -305 0 -111 -20 -197 -73 -305
-79 -162 -258 -309 -434 -354 -166 -43 -312 -28 -473 51 -80 39 -109 59 -181
133 -70 69 -95 104 -128 171 -51 107 -71 190 -71 304 0 114 20 197 71 304 33
68 58 101 128 171 115 116 236 178 396 204 52 8 190 -2 256 -19z"/>
<path d="M675 1403 c-252 -35 -463 -209 -549 -452 -28 -79 -30 -97 -30 -216 0
-119 2 -137 30 -216 91 -257 305 -424 582 -455 34 -3 62 -3 62 1 0 4 -8 19
-19 33 -27 39 -97 182 -125 254 -94 251 -94 515 0 766 28 72 98 215 125 254
11 14 19 29 19 32 0 6 -45 6 -95 -1z"/>
</g>
</svg>
