<?xml version="1.0" standalone="no"?>
<!DOCTYPE svg PUBLIC "-//W3C//DTD SVG 20010904//EN"
 "http://www.w3.org/TR/2001/REC-SVG-20010904/DTD/svg10.dtd">
<svg version="1.0" xmlns="http://www.w3.org/2000/svg"
 width="378.000000pt" height="391.000000pt" viewBox="0 0 378.000000 391.000000"
 preserveAspectRatio="xMidYMid meet">
<metadata>
Created by potrace 1.15, written by Peter Selinger 2001-2017
</metadata>
<g transform="translate(0.000000,391.000000) scale(0.100000,-0.100000)"
fill="#000000" stroke="none">
<path d="M2967 3902 c-17 -7 -14 -12 23 -37 102 -71 199 -204 246 -340 25 -71
28 -94 29 -210 0 -108 -4 -142 -23 -202 -12 -40 -26 -73 -30 -73 -4 0 -20 25
-35 54 -53 101 -172 203 -286 247 -150 56 -290 45 -478 -38 -8 -3 -13 3 -13
18 -1 42 -56 166 -104 234 -84 117 -225 212 -371 250 -82 22 -252 22 -334 0
-236 -61 -416 -235 -475 -459 -8 -32 -17 -60 -19 -62 -2 -3 -24 0 -48 5 -65
15 -197 13 -263 -4 -231 -60 -416 -290 -416 -515 l0 -38 -64 -22 c-132 -44
-236 -133 -278 -239 -19 -47 -22 -76 -23 -181 0 -120 1 -128 32 -193 58 -121
165 -211 302 -251 30 -9 71 -16 92 -16 34 0 39 5 78 63 l41 62 -73 7 c-208 18
-340 146 -340 328 1 164 74 245 278 305 l93 28 4 113 c4 105 7 117 41 187 44
88 117 161 205 203 45 22 76 29 144 32 102 5 154 -8 260 -69 39 -21 71 -39 71
-39 1 0 2 48 3 108 2 169 46 273 162 384 201 192 527 189 727 -8 61 -60 95
-115 127 -200 18 -51 21 -77 19 -204 l-1 -145 82 82 c105 103 161 138 256 159
60 13 86 15 138 6 172 -28 309 -153 354 -321 l12 -44 -44 -44 c-69 -71 -180
-139 -279 -170 -49 -15 -89 -31 -89 -34 0 -10 122 -66 186 -86 89 -27 305 -25
394 5 l65 22 27 -32 c69 -80 91 -184 63 -287 -32 -111 -108 -207 -205 -256
-19 -10 -36 -19 -38 -20 -8 -7 33 -118 45 -122 17 -7 126 54 178 99 59 52 118
143 146 225 19 53 23 88 23 163 -1 105 -20 171 -74 252 l-30 45 88 89 c144
146 206 292 206 489 0 129 -13 191 -64 300 -86 184 -221 305 -415 371 -64 21
-103 27 -195 30 -63 2 -123 0 -133 -4z"/>
<path d="M1636 2560 c-17 -168 -55 -300 -127 -439 -40 -77 -49 -103 -49 -146
0 -100 80 -169 195 -169 66 1 105 16 147 61 64 68 64 128 -2 242 -60 105 -103
233 -125 377 -24 151 -30 164 -39 74z"/>
<path d="M2450 2188 c-1 -62 -30 -173 -65 -244 -44 -90 -45 -130 -6 -168 65
-62 175 -35 195 47 9 34 6 45 -27 106 -39 72 -77 200 -77 258 0 18 -4 33 -10
33 -5 0 -10 -15 -10 -32z"/>
<path d="M2007 1823 c-320 -511 -406 -649 -413 -666 -6 -15 22 -17 339 -19
l345 -3 -365 -563 c-201 -310 -363 -565 -360 -568 3 -3 240 280 527 628 l523
633 -375 5 -376 5 199 409 c110 225 199 411 199 413 0 1 -15 3 -34 3 -34 0
-36 -2 -209 -277z"/>
<path d="M937 1953 c-4 -21 -9 -65 -12 -98 -16 -156 -79 -350 -157 -486 -32
-55 -38 -75 -38 -123 0 -63 14 -98 57 -137 48 -45 92 -62 163 -62 129 0 222
82 224 198 0 43 -7 63 -52 140 -83 144 -127 281 -158 491 -9 60 -17 110 -19
112 -2 2 -5 -14 -8 -35z"/>
</g>
</svg>
