<?xml version="1.0" standalone="no"?>
<!DOCTYPE svg PUBLIC "-//W3C//DTD SVG 20010904//EN"
 "http://www.w3.org/TR/2001/REC-SVG-20010904/DTD/svg10.dtd">
<svg version="1.0" xmlns="http://www.w3.org/2000/svg"
 width="360.000000pt" height="239.000000pt" viewBox="0 0 360.000000 239.000000"
 preserveAspectRatio="xMidYMid meet">
<metadata>
Created by potrace 1.15, written by Peter Selinger 2001-2017
</metadata>
<g transform="translate(0.000000,239.000000) scale(0.100000,-0.100000)"
fill="#000000" stroke="none">
<path d="M1690 2383 c-228 -29 -424 -161 -518 -350 -22 -45 -46 -107 -53 -138
-11 -50 -15 -56 -33 -50 -44 14 -222 17 -279 5 -228 -47 -427 -280 -427 -500
l0 -57 -42 -13 c-72 -21 -171 -76 -215 -118 -55 -54 -89 -114 -107 -192 -47
-196 19 -381 174 -489 95 -67 152 -83 325 -92 231 -12 353 -55 534 -190 51
-38 121 -82 157 -99 137 -66 383 -107 570 -97 173 10 272 45 374 133 109 94
241 132 389 113 85 -10 159 -29 336 -83 186 -58 294 -60 355 -9 50 42 73 97
78 190 l4 83 43 24 c95 56 198 200 224 316 18 76 13 194 -9 261 -24 69 -38 95
-91 159 l-37 46 19 24 c36 46 87 144 109 210 31 91 38 278 16 375 -21 90 -82
214 -141 287 -84 105 -232 197 -375 234 -68 18 -273 25 -287 10 -5 -5 3 -15
17 -24 14 -8 60 -51 102 -93 62 -63 86 -97 122 -171 44 -91 76 -210 76 -283
l0 -36 -47 39 c-59 49 -150 95 -223 113 -117 29 -295 8 -390 -45 -24 -14 -24
-14 -51 65 -37 109 -81 179 -169 262 -81 78 -183 136 -282 161 -63 16 -194 26
-248 19z m175 -148 c105 -22 190 -68 266 -144 117 -117 152 -214 147 -411 -2
-71 -1 -130 2 -130 3 0 42 37 87 83 94 96 168 140 264 158 151 27 318 -44 409
-175 l29 -43 -46 -94 c-38 -77 -60 -108 -132 -179 -69 -69 -103 -95 -171 -128
-47 -23 -107 -47 -135 -54 -27 -6 -54 -15 -59 -19 -12 -10 126 -74 204 -95 87
-23 254 -23 340 0 66 17 180 68 237 106 l31 21 31 -33 c58 -61 76 -112 76
-213 0 -78 -4 -97 -28 -146 -32 -67 -94 -139 -143 -170 l-36 -22 -37 21 c-77
43 -158 38 -230 -16 -105 -78 -68 -272 52 -272 14 0 35 9 48 19 l24 20 -38 31
c-20 17 -42 40 -47 50 -23 42 32 100 96 100 36 0 100 -65 109 -111 8 -46 -9
-111 -39 -146 -22 -25 -30 -28 -83 -26 -35 1 -105 16 -178 39 -205 63 -296 84
-395 91 -173 11 -303 -28 -429 -131 -36 -29 -81 -60 -98 -70 -150 -77 -563
-53 -754 44 -20 11 -83 54 -140 97 -119 89 -224 144 -324 168 -114 28 -118 34
-25 34 118 1 190 -19 359 -98 271 -128 450 -176 629 -169 132 5 191 28 284
116 133 123 213 149 423 136 77 -5 181 -8 231 -8 84 0 96 2 140 29 120 75 137
265 31 362 -56 52 -101 66 -191 61 -62 -3 -79 -8 -110 -32 -74 -56 -80 -139
-17 -200 41 -39 115 -48 151 -17 l25 21 -33 30 c-18 16 -41 30 -51 30 -10 0
-25 7 -32 16 -11 14 -10 19 10 35 51 41 121 36 176 -12 60 -53 57 -150 -6
-203 -36 -31 -69 -32 -284 -15 -241 20 -375 -19 -516 -148 -97 -88 -140 -107
-254 -107 -153 -1 -312 46 -575 169 -147 69 -218 91 -327 101 -82 8 -207 -8
-290 -37 -31 -10 -69 -19 -84 -19 -38 0 -141 39 -133 51 23 38 235 107 353
116 131 9 225 -14 401 -97 230 -109 346 -140 516 -140 157 0 311 47 422 129
129 96 124 327 -10 417 -166 112 -384 -21 -310 -188 27 -61 72 -88 147 -88 48
0 56 3 51 16 -3 9 -6 27 -6 40 0 25 -4 28 -52 38 -56 12 -77 66 -38 101 27 25
99 31 137 11 66 -33 97 -127 68 -202 -36 -95 -219 -175 -400 -177 -160 -2
-290 35 -503 142 -118 59 -184 80 -294 91 -164 16 -357 -24 -507 -106 -62 -34
-66 -35 -79 -17 -80 107 -80 277 0 369 47 53 97 81 211 118 l102 33 1 99 c3
191 87 326 248 400 124 57 233 50 379 -25 l97 -50 0 89 c0 110 14 177 52 256
83 172 267 287 468 293 19 0 67 -6 105 -14z"/>
</g>
</svg>
