<?xml version="1.0" standalone="no"?>
<!DOCTYPE svg PUBLIC "-//W3C//DTD SVG 20010904//EN"
 "http://www.w3.org/TR/2001/REC-SVG-20010904/DTD/svg10.dtd">
<svg version="1.0" xmlns="http://www.w3.org/2000/svg"
 width="415.000000pt" height="317.000000pt" viewBox="0 0 415.000000 317.000000"
 preserveAspectRatio="xMidYMid meet">
<metadata>
Created by potrace 1.15, written by Peter Selinger 2001-2017
</metadata>
<g transform="translate(0.000000,317.000000) scale(0.100000,-0.100000)"
fill="#000000" stroke="none">
<path d="M1470 3165 c-8 -2 -49 -9 -90 -15 -234 -38 -482 -170 -666 -354 -269
-269 -423 -673 -424 -1108 l0 -118 29 0 c15 0 48 3 72 6 l44 6 2 127 c4 220
65 486 153 662 88 176 250 364 398 462 313 208 673 250 1044 121 167 -58 325
-149 436 -249 l54 -48 51 52 52 52 -55 51 c-167 152 -420 276 -680 333 -68 15
-380 30 -420 20z"/>
<path d="M1481 2770 c-309 -65 -558 -270 -670 -552 -53 -132 -91 -331 -91
-480 l0 -58 53 0 c97 0 97 1 97 95 0 271 120 550 298 690 70 56 216 129 297
150 245 63 485 -11 730 -224 l70 -61 50 51 50 50 -69 65 c-123 115 -288 211
-438 255 -83 24 -301 35 -377 19z"/>
<path d="M2562 2115 c-97 -27 -164 -67 -237 -140 -39 -39 -84 -95 -100 -127
l-29 -56 -45 39 c-60 53 -190 116 -276 134 -196 41 -406 -7 -561 -127 -100
-78 -191 -217 -217 -334 -7 -30 -16 -55 -20 -55 -4 -1 -40 5 -80 12 -166 28
-348 -32 -471 -155 -92 -92 -145 -206 -161 -347 -7 -56 -7 -57 -48 -69 -99
-29 -200 -97 -245 -163 -54 -78 -74 -157 -70 -277 3 -93 7 -112 34 -171 57
-119 162 -209 292 -249 62 -19 106 -20 1417 -26 1065 -5 1364 -4 1406 6 203
47 379 264 379 466 l0 42 158 4 c146 3 161 5 215 30 110 52 190 141 227 253
31 93 26 216 -12 298 -33 70 -106 144 -176 176 -49 23 -52 27 -52 61 0 99 -56
228 -134 306 -125 124 -310 165 -480 105 -43 -15 -56 -16 -56 -6 0 29 -82 174
-124 217 -58 61 -136 112 -211 139 -79 28 -247 35 -323 14z m233 -141 c115
-29 210 -107 262 -212 27 -55 28 -63 27 -199 -1 -79 1 -143 4 -143 3 0 45 38
93 85 47 47 103 92 123 100 165 69 339 3 411 -156 28 -63 34 -147 16 -221 -8
-36 -8 -37 23 -43 124 -23 189 -65 230 -146 31 -63 33 -119 7 -189 -26 -69
-71 -121 -133 -155 -51 -28 -59 -30 -203 -33 l-150 -4 -19 49 c-28 68 -133
171 -218 213 l-68 33 0 51 c-1 196 -132 398 -315 482 -142 66 -321 69 -453 9
-30 -14 -56 -24 -57 -23 -14 15 -58 162 -58 190 1 56 53 156 108 211 101 99
237 136 370 101z m-985 -144 c96 -16 200 -69 275 -140 118 -114 159 -232 148
-427 -3 -62 -4 -113 -1 -113 3 0 44 38 90 85 163 162 324 200 502 117 157 -74
256 -259 227 -425 -16 -95 -16 -94 32 -102 123 -21 225 -92 274 -193 23 -47
28 -70 28 -133 0 -65 -5 -85 -33 -142 -41 -84 -107 -151 -180 -185 -75 -35
-31 -34 -1532 -25 l-1245 8 -57 27 c-72 33 -137 93 -167 153 -28 57 -38 148
-22 212 30 121 110 179 317 233 l42 10 4 113 c3 100 7 119 35 178 76 162 215
246 390 237 78 -4 92 -8 183 -55 l98 -51 4 116 c6 134 24 194 90 293 69 104
202 186 334 208 70 12 91 12 164 1z"/>
</g>
</svg>
