<?xml version="1.0" standalone="no"?>
<!DOCTYPE svg PUBLIC "-//W3C//DTD SVG 20010904//EN"
 "http://www.w3.org/TR/2001/REC-SVG-20010904/DTD/svg10.dtd">
<svg version="1.0" xmlns="http://www.w3.org/2000/svg"
 width="359.000000pt" height="338.000000pt" viewBox="0 0 359.000000 338.000000"
 preserveAspectRatio="xMidYMid meet">
<metadata>
Created by potrace 1.15, written by Peter Selinger 2001-2017
</metadata>
<g transform="translate(0.000000,338.000000) scale(0.100000,-0.100000)"
fill="#000000" stroke="none">
<path d="M1644 3369 c-72 -12 -173 -50 -240 -90 -130 -78 -253 -247 -286 -391
-9 -44 -16 -57 -28 -53 -46 14 -161 26 -200 20 -155 -20 -248 -63 -346 -160
-102 -100 -159 -224 -166 -356 l-3 -57 -57 -17 c-134 -40 -245 -137 -287 -251
-28 -73 -37 -191 -22 -266 36 -169 171 -307 348 -353 98 -26 107 -23 153 44
22 33 40 62 40 65 0 4 -16 6 -35 6 -142 0 -282 79 -343 195 -23 43 -27 62 -27
140 0 81 3 95 29 143 16 28 44 64 63 78 40 30 123 68 184 84 24 6 57 16 73 22
28 11 28 12 23 77 -11 134 31 250 122 342 65 65 142 105 229 120 89 16 167 0
275 -56 48 -25 90 -45 92 -45 3 0 5 42 5 93 0 165 41 267 151 380 280 283 763
159 874 -226 13 -44 16 -88 13 -182 -2 -69 -1 -125 1 -125 2 0 41 35 86 79 96
92 148 124 235 147 287 73 563 -190 507 -483 -16 -81 -19 -76 58 -89 101 -17
208 -95 257 -186 19 -36 23 -58 23 -138 0 -85 -3 -101 -29 -155 -36 -73 -120
-159 -182 -186 -35 -16 -44 -24 -39 -37 4 -9 14 -37 23 -62 8 -25 16 -47 18
-49 2 -2 34 11 71 29 45 22 90 55 133 99 101 103 150 220 150 363 0 200 -116
363 -312 437 -27 10 -28 14 -28 78 0 171 -100 347 -251 444 -156 100 -374 115
-537 37 l-50 -24 -16 59 c-87 312 -417 512 -752 456z"/>
<path d="M1166 2045 c-19 -115 -42 -195 -72 -253 -41 -79 -43 -112 -6 -152 51
-58 161 -49 191 16 18 39 13 70 -18 127 -36 64 -58 133 -75 229 -13 72 -13 72
-20 33z"/>
<path d="M1647 1833 c-4 -3 -7 -23 -7 -43 0 -121 -65 -350 -131 -465 -50 -85
-58 -129 -34 -190 48 -128 246 -155 338 -46 52 62 55 144 8 210 -64 90 -126
277 -151 454 -7 48 -13 87 -14 87 -2 0 -6 -3 -9 -7z"/>
<path d="M2784 1666 c-28 -28 -34 -42 -34 -76 0 -35 6 -48 35 -77 33 -33 39
-35 81 -30 68 7 99 42 99 108 0 45 -4 54 -33 80 -47 43 -102 41 -148 -5z"/>
<path d="M2193 1660 c-48 -29 -67 -65 -67 -126 -1 -86 58 -148 141 -148 94 1
153 58 153 147 0 59 -21 102 -63 127 -43 26 -121 26 -164 0z"/>
<path d="M932 1431 c-22 -196 -80 -380 -160 -507 -32 -52 -36 -67 -37 -125 0
-56 4 -72 29 -107 85 -123 303 -122 384 1 22 34 27 52 27 106 0 60 -4 72 -42
131 -77 119 -137 305 -164 500 -7 52 -15 98 -19 102 -3 5 -11 -41 -18 -101z"/>
<path d="M2822 1220 c-100 -61 -95 -204 8 -257 24 -13 56 -23 70 -23 14 0 46
10 70 23 138 70 86 277 -70 277 -27 0 -58 -8 -78 -20z"/>
<path d="M2321 1012 c-121 -65 -74 -255 62 -255 87 0 137 51 137 141 0 103
-106 164 -199 114z"/>
<path d="M1487 722 c-11 -108 -43 -220 -93 -319 -40 -79 -46 -98 -41 -133 17
-130 209 -164 284 -51 28 42 29 86 3 131 -68 116 -113 253 -127 380 -3 33 -9
60 -13 60 -4 0 -10 -31 -13 -68z"/>
<path d="M2841 593 c-124 -65 -93 -242 45 -259 73 -9 141 46 150 122 13 104
-103 186 -195 137z"/>
<path d="M2275 280 c-61 -40 -82 -126 -49 -196 44 -92 174 -108 243 -29 57 65
51 157 -14 214 -31 27 -43 31 -93 31 -40 0 -66 -6 -87 -20z"/>
</g>
</svg>
