<?xml version="1.0" standalone="no"?>
<!DOCTYPE svg PUBLIC "-//W3C//DTD SVG 20010904//EN"
 "http://www.w3.org/TR/2001/REC-SVG-20010904/DTD/svg10.dtd">
<svg version="1.0" xmlns="http://www.w3.org/2000/svg"
 width="353.000000pt" height="194.000000pt" viewBox="0 0 353.000000 194.000000"
 preserveAspectRatio="xMidYMid meet">
<metadata>
Created by potrace 1.15, written by Peter Selinger 2001-2017
</metadata>
<g transform="translate(0.000000,194.000000) scale(0.100000,-0.100000)"
fill="#000000" stroke="none">
<path d="M1716 1918 c-14 -20 -16 -70 -16 -395 0 -360 1 -374 20 -393 25 -25
61 -26 88 -2 19 16 20 32 25 389 3 269 1 378 -7 395 -17 34 -88 38 -110 6z"/>
<path d="M607 1532 c-40 -44 -29 -62 214 -342 126 -146 239 -273 250 -282 28
-24 64 -23 89 2 44 44 34 61 -191 321 -277 320 -276 319 -314 319 -18 0 -39
-8 -48 -18z"/>
<path d="M2610 1275 c-251 -241 -265 -256 -268 -294 -3 -33 1 -43 22 -57 17
-10 35 -14 52 -10 16 4 134 111 290 263 238 230 264 259 264 288 0 39 -26 65
-66 65 -25 0 -71 -40 -294 -255z"/>
<path d="M1590 986 c-282 -63 -498 -232 -619 -487 -42 -86 -81 -218 -81 -273
0 -17 -3 -41 -6 -54 l-6 -22 -439 0 -439 0 0 -75 0 -75 1765 0 1765 0 0 75 0
75 -438 0 -438 0 -12 88 c-50 370 -331 672 -694 746 -91 19 -277 20 -358 2z
m361 -151 c179 -48 354 -181 448 -339 46 -78 91 -207 98 -283 l6 -63 -738 0
-738 0 6 60 c16 152 97 313 216 430 112 109 233 175 380 206 80 16 241 11 322
-11z"/>
<path d="M20 663 c-22 -28 -21 -66 3 -90 10 -10 708 -163 744 -163 23 0 53 39
53 68 0 57 -4 58 -380 137 -195 41 -365 75 -377 75 -12 0 -31 -12 -43 -27z"/>
<path d="M3060 615 c-291 -62 -347 -77 -362 -95 -10 -12 -18 -31 -18 -42 0
-19 41 -68 58 -68 17 0 688 141 719 151 74 24 51 132 -27 128 -14 -1 -180 -34
-370 -74z"/>
</g>
</svg>
