<svg id="svg" version="1.1" width="1683" height="1696" xmlns="http://www.w3.org/2000/svg" xmlns:xlink="http://www.w3.org/1999/xlink" ><g id="svgg"><path id="path0" d="M299.483 0.520 C 297.430 1.593,297.553 0.078,297.703 22.331 C 297.815 38.972,297.889 42.102,298.193 42.956 C 299.178 45.724,303.082 45.903,304.373 43.240 L 304.883 42.187 304.729 22.299 C 304.577 2.704,304.568 2.401,304.085 1.755 C 302.821 0.062,301.194 -0.374,299.483 0.520 M359.318 23.000 C 358.075 23.820,334.450 54.398,334.279 55.407 C 333.794 58.279,337.080 60.526,339.520 58.991 C 340.094 58.630,360.752 32.546,363.815 28.315 C 366.152 25.087,362.572 20.854,359.318 23.000 M234.691 27.340 C 232.434 28.019,231.630 31.077,233.192 33.046 C 235.261 35.656,258.592 62.060,259.098 62.365 C 262.381 64.344,265.910 60.119,263.518 57.072 C 261.539 54.553,238.195 28.060,237.671 27.739 C 236.870 27.249,235.570 27.075,234.691 27.340 M295.187 51.120 C 262.301 55.335,243.024 90.633,257.363 120.380 L 258.738 123.232 255.156 123.261 C 246.452 123.330,236.636 126.032,229.795 130.241 L 228.668 130.934 228.397 129.579 C 225.776 116.485,218.740 104.517,208.372 95.516 C 207.486 94.747,206.869 94.118,207.000 94.118 C 207.131 94.118,215.075 94.759,224.653 95.543 C 244.318 97.154,244.153 97.146,245.205 96.504 C 247.327 95.211,247.205 91.533,245.007 90.492 C 244.068 90.047,205.436 86.789,204.356 87.063 C 203.285 87.336,202.276 88.369,201.996 89.479 L 201.740 90.498 199.100 88.936 C 180.965 78.207,156.802 77.679,137.668 87.593 C 120.755 96.356,108.561 112.843,105.507 131.075 C 105.354 131.990,105.200 132.773,105.164 132.814 C 105.129 132.855,104.206 132.619,103.114 132.290 C 69.749 122.244,35.747 147.685,35.651 182.769 L 35.646 184.551 32.537 185.482 C 10.689 192.019,0.222 205.373,0.199 226.738 C 0.181 243.412,9.363 257.592,25.074 265.155 C 30.398 267.718,38.414 269.756,43.169 269.756 L 44.164 269.756 47.988 263.855 C 50.091 260.609,51.812 257.899,51.812 257.832 C 51.812 257.765,49.914 257.712,47.594 257.713 C 23.854 257.731,8.101 238.914,13.705 217.231 C 16.426 206.702,23.876 200.886,40.642 196.205 C 42.668 195.639,45.288 194.814,46.465 194.372 L 48.604 193.568 48.560 190.248 C 48.536 188.422,48.486 184.789,48.449 182.175 C 48.091 156.907,72.865 137.560,97.600 143.792 C 101.654 144.813,104.625 146.119,111.132 149.741 C 114.412 151.567,117.139 153.060,117.193 153.060 C 117.247 153.060,117.255 149.828,117.212 145.878 C 117.027 128.971,120.776 118.535,130.711 108.293 C 155.830 82.398,200.213 90.617,213.563 123.635 C 216.988 132.105,217.343 136.210,216.374 156.150 L 216.230 159.121 223.682 151.746 C 231.983 143.532,233.531 142.289,238.503 139.850 C 263.903 127.389,293.563 144.277,296.177 172.689 C 296.530 176.531,296.201 180.453,295.064 185.956 C 294.608 188.167,294.267 190.009,294.308 190.050 C 294.349 190.091,296.408 190.497,298.884 190.952 C 314.089 193.751,324.247 202.288,327.483 214.989 C 331.570 231.031,320.969 250.587,304.988 256.483 C 304.238 256.760,303.595 257.010,303.559 257.039 C 303.480 257.104,307.501 268.364,307.660 268.523 C 307.985 268.848,313.281 266.523,316.412 264.680 C 336.694 252.743,346.036 227.554,337.923 206.681 C 333.415 195.082,323.001 185.228,310.873 181.084 L 308.616 180.313 308.696 176.609 C 308.900 167.176,306.336 157.285,301.620 149.317 L 300.882 148.069 302.610 148.067 C 325.647 148.041,346.435 129.292,349.472 105.801 C 353.550 74.266,326.577 47.097,295.187 51.120 M307.784 60.038 C 329.977 63.771,344.833 85.402,340.341 107.443 C 336.193 127.802,316.455 141.833,295.915 139.027 L 293.694 138.723 291.529 136.816 C 286.039 131.979,279.795 128.306,273.263 126.070 L 270.710 125.196 269.539 123.617 C 247.992 94.551,272.338 54.077,307.784 60.038 M376.352 83.313 C 362.791 84.913,357.370 85.638,356.836 85.921 C 354.430 87.199,354.590 90.833,357.108 92.082 L 358.035 92.542 377.057 90.334 C 387.519 89.120,396.560 88.025,397.148 87.900 C 401.423 86.993,400.537 80.960,396.145 81.071 C 395.586 81.086,386.679 82.094,376.352 83.313 M351.282 127.319 C 350.090 127.938,349.376 129.121,349.376 130.481 C 349.376 132.679,348.740 132.270,367.796 142.335 L 385.146 151.500 386.627 151.508 C 389.279 151.521,390.823 149.006,389.663 146.561 C 389.144 145.467,390.555 146.266,370.914 135.943 C 352.990 126.522,352.898 126.482,351.282 127.319 M316.411 149.471 C 315.441 150.081,314.914 151.103,314.914 152.375 C 314.914 153.268,326.745 187.577,327.914 190.073 C 329.359 193.159,334.399 191.964,334.402 188.535 C 334.403 186.868,321.688 151.046,320.719 149.988 C 319.752 148.932,317.668 148.682,316.411 149.471 M230.421 224.837 L 228.767 226.505 230.483 228.221 L 232.200 229.938 233.866 228.285 C 234.782 227.376,235.532 226.558,235.532 226.467 C 235.532 226.294,232.524 223.336,232.240 223.231 C 232.150 223.197,231.331 223.920,230.421 224.837 M235.679 229.976 L 232.618 231.526 229.316 230.083 C 227.499 229.289,225.884 228.639,225.726 228.639 C 225.567 228.639,226.749 229.954,228.352 231.560 L 231.266 234.481 231.200 238.446 L 231.135 242.412 228.691 240.960 C 225.812 239.250,226.076 239.132,225.614 242.346 L 225.244 244.920 222.188 241.819 L 219.133 238.719 219.117 234.808 L 219.102 230.897 217.849 234.431 C 217.160 236.374,216.445 238.049,216.260 238.153 C 216.075 238.256,214.427 238.912,212.597 239.610 L 209.269 240.879 213.200 240.944 L 217.130 241.009 220.079 243.965 C 222.039 245.930,222.912 246.957,222.684 247.032 C 222.495 247.094,221.218 247.378,219.846 247.663 C 216.625 248.331,216.674 248.196,218.752 250.650 L 220.541 252.763 216.459 252.828 L 212.377 252.893 209.425 249.976 C 207.801 248.372,206.544 247.273,206.633 247.534 C 206.722 247.796,207.337 249.417,208.000 251.138 L 209.205 254.267 207.875 257.659 C 207.144 259.525,206.586 261.092,206.636 261.142 C 206.687 261.192,207.995 259.938,209.543 258.354 L 212.359 255.475 216.442 255.545 L 220.525 255.615 218.733 257.946 C 216.657 260.648,216.620 260.459,219.303 260.872 C 220.451 261.050,221.755 261.257,222.201 261.334 L 223.011 261.474 220.065 264.427 L 217.119 267.380 213.240 267.380 C 208.622 267.380,208.613 267.453,213.062 268.950 L 216.510 270.110 217.762 273.676 L 219.014 277.243 219.079 273.431 L 219.144 269.619 222.073 266.697 L 225.002 263.775 225.434 266.350 C 225.672 267.766,225.929 269.103,226.005 269.320 C 226.118 269.642,226.622 269.364,228.699 267.835 L 231.254 265.954 231.254 270.050 L 231.254 274.146 228.346 277.061 C 226.746 278.665,225.547 279.976,225.679 279.976 C 225.812 279.976,227.400 279.324,229.208 278.527 L 232.495 277.078 235.710 278.534 C 237.478 279.335,238.985 279.930,239.058 279.856 C 239.132 279.783,237.994 278.521,236.530 277.053 L 233.868 274.384 233.868 270.287 C 233.868 268.035,233.933 266.191,234.012 266.191 C 234.092 266.191,235.169 266.897,236.406 267.759 C 239.038 269.594,238.799 269.669,239.233 266.870 C 239.826 263.045,239.436 263.092,242.796 266.444 L 245.752 269.393 245.752 273.258 C 245.752 275.385,245.839 277.124,245.945 277.124 C 246.052 277.124,246.617 275.600,247.200 273.738 L 248.261 270.351 251.581 269.123 C 256.246 267.397,256.245 267.410,251.727 267.394 L 247.838 267.380 244.880 264.604 C 242.854 262.704,242.019 261.775,242.232 261.658 C 242.403 261.565,243.657 261.156,245.018 260.751 C 246.379 260.345,247.536 259.970,247.589 259.918 C 247.641 259.865,246.982 258.913,246.124 257.801 C 245.265 256.689,244.563 255.715,244.563 255.638 C 244.563 255.560,246.408 255.498,248.663 255.500 L 252.763 255.504 255.377 258.352 C 258.187 261.411,258.563 261.694,257.978 260.309 C 255.032 253.332,255.151 254.431,256.922 250.505 C 257.706 248.767,258.348 247.282,258.348 247.205 C 258.348 247.129,257.034 248.377,255.427 249.980 L 252.507 252.893 248.423 252.828 L 244.339 252.763 245.758 250.553 C 247.526 247.801,247.584 248.025,244.979 247.541 C 243.770 247.316,242.580 247.078,242.334 247.011 C 241.975 246.912,242.481 246.294,244.940 243.830 L 247.991 240.772 251.775 240.707 L 255.560 240.642 252.002 239.359 L 248.445 238.077 247.177 234.655 C 245.546 230.251,245.514 230.257,245.514 234.942 L 245.514 238.896 242.727 241.842 C 241.194 243.463,239.872 244.711,239.789 244.616 C 239.705 244.522,239.499 243.428,239.330 242.187 C 238.860 238.727,239.094 238.839,236.297 240.736 L 233.868 242.384 233.868 238.286 L 233.868 234.189 234.487 233.612 C 236.045 232.160,239.353 228.403,239.064 228.414 C 238.886 228.421,237.363 229.124,235.679 229.976 M210.814 235.056 L 210.814 237.433 213.191 237.433 L 215.567 237.433 215.567 235.056 L 215.567 232.680 213.191 232.680 L 210.814 232.680 210.814 235.056 M249.079 235.056 L 249.079 237.433 251.575 237.433 L 254.070 237.433 254.070 235.056 L 254.070 232.680 251.575 232.680 L 249.079 232.680 249.079 235.056 M231.254 248.656 L 231.254 250.848 229.700 249.310 L 228.146 247.772 229.521 247.136 C 230.278 246.787,230.977 246.493,231.075 246.483 C 231.173 246.473,231.254 247.451,231.254 248.656 M235.949 247.234 C 237.384 247.792,237.403 247.727,235.260 249.584 L 233.868 250.790 233.868 248.602 C 233.868 246.613,233.906 246.429,234.284 246.581 C 234.513 246.673,235.262 246.967,235.949 247.234 M151.563 248.317 L 150.682 249.219 151.585 250.100 L 152.487 250.982 153.368 250.079 L 154.250 249.177 153.347 248.295 L 152.445 247.414 151.563 248.317 M227.998 252.835 C 227.444 252.875,226.474 252.875,225.842 252.835 L 224.692 252.763 225.263 251.271 L 225.834 249.779 227.419 251.271 L 229.004 252.763 227.998 252.835 M239.551 251.218 C 239.824 251.937,240.047 252.605,240.047 252.704 C 240.047 252.802,239.063 252.882,237.860 252.882 L 235.673 252.882 237.325 251.363 C 238.234 250.528,238.995 249.859,239.016 249.878 C 239.038 249.896,239.278 250.499,239.551 251.218 M154.087 250.800 L 152.618 251.541 151.047 250.874 C 149.042 250.021,148.980 250.128,150.570 251.699 L 151.872 252.984 151.872 254.834 C 151.872 256.904,151.881 256.895,150.564 256.084 C 149.318 255.316,149.344 255.304,149.156 256.723 L 148.993 257.950 147.589 256.561 L 146.185 255.172 146.104 253.255 C 146.053 252.050,145.957 251.514,145.844 251.812 C 144.706 254.827,144.722 254.805,143.036 255.469 C 140.819 256.343,140.826 256.447,143.105 256.447 L 145.113 256.447 146.498 257.847 L 147.884 259.247 146.717 259.407 C 144.844 259.665,144.760 259.814,145.783 261.063 L 146.675 262.151 144.823 262.151 L 142.972 262.151 141.486 260.679 C 139.698 258.907,139.618 258.940,140.454 261.104 L 141.105 262.790 140.452 264.431 C 139.605 266.559,139.728 266.607,141.453 264.821 L 142.886 263.339 144.775 263.339 L 146.665 263.339 145.822 264.443 C 144.735 265.866,144.742 265.890,146.286 266.083 C 147.891 266.283,147.892 266.232,146.234 267.908 L 144.875 269.281 142.966 269.302 L 141.058 269.324 142.896 269.944 L 144.734 270.564 145.243 272.121 C 145.983 274.387,146.168 274.394,146.168 272.158 L 146.168 270.186 147.390 269.080 C 148.989 267.633,148.931 267.631,149.169 269.155 L 149.376 270.475 150.564 269.627 L 151.753 268.779 151.823 270.616 L 151.893 272.454 150.529 273.832 C 148.870 275.509,148.929 275.626,150.975 274.725 L 152.569 274.023 154.159 274.744 C 156.214 275.675,156.303 275.513,154.651 273.843 L 153.298 272.476 153.298 270.641 C 153.298 268.569,153.310 268.558,154.579 269.519 C 155.615 270.303,155.911 270.261,155.915 269.326 C 155.925 267.507,156.104 267.468,157.609 268.957 L 159.002 270.336 159.002 272.225 C 159.002 274.366,159.142 274.378,159.874 272.295 L 160.391 270.826 160.409 272.074 L 160.428 273.321 161.735 273.321 L 163.042 273.321 163.042 272.014 L 163.042 270.707 161.794 270.689 L 160.547 270.670 162.210 270.035 L 163.874 269.400 162.092 269.327 L 160.309 269.254 158.766 267.865 L 157.222 266.476 158.587 266.079 C 160.179 265.616,160.173 265.634,159.219 264.337 L 158.485 263.339 160.341 263.339 L 162.198 263.339 163.689 264.818 C 165.344 266.458,165.459 266.404,164.577 264.409 C 163.861 262.790,163.912 262.624,164.827 263.579 C 165.694 264.484,165.863 264.472,166.858 263.439 L 167.677 262.588 166.726 261.785 L 165.776 260.982 164.858 261.863 C 163.834 262.847,163.801 262.528,164.736 260.675 C 165.507 259.148,165.228 259.147,163.689 260.672 L 162.198 262.151 160.362 262.151 C 158.255 262.151,158.302 262.206,159.239 260.844 C 160.148 259.523,160.180 259.599,158.623 259.405 L 157.293 259.238 158.785 257.733 L 160.277 256.228 162.076 256.159 L 163.874 256.090 162.448 255.554 C 160.402 254.786,160.426 254.808,159.743 252.993 L 159.121 251.337 159.052 253.238 L 158.983 255.140 157.630 256.509 C 156.176 257.982,155.966 257.957,155.929 256.308 C 155.904 255.242,155.728 255.199,154.591 255.981 C 153.244 256.908,153.298 256.955,153.298 254.834 L 153.298 252.984 154.605 251.693 C 156.509 249.813,156.404 249.630,154.087 250.800 M203.145 252.351 C 201.195 254.316,201.193 254.090,203.182 256.064 L 204.819 257.689 206.569 256.010 L 208.318 254.332 206.532 252.535 L 204.745 250.738 203.145 252.351 M257.752 252.409 L 256.099 254.074 257.818 255.793 L 259.537 257.512 261.255 255.793 L 262.974 254.074 261.321 252.409 C 260.412 251.492,259.609 250.743,259.537 250.743 C 259.464 250.743,258.661 251.492,257.752 252.409 M141.889 253.357 L 141.889 254.545 143.197 254.545 L 144.504 254.545 144.504 253.357 L 144.504 252.169 143.197 252.169 L 141.889 252.169 141.889 253.357 M160.665 253.357 L 160.665 254.545 161.854 254.545 L 163.042 254.545 163.042 253.357 L 163.042 252.169 161.854 252.169 L 160.665 252.169 160.665 253.357 M84.133 255.142 L 82.839 256.452 84.200 257.814 L 85.561 259.175 86.923 257.814 L 88.284 256.452 86.990 255.142 C 86.279 254.422,85.636 253.832,85.561 253.832 C 85.487 253.832,84.844 254.422,84.133 255.142 M228.877 255.682 C 228.877 255.784,228.240 256.498,227.461 257.269 L 226.044 258.671 225.594 257.618 C 224.622 255.349,224.536 255.496,226.841 255.496 C 227.961 255.496,228.877 255.580,228.877 255.682 M240.285 255.622 C 240.285 255.785,238.872 258.586,238.789 258.586 C 238.755 258.586,238.038 257.891,237.195 257.041 L 235.664 255.496 237.975 255.496 C 239.246 255.496,240.285 255.553,240.285 255.622 M231.179 261.830 C 231.010 261.998,228.402 260.903,228.402 260.663 C 228.402 260.535,229.017 259.771,229.768 258.966 L 231.135 257.502 231.204 259.619 C 231.241 260.783,231.230 261.778,231.179 261.830 M236.958 260.489 C 236.958 260.563,236.263 260.966,235.413 261.385 L 233.868 262.146 233.868 259.719 L 233.868 257.292 235.413 258.824 C 236.263 259.666,236.958 260.415,236.958 260.489 M88.257 259.119 L 85.842 260.337 83.315 259.224 C 79.924 257.730,79.888 257.773,82.417 260.313 L 84.611 262.516 84.611 265.542 C 84.611 267.206,84.561 268.568,84.500 268.568 C 84.440 268.568,83.597 268.087,82.628 267.499 C 80.598 266.266,80.570 266.258,80.570 266.944 C 80.570 267.228,80.450 268.148,80.304 268.990 L 80.037 270.521 77.808 268.302 L 75.579 266.082 75.579 263.047 C 75.579 259.331,75.444 259.292,74.325 262.691 L 73.444 265.371 70.709 266.408 C 67.257 267.717,67.285 267.855,71.009 267.855 L 74.044 267.855 76.119 269.939 C 78.636 272.468,78.642 272.225,76.050 272.728 C 73.394 273.244,73.429 273.169,74.986 275.007 L 76.276 276.530 73.135 276.605 L 69.994 276.679 67.922 274.478 C 65.404 271.801,65.378 271.816,66.672 275.183 L 67.706 277.876 66.668 280.527 C 65.369 283.846,65.371 283.847,67.991 281.079 L 70.159 278.788 73.354 278.788 L 76.549 278.788 75.113 280.640 C 73.346 282.920,73.285 282.694,75.758 283.057 C 76.901 283.224,77.929 283.415,78.041 283.481 C 78.153 283.547,77.246 284.603,76.025 285.829 L 73.806 288.057 70.850 288.057 C 67.407 288.057,67.403 288.133,70.783 289.261 L 73.321 290.108 74.270 292.826 L 75.219 295.544 75.411 292.573 L 75.603 289.602 77.654 287.534 C 80.059 285.110,79.933 285.102,80.318 287.690 C 80.675 290.095,80.498 290.040,82.714 288.425 L 84.492 287.130 84.559 290.256 L 84.625 293.381 82.424 295.591 C 81.214 296.807,80.290 297.802,80.371 297.802 C 80.451 297.802,81.679 297.286,83.099 296.657 L 85.680 295.511 88.176 296.633 C 91.309 298.040,91.332 297.999,88.810 295.465 L 86.735 293.381 86.802 290.245 L 86.869 287.108 88.635 288.283 C 90.709 289.663,90.695 289.666,90.911 287.801 C 91.248 284.896,91.105 284.915,93.612 287.433 L 95.836 289.666 95.990 292.605 L 96.143 295.544 97.035 292.918 L 97.928 290.293 100.369 289.398 C 103.901 288.105,103.906 288.066,100.535 288.052 L 97.564 288.040 95.279 285.826 L 92.993 283.611 94.922 283.066 C 97.702 282.279,97.623 282.422,96.264 280.627 C 95.607 279.758,95.068 278.988,95.068 278.917 C 95.068 278.846,96.451 278.788,98.141 278.788 L 101.214 278.788 103.308 281.055 C 105.787 283.741,105.898 283.669,104.460 280.303 L 103.366 277.742 104.487 275.177 C 105.905 271.933,105.792 271.864,103.383 274.500 L 101.419 276.649 98.244 276.649 C 96.497 276.649,95.068 276.598,95.068 276.536 C 95.068 276.474,95.539 275.698,96.114 274.813 C 97.375 272.871,97.425 272.975,95.073 272.609 C 92.739 272.246,92.717 272.453,95.370 269.811 L 97.573 267.617 100.527 267.617 C 103.969 267.617,103.970 267.521,100.544 266.268 L 98.057 265.359 97.098 262.822 C 95.820 259.444,95.781 259.450,95.781 263.007 L 95.781 266.082 93.554 268.300 L 91.327 270.517 91.186 269.721 C 91.108 269.283,90.973 268.361,90.886 267.671 C 90.677 266.018,90.655 266.015,88.665 267.386 C 87.722 268.036,86.905 268.568,86.850 268.568 C 86.795 268.568,86.750 267.199,86.750 265.527 L 86.750 262.485 87.721 261.546 C 89.086 260.225,91.115 257.870,90.873 257.887 C 90.762 257.894,89.585 258.449,88.257 259.119 M151.872 259.934 L 151.872 260.808 151.271 260.243 L 150.670 259.679 151.212 259.379 C 151.509 259.213,151.780 259.074,151.812 259.070 C 151.845 259.065,151.872 259.454,151.872 259.934 M154.102 260.279 C 153.278 261.139,153.298 261.145,153.298 260.024 L 153.298 259.086 154.027 259.340 L 154.757 259.595 154.102 260.279 M150.089 261.438 L 150.772 262.151 149.789 262.151 L 148.807 262.151 149.055 261.438 C 149.192 261.046,149.327 260.725,149.355 260.725 C 149.383 260.725,149.713 261.046,150.089 261.438 M138.133 261.746 C 137.184 262.726,137.187 262.827,138.206 263.815 L 139.037 264.621 139.869 263.815 C 140.894 262.822,140.897 262.672,139.917 261.722 C 138.960 260.795,139.057 260.793,138.133 261.746 M156.005 261.339 C 156.274 262.038,156.152 262.151,155.140 262.142 L 154.130 262.134 154.843 261.549 C 155.681 260.862,155.813 260.838,156.005 261.339 M68.925 263.102 L 68.925 265.003 70.826 265.003 L 72.727 265.003 72.727 263.102 L 72.727 261.200 70.826 261.200 L 68.925 261.200 68.925 263.102 M98.633 263.102 L 98.633 265.003 100.416 265.003 L 102.198 265.003 102.198 263.102 L 102.198 261.200 100.416 261.200 L 98.633 261.200 98.633 263.102 M150.167 264.039 C 149.471 264.920,149.420 264.920,149.092 264.052 L 148.823 263.339 149.771 263.339 L 150.719 263.339 150.167 264.039 M156.018 264.078 L 155.635 264.817 154.942 264.152 C 154.064 263.311,154.051 263.339,155.324 263.339 L 156.400 263.339 156.018 264.078 M154.193 266.113 C 153.375 266.567,153.298 266.509,153.298 265.434 L 153.298 264.439 154.015 265.126 L 154.733 265.813 154.193 266.113 M151.829 265.921 C 151.767 266.289,151.650 266.331,151.182 266.156 L 150.611 265.942 151.182 265.333 C 151.780 264.695,152.003 264.898,151.829 265.921 M142.127 272.014 L 142.127 273.321 143.316 273.321 L 144.504 273.321 144.504 272.014 L 144.504 270.707 143.316 270.707 L 142.127 270.707 142.127 272.014 M211.052 273.084 L 211.052 275.460 213.547 275.460 L 216.043 275.460 216.043 273.084 L 216.043 270.707 213.547 270.707 L 211.052 270.707 211.052 273.084 M248.841 273.084 L 248.841 275.460 251.218 275.460 L 253.595 275.460 253.595 273.084 L 253.595 270.707 251.218 270.707 L 248.841 270.707 248.841 273.084 M84.566 274.161 L 84.492 275.011 83.453 273.950 L 82.415 272.889 83.453 272.434 L 84.492 271.979 84.566 272.645 C 84.607 273.011,84.607 273.693,84.566 274.161 M88.027 272.382 C 89.352 272.968,89.363 272.750,87.938 274.153 L 86.750 275.324 86.750 273.610 C 86.750 272.667,86.790 271.895,86.838 271.895 C 86.887 271.895,87.422 272.114,88.027 272.382 M151.682 275.054 C 150.736 276.030,150.738 276.140,151.705 277.077 L 152.488 277.837 153.369 276.935 L 154.250 276.033 153.346 275.151 L 152.443 274.269 151.682 275.054 M82.709 276.579 C 82.709 276.618,82.061 276.649,81.267 276.649 C 79.683 276.649,79.727 276.731,80.374 275.004 L 80.589 274.429 81.649 275.470 C 82.232 276.042,82.709 276.541,82.709 276.579 M91.486 276.471 C 91.495 276.569,90.814 276.649,89.972 276.649 L 88.441 276.649 89.556 275.590 L 90.671 274.531 91.070 275.411 C 91.289 275.896,91.476 276.373,91.486 276.471 M62.980 276.533 L 61.686 277.843 63.048 279.204 L 64.409 280.565 65.770 279.204 L 67.131 277.843 65.838 276.533 C 65.126 275.812,64.483 275.223,64.409 275.223 C 64.335 275.223,63.692 275.812,62.980 276.533 M105.102 276.478 L 103.862 277.733 105.236 279.093 L 106.610 280.453 107.851 279.197 C 109.359 277.669,109.357 277.725,107.954 276.343 C 106.547 274.957,106.606 274.955,105.102 276.478 M230.713 279.685 C 228.775 281.638,228.781 281.442,230.607 283.251 C 232.437 285.066,232.230 285.076,234.225 283.066 L 235.876 281.402 234.225 279.739 C 232.239 277.737,232.639 277.744,230.713 279.685 M81.973 279.976 C 80.773 281.400,80.751 281.404,80.347 280.273 C 80.171 279.783,79.978 279.248,79.917 279.085 C 79.836 278.866,80.223 278.788,81.391 278.788 L 82.975 278.788 81.973 279.976 M91.741 278.916 C 91.741 279.054,90.791 280.980,90.641 281.146 C 90.517 281.282,89.422 280.240,88.849 279.441 L 88.381 278.788 90.061 278.788 C 90.985 278.788,91.741 278.846,91.741 278.916 M88.119 283.227 C 86.722 283.959,86.750 283.982,86.750 282.065 L 86.750 280.351 87.941 281.524 L 89.132 282.697 88.119 283.227 M84.566 282.932 L 84.492 283.760 83.440 283.287 L 82.387 282.814 83.440 281.738 L 84.492 280.663 84.566 281.384 C 84.607 281.780,84.607 282.477,84.566 282.932 M69.162 292.454 L 69.162 294.236 71.064 294.236 L 72.965 294.236 72.965 292.454 L 72.965 290.671 71.064 290.671 L 69.162 290.671 69.162 292.454 M98.158 292.454 L 98.158 294.236 100.059 294.236 L 101.961 294.236 101.961 292.454 L 101.961 290.671 100.059 290.671 L 98.158 290.671 98.158 292.454 M84.306 297.512 L 82.946 298.886 84.202 300.126 C 85.729 301.635,85.673 301.633,87.056 300.230 C 88.441 298.823,88.444 298.882,86.921 297.378 L 85.665 296.138 84.306 297.512 M186.979 299.651 C 185.614 301.037,185.615 301.028,186.878 302.268 C 188.144 303.511,188.132 303.511,189.492 302.131 L 190.612 300.994 189.356 299.753 L 188.100 298.513 186.979 299.651 M183.482 302.498 C 183.482 302.601,184.337 303.536,185.383 304.575 L 187.285 306.465 187.285 309.170 C 187.285 312.240,187.413 312.139,185.260 310.762 C 184.539 310.301,183.907 309.923,183.857 309.923 C 183.807 309.923,183.689 310.591,183.594 311.408 C 183.301 313.941,183.343 313.937,181.164 311.593 L 179.204 309.485 179.204 306.812 C 179.204 303.713,179.130 303.710,178.015 306.762 L 177.184 309.040 174.688 310.016 L 172.193 310.992 174.880 311.060 L 177.568 311.127 179.570 313.049 C 181.877 315.264,181.876 315.251,179.695 315.640 C 177.267 316.074,177.256 316.096,178.696 317.751 L 179.949 319.192 177.145 319.192 L 174.341 319.192 172.376 317.236 C 170.167 315.039,170.054 315.128,171.259 318.114 L 172.107 320.219 171.248 322.465 C 170.098 325.469,170.218 325.533,172.491 323.132 L 174.435 321.078 177.195 321.145 L 179.954 321.212 178.726 322.834 C 177.307 324.708,177.285 324.588,179.106 324.903 C 181.957 325.396,181.903 325.156,179.665 327.406 L 177.669 329.412 174.943 329.412 C 171.810 329.412,171.810 329.527,174.942 330.590 L 177.217 331.361 178.008 333.773 C 178.932 336.592,179.161 336.460,179.187 333.090 L 179.204 330.945 181.051 329.109 C 183.299 326.874,183.123 326.870,183.482 329.174 C 183.645 330.220,183.823 331.075,183.878 331.075 C 183.933 331.075,184.695 330.532,185.572 329.868 L 187.166 328.661 187.233 331.460 L 187.300 334.258 185.332 336.256 C 183.198 338.422,183.257 338.477,186.246 337.114 C 188.424 336.122,188.092 336.111,190.676 337.258 C 193.440 338.485,193.486 338.359,191.134 335.995 L 189.186 334.036 189.186 331.233 L 189.186 328.429 190.899 329.635 C 192.828 330.995,192.841 330.990,193.102 328.818 C 193.347 326.787,193.322 326.786,195.514 328.966 L 197.504 330.946 197.504 333.506 C 197.504 336.635,197.675 336.692,198.599 333.869 C 199.404 331.405,199.277 331.521,202.496 330.298 L 204.516 329.531 201.762 329.412 L 199.009 329.293 196.918 327.374 L 194.826 325.456 196.878 324.905 C 199.301 324.254,199.213 324.487,197.738 322.611 L 196.546 321.093 199.380 321.093 L 202.215 321.093 204.140 323.151 C 206.468 325.639,206.563 325.604,205.348 322.697 C 204.193 319.934,204.193 320.309,205.351 317.702 C 206.554 314.990,206.516 314.976,204.270 317.284 L 202.413 319.192 199.602 319.192 C 198.056 319.192,196.791 319.142,196.791 319.081 C 196.791 319.020,197.220 318.308,197.743 317.498 C 198.855 315.778,198.904 315.928,197.127 315.615 C 196.354 315.479,195.568 315.315,195.380 315.250 C 195.147 315.170,195.673 314.494,197.039 313.122 L 199.039 311.111 201.757 311.111 C 204.904 311.111,204.908 311.047,201.826 309.893 L 199.525 309.031 198.746 307.041 C 198.317 305.946,197.870 304.837,197.752 304.575 C 197.607 304.256,197.531 305.002,197.521 306.838 L 197.504 309.577 195.514 311.557 C 193.340 313.719,193.354 313.718,193.118 311.824 C 192.828 309.505,192.931 309.549,190.953 310.884 L 189.186 312.076 189.186 309.281 L 189.186 306.486 191.261 304.402 C 193.634 302.017,193.561 301.906,190.604 303.391 L 188.466 304.465 186.746 303.722 C 185.801 303.313,184.679 302.828,184.254 302.645 C 183.829 302.461,183.482 302.395,183.482 302.498 M173.262 306.952 L 173.262 308.734 174.926 308.734 L 176.589 308.734 176.589 306.952 L 176.589 305.169 174.926 305.169 L 173.262 305.169 173.262 306.952 M199.881 306.952 L 199.881 308.734 201.545 308.734 L 203.209 308.734 203.209 306.952 L 203.209 305.169 201.545 305.169 L 199.881 305.169 199.881 306.952 M248.295 310.824 C 247.204 311.941,247.205 311.998,248.340 313.106 L 249.265 314.009 250.241 313.127 C 251.440 312.044,251.444 311.904,250.317 310.803 C 249.220 309.732,249.363 309.731,248.295 310.824 M246.999 314.590 L 248.604 316.233 248.604 318.425 C 248.604 319.631,248.552 320.618,248.488 320.618 C 248.425 320.618,247.852 320.297,247.214 319.905 C 245.747 319.002,245.808 318.986,245.630 320.321 C 245.546 320.942,245.438 321.579,245.389 321.736 C 245.340 321.893,244.599 321.296,243.743 320.410 L 242.187 318.797 242.187 316.604 C 242.187 314.008,241.977 313.996,241.129 316.542 L 240.509 318.402 238.436 319.213 L 236.364 320.024 238.636 320.091 L 240.908 320.159 242.511 321.774 L 244.114 323.389 242.437 323.705 C 240.503 324.070,240.482 324.111,241.592 325.340 C 242.706 326.573,242.719 326.560,240.351 326.560 L 238.277 326.560 236.667 324.962 C 234.884 323.193,234.757 323.289,235.701 325.695 L 236.345 327.337 235.677 329.222 C 234.834 331.603,234.879 331.626,236.727 329.762 L 238.251 328.223 240.477 328.223 L 242.702 328.223 241.731 329.443 C 240.518 330.967,240.520 330.988,241.889 331.181 C 244.071 331.489,244.060 331.446,242.400 333.121 L 240.893 334.641 238.688 334.641 C 235.965 334.641,235.932 334.817,238.494 335.686 L 240.505 336.369 241.191 338.416 L 241.877 340.463 242.051 338.179 L 242.226 335.895 243.720 334.414 L 245.214 332.933 245.510 334.500 C 245.859 336.350,245.741 336.311,247.334 335.108 L 248.604 334.150 248.604 336.350 L 248.604 338.550 247.006 340.160 C 245.219 341.961,245.309 342.086,247.653 341.058 C 249.617 340.196,249.250 340.194,251.259 341.076 C 253.433 342.030,253.523 341.834,251.740 340.035 L 250.267 338.549 250.267 336.351 L 250.267 334.153 251.512 334.991 C 253.096 336.057,253.055 336.068,253.249 334.519 C 253.467 332.770,253.521 332.769,255.230 334.493 L 256.710 335.986 256.855 338.225 L 257.001 340.463 257.615 338.676 C 258.421 336.330,258.297 336.459,260.485 335.682 C 262.929 334.813,262.881 334.643,260.190 334.630 L 257.992 334.619 256.359 333.119 L 254.726 331.619 256.300 331.193 C 258.131 330.697,258.146 330.657,257.012 329.274 L 256.152 328.223 258.386 328.223 L 260.620 328.223 262.144 329.762 C 264.005 331.639,264.065 331.602,263.084 329.203 L 262.306 327.299 263.060 325.592 C 264.113 323.209,264.031 323.149,262.204 324.962 L 260.594 326.560 258.404 326.560 L 256.214 326.560 256.942 325.377 C 257.826 323.939,257.752 323.786,256.063 323.575 L 254.736 323.409 256.477 321.657 L 258.217 319.905 260.362 319.890 L 262.507 319.875 260.461 319.134 L 258.414 318.394 257.731 316.514 C 256.819 314.005,256.686 314.019,256.677 316.623 L 256.669 318.835 255.144 320.429 C 253.484 322.163,253.519 322.170,253.225 320.083 C 253.037 318.752,253.110 318.777,251.855 319.627 C 251.309 319.997,250.728 320.377,250.564 320.473 C 250.336 320.606,250.267 320.145,250.267 318.470 L 250.267 316.294 251.851 314.653 C 253.654 312.785,253.555 312.668,251.182 313.863 L 249.494 314.713 247.801 313.953 C 246.870 313.536,245.948 313.138,245.752 313.070 C 245.556 313.002,246.117 313.686,246.999 314.590 M187.285 316.268 L 187.285 317.621 186.453 316.815 C 185.456 315.849,185.670 315.327,187.225 314.929 C 187.258 314.921,187.285 315.523,187.285 316.268 M191.325 315.852 C 191.325 315.937,190.897 316.423,190.374 316.934 L 189.424 317.862 189.424 316.407 L 189.424 314.952 190.374 315.326 C 190.897 315.531,191.325 315.768,191.325 315.852 M237.433 316.696 L 237.433 318.004 238.740 318.004 L 240.048 318.004 240.048 316.696 L 240.048 315.389 238.740 315.389 L 237.433 315.389 237.433 316.696 M258.824 316.696 L 258.824 318.004 260.131 318.004 L 261.438 318.004 261.438 316.696 L 261.438 315.389 260.131 315.389 L 258.824 315.389 258.824 316.696 M184.789 318.241 L 185.717 319.192 184.369 319.192 C 183.394 319.192,183.050 319.110,183.126 318.895 C 183.798 316.980,183.624 317.048,184.789 318.241 M193.446 319.014 C 193.456 319.112,192.849 319.192,192.097 319.191 L 190.731 319.191 191.800 318.265 L 192.870 317.339 193.149 318.087 C 193.302 318.499,193.436 318.916,193.446 319.014 M205.993 318.902 C 204.628 320.288,204.628 320.280,205.891 321.519 C 207.158 322.762,207.146 322.763,208.506 321.382 L 209.626 320.245 208.370 319.005 L 207.114 317.764 205.993 318.902 M167.845 319.023 C 167.295 319.583,166.845 320.141,166.845 320.261 C 166.845 320.561,168.787 322.519,169.084 322.519 C 169.397 322.519,171.361 320.589,171.361 320.280 C 171.361 319.956,169.425 318.004,169.103 318.004 C 168.961 318.004,168.395 318.462,167.845 319.023 M185.009 322.103 C 183.868 323.378,183.824 323.393,183.533 322.590 C 183.401 322.224,183.217 321.738,183.124 321.509 C 182.974 321.140,183.120 321.093,184.435 321.093 L 185.914 321.093 185.009 322.103 M193.702 321.222 C 193.702 321.388,192.762 323.232,192.677 323.232 C 192.641 323.232,192.140 322.751,191.563 322.163 L 190.513 321.093 192.107 321.093 C 192.984 321.093,193.702 321.151,193.702 321.222 M187.285 324.164 L 187.285 325.571 186.345 325.202 L 185.405 324.833 186.286 323.803 C 186.770 323.236,187.193 322.769,187.225 322.765 C 187.258 322.760,187.285 323.390,187.285 324.164 M191.325 324.663 C 191.325 324.796,189.788 325.609,189.534 325.609 C 189.473 325.609,189.424 324.946,189.424 324.135 L 189.424 322.661 190.374 323.589 C 190.897 324.099,191.325 324.583,191.325 324.663 M248.604 324.227 L 248.604 325.223 247.875 324.525 L 247.146 323.827 247.815 323.540 C 248.184 323.383,248.512 323.249,248.544 323.243 C 248.577 323.237,248.604 323.680,248.604 324.227 M251.190 323.543 L 251.929 323.854 251.098 324.659 L 250.267 325.465 250.267 324.348 C 250.267 323.735,250.309 323.232,250.359 323.232 C 250.409 323.232,250.783 323.372,251.190 323.543 M246.340 326.516 C 245.261 326.609,245.201 326.552,245.515 325.724 L 245.768 325.060 246.491 325.751 L 247.215 326.441 246.340 326.516 M253.586 326.381 C 253.591 326.480,253.147 326.560,252.600 326.560 L 251.604 326.560 252.292 325.842 L 252.979 325.125 253.279 325.664 C 253.443 325.961,253.582 326.283,253.586 326.381 M263.458 326.322 L 262.530 327.273 263.458 328.223 C 264.582 329.375,264.706 329.384,265.669 328.390 C 266.626 327.403,266.621 327.319,265.528 326.251 C 264.428 325.178,264.580 325.173,263.458 326.322 M232.847 326.510 L 231.967 327.412 232.986 328.412 L 234.006 329.413 235.008 328.392 L 236.009 327.371 235.107 326.490 C 233.991 325.401,233.930 325.401,232.847 326.510 M247.178 328.417 C 247.178 328.941,245.816 329.921,245.691 329.486 C 245.623 329.249,245.491 328.868,245.397 328.639 C 245.250 328.283,245.365 328.223,246.202 328.223 C 246.738 328.223,247.178 328.310,247.178 328.417 M253.452 328.996 C 253.236 329.421,253.039 329.793,253.014 329.824 C 252.989 329.855,252.607 329.507,252.165 329.052 L 251.362 328.223 252.604 328.223 L 253.845 328.223 253.452 328.996 M251.868 330.970 C 251.837 330.995,251.465 331.192,251.040 331.408 L 250.267 331.801 250.267 330.560 L 250.267 329.319 251.096 330.121 C 251.551 330.563,251.899 330.945,251.868 330.970 M248.534 331.462 C 248.478 331.518,248.133 331.451,247.768 331.312 L 247.104 331.059 247.795 330.336 L 248.485 329.612 248.560 330.487 C 248.601 330.967,248.589 331.407,248.534 331.462 M173.500 333.452 L 173.500 335.116 175.163 335.116 L 176.827 335.116 176.827 333.452 L 176.827 331.788 175.163 331.788 L 173.500 331.788 173.500 333.452 M199.643 333.452 L 199.643 335.116 201.307 335.116 L 202.971 335.116 202.971 333.452 L 202.971 331.788 201.307 331.788 L 199.643 331.788 199.643 333.452 M237.433 337.968 L 237.433 339.394 238.859 339.394 L 240.285 339.394 240.285 337.968 L 240.285 336.542 238.859 336.542 L 237.433 336.542 237.433 337.968 M258.586 337.968 L 258.586 339.394 260.012 339.394 L 261.438 339.394 261.438 337.968 L 261.438 336.542 260.012 336.542 L 258.586 336.542 258.586 337.968 M186.925 337.971 L 185.752 339.162 186.993 340.404 L 188.235 341.646 189.477 340.404 L 190.719 339.162 189.546 337.971 C 188.900 337.316,188.310 336.780,188.235 336.780 C 188.160 336.780,187.571 337.316,186.925 337.971 M248.295 341.721 L 247.415 342.622 248.436 343.624 L 249.456 344.625 250.337 343.723 C 251.412 342.621,251.416 342.531,250.434 341.580 C 249.447 340.623,249.363 340.628,248.295 341.721 M120.466 342.918 L 118.717 344.594 120.374 346.272 C 122.387 348.310,122.178 348.307,124.130 346.340 L 125.728 344.730 123.972 342.986 L 122.216 341.241 120.466 342.918 M125.966 348.069 C 122.356 349.916,123.000 349.905,119.127 348.185 C 117.358 347.399,115.852 346.814,115.780 346.886 C 115.709 346.957,116.902 348.270,118.431 349.804 L 121.212 352.592 121.212 356.569 C 121.212 358.757,121.164 360.547,121.104 360.547 C 121.045 360.547,119.934 359.905,118.636 359.121 C 117.338 358.336,116.222 357.695,116.157 357.695 C 116.091 357.695,115.914 358.577,115.762 359.655 C 115.213 363.553,115.651 363.498,112.286 360.088 L 109.338 357.100 109.334 353.238 C 109.331 351.114,109.248 349.377,109.150 349.377 C 109.052 349.377,108.445 350.927,107.802 352.821 L 106.631 356.265 103.167 357.607 C 101.262 358.345,99.601 359.041,99.477 359.154 C 99.350 359.269,101.015 359.358,103.284 359.358 L 107.316 359.358 110.152 362.202 C 111.713 363.766,112.941 365.090,112.882 365.144 C 112.823 365.198,111.652 365.483,110.279 365.778 C 106.502 366.590,106.647 366.313,108.712 368.758 L 110.507 370.885 106.422 370.951 L 102.336 371.016 99.534 368.221 C 97.993 366.684,96.732 365.557,96.732 365.717 C 96.732 365.877,97.267 367.380,97.920 369.057 C 99.358 372.746,99.359 372.112,97.910 375.830 C 96.339 379.861,96.403 379.887,99.592 376.504 L 102.311 373.619 106.414 373.619 C 108.671 373.619,110.517 373.676,110.517 373.746 C 110.517 373.815,109.721 374.905,108.748 376.167 C 106.621 378.925,106.506 378.679,110.167 379.209 L 113.161 379.643 110.119 382.691 L 107.078 385.740 103.153 385.753 L 99.228 385.767 102.921 387.072 L 106.615 388.376 107.792 391.871 L 108.969 395.365 109.208 391.387 L 109.447 387.408 112.169 384.680 C 113.666 383.180,114.923 381.986,114.964 382.027 C 115.004 382.067,115.263 383.374,115.538 384.930 C 115.813 386.487,116.076 387.801,116.122 387.851 C 116.168 387.901,117.305 387.120,118.649 386.115 L 121.093 384.288 121.159 388.391 L 121.224 392.495 118.429 395.297 C 116.892 396.838,115.748 398.099,115.886 398.099 C 116.024 398.099,117.467 397.504,119.091 396.777 C 122.743 395.143,122.184 395.146,125.794 396.749 C 127.465 397.492,128.961 398.099,129.118 398.099 C 129.276 398.099,128.149 396.840,126.615 395.302 L 123.827 392.506 123.827 388.410 C 123.827 386.157,123.869 384.314,123.921 384.314 C 123.973 384.314,125.042 385.015,126.298 385.872 C 128.883 387.638,128.934 387.639,129.153 385.923 C 129.240 385.234,129.428 383.990,129.569 383.158 L 129.826 381.646 132.768 384.580 L 135.710 387.515 135.735 389.301 C 135.749 390.284,135.829 392.050,135.913 393.226 L 136.067 395.365 137.255 391.935 L 138.443 388.504 142.006 387.181 L 145.568 385.859 141.768 385.786 L 137.968 385.713 134.904 382.804 L 131.841 379.894 134.548 379.106 C 138.013 378.098,137.929 378.271,136.095 375.921 C 135.230 374.813,134.522 373.842,134.522 373.763 C 134.522 373.225,142.823 373.640,143.263 374.200 C 144.184 375.370,148.085 379.386,148.194 379.277 C 148.256 379.214,147.649 377.598,146.844 375.685 L 145.380 372.206 146.844 368.951 C 147.648 367.161,148.245 365.635,148.170 365.559 C 148.094 365.484,146.838 366.682,145.377 368.223 L 142.721 371.023 138.622 371.014 C 136.367 371.008,134.526 370.924,134.531 370.826 C 134.536 370.728,135.173 369.686,135.947 368.510 C 137.591 366.010,137.667 366.178,134.641 365.650 C 133.333 365.422,132.224 365.201,132.174 365.158 C 132.125 365.116,133.344 363.740,134.883 362.101 L 137.682 359.121 141.568 359.121 C 143.706 359.121,145.454 359.040,145.454 358.942 C 145.454 358.844,143.952 358.235,142.116 357.588 C 138.169 356.196,138.670 356.695,137.100 352.585 L 135.829 349.257 135.764 353.131 L 135.698 357.005 132.804 359.980 C 129.519 363.354,129.762 363.361,129.287 359.883 C 128.908 357.111,128.947 357.126,126.481 358.817 C 125.348 359.594,124.287 360.308,124.124 360.402 C 123.891 360.537,123.827 359.707,123.827 356.571 L 123.827 352.567 126.560 349.685 C 130.181 345.868,130.194 345.905,125.966 348.069 M101.010 353.179 L 101.010 355.556 103.387 355.556 L 105.764 355.556 105.764 353.179 L 105.764 350.802 103.387 350.802 L 101.010 350.802 101.010 353.179 M139.275 353.179 L 139.275 355.556 141.652 355.556 L 144.029 355.556 144.029 353.179 L 144.029 350.802 141.652 350.802 L 139.275 350.802 139.275 353.179 M121.212 366.778 L 121.212 368.969 119.786 367.558 C 119.002 366.782,118.360 366.080,118.360 365.998 C 118.360 365.889,120.311 364.918,121.153 364.609 C 121.185 364.597,121.212 365.573,121.212 366.778 M125.696 365.332 C 127.202 365.957,127.211 365.855,125.490 367.558 L 124.064 368.969 124.064 366.897 C 124.064 364.584,124.014 364.633,125.696 365.332 M116.964 370.954 C 114.554 371.038,114.683 371.161,115.327 369.394 L 115.857 367.940 117.405 369.413 L 118.954 370.885 116.964 370.954 M129.727 369.756 L 130.198 371.004 128.022 370.996 L 125.847 370.988 127.360 369.550 C 129.026 367.966,129.053 367.969,129.727 369.756 M147.885 370.594 L 146.167 372.323 147.777 373.922 C 149.739 375.868,149.518 375.869,151.462 373.910 L 153.060 372.299 151.331 370.582 L 149.602 368.865 147.885 370.594 M93.046 370.769 L 91.393 372.435 93.112 374.153 L 94.831 375.872 96.550 374.153 L 98.268 372.435 96.615 370.769 C 95.706 369.852,94.903 369.103,94.831 369.103 C 94.758 369.103,93.955 369.852,93.046 370.769 M117.640 375.290 C 116.825 376.210,116.129 376.932,116.094 376.895 C 116.017 376.812,114.795 373.805,114.795 373.696 C 114.795 373.654,115.769 373.619,116.959 373.619 L 119.122 373.619 117.640 375.290 M129.637 375.307 C 129.170 376.235,128.767 376.954,128.743 376.905 C 128.719 376.855,128.007 376.096,127.161 375.217 L 125.623 373.619 128.055 373.619 L 130.487 373.619 129.637 375.307 M121.212 377.989 L 121.212 380.221 119.700 379.596 L 118.189 378.970 119.616 377.364 C 120.401 376.480,121.082 375.758,121.128 375.758 C 121.174 375.758,121.212 376.762,121.212 377.989 M127.088 378.746 C 127.059 378.771,126.367 379.126,125.550 379.536 L 124.064 380.280 124.064 377.966 L 124.064 375.652 125.603 377.177 C 126.449 378.016,127.117 378.722,127.088 378.746 M101.248 391.206 L 101.248 393.583 103.624 393.583 L 106.001 393.583 106.001 391.206 L 106.001 388.829 103.624 388.829 L 101.248 388.829 101.248 391.206 M138.800 391.206 L 138.800 393.583 141.295 393.583 L 143.791 393.583 143.791 391.206 L 143.791 388.829 141.295 388.829 L 138.800 388.829 138.800 391.206 M120.671 397.808 C 118.722 399.772,118.718 399.541,120.737 401.545 L 122.400 403.196 124.064 401.545 C 126.086 399.538,126.083 399.746,124.118 397.795 C 122.180 395.873,122.592 395.871,120.671 397.808 " stroke="none" fill="#000000" fill-rule="evenodd"></path></g></svg>