<?xml version="1.0" standalone="no"?>
<!DOCTYPE svg PUBLIC "-//W3C//DTD SVG 20010904//EN"
 "http://www.w3.org/TR/2001/REC-SVG-20010904/DTD/svg10.dtd">
<svg version="1.0" xmlns="http://www.w3.org/2000/svg"
 width="154.000000pt" height="154.000000pt" viewBox="0 0 154.000000 154.000000"
 preserveAspectRatio="xMidYMid meet">
<metadata>
Created by potrace 1.15, written by Peter Selinger 2001-2017
</metadata>
<g transform="translate(0.000000,154.000000) scale(0.100000,-0.100000)"
fill="#000000" stroke="none">
<path d="M722 1497 l-42 -43 45 -44 45 -44 40 39 c22 21 40 44 40 50 0 11 -71
85 -81 85 -3 0 -24 -19 -47 -43z"/>
<path d="M857 1369 l-78 -40 -80 36 c-44 19 -85 35 -92 35 -6 0 21 -33 61 -73
l73 -73 -3 -97 -3 -96 -55 34 c-30 19 -58 35 -62 35 -4 0 -10 -21 -13 -47 -11
-82 -11 -82 -85 -8 l-70 69 0 98 c0 54 -3 98 -8 98 -4 0 -21 -39 -37 -87 l-30
-87 -90 -36 -90 -35 96 -3 95 -3 73 -73 72 -73 -58 -12 c-103 -22 -99 -16 -48
-77 l47 -54 -98 0 -99 0 -72 72 c-43 43 -73 66 -73 57 0 -9 14 -49 30 -90 l31
-74 -31 -80 c-16 -45 -30 -85 -30 -90 0 -5 33 23 73 63 l73 73 98 -3 98 -3
-47 -60 -46 -60 76 -14 77 -13 -73 -74 -73 -73 -95 -3 -96 -3 80 -28 c44 -15
85 -31 91 -35 6 -4 24 -45 40 -92 l29 -85 6 99 7 99 69 69 70 70 12 -77 c14
-86 4 -84 96 -17 l45 33 0 -98 0 -98 -72 -72 c-40 -40 -67 -73 -61 -73 7 0 47
15 89 34 l78 34 50 -23 c28 -12 63 -28 79 -35 51 -24 41 0 -26 68 l-68 68 3
97 3 97 55 -40 c30 -21 58 -40 62 -40 3 0 9 28 13 63 4 34 10 66 12 71 3 4 36
-23 74 -60 l69 -68 1 -61 c0 -33 3 -77 7 -99 l7 -39 28 85 28 86 92 33 92 34
-94 3 -93 3 -74 66 c-41 37 -74 69 -74 73 0 4 29 15 65 25 36 9 65 21 65 27 0
5 -16 30 -36 56 l-36 47 99 3 98 3 67 -73 c36 -40 69 -70 72 -67 3 3 -10 43
-30 90 l-35 84 36 83 c20 46 35 86 33 88 -2 2 -35 -28 -73 -66 l-69 -70 -98 0
c-54 0 -98 2 -98 5 0 3 16 29 35 58 40 59 40 59 -54 72 l-53 7 73 74 73 74
100 0 c62 0 96 4 90 9 -5 5 -45 23 -89 39 l-80 29 -30 81 c-17 44 -34 84 -38
88 -4 4 -7 -37 -7 -92 l0 -100 -69 -68 c-38 -37 -71 -64 -74 -60 -3 5 -8 35
-12 67 -4 31 -10 57 -13 57 -3 0 -32 -18 -64 -41 l-58 -40 0 100 c0 55 4 102
9 105 17 11 133 146 125 146 -5 -1 -44 -19 -87 -41z"/>
<path d="M230 1240 l0 -60 65 0 65 0 0 60 0 60 -65 0 -65 0 0 -60z"/>
<path d="M40 805 l-44 -45 39 -40 c21 -22 44 -40 50 -40 6 0 29 18 50 40 l39
40 -45 45 -45 45 -44 -45z"/>
<path d="M1402 807 l-42 -43 45 -44 45 -44 45 44 45 44 -42 43 c-23 24 -45 43
-48 43 -3 0 -25 -19 -48 -43z"/>
<path d="M1180 290 l0 -60 65 0 65 0 0 60 0 60 -65 0 -65 0 0 -60z"/>
<path d="M727 132 c-20 -21 -37 -42 -37 -48 0 -13 73 -84 86 -84 5 0 28 18 49
40 l39 40 -44 45 c-24 25 -47 45 -50 45 -3 0 -23 -17 -43 -38z"/>
</g>
</svg>
