<svg id="svg" version="1.1" width="1434" height="1357" xmlns="http://www.w3.org/2000/svg" xmlns:xlink="http://www.w3.org/1999/xlink" ><g id="svgg"><path id="path0" d="M191.074 0.289 C 157.569 2.441,129.584 26.679,123.879 58.486 C 123.244 62.024,123.592 61.750,120.772 60.924 C 82.317 49.655,43.400 77.512,41.885 117.391 L 41.702 122.231 38.494 123.201 C 12.327 131.118,-0.027 146.744,0.005 171.886 C 0.039 198.059,20.293 219.216,48.056 222.078 C 50.858 222.367,51.399 222.358,51.726 222.018 C 52.012 221.718,59.202 210.750,60.621 208.447 C 60.782 208.186,59.695 208.110,55.868 208.115 C 29.735 208.154,11.354 188.744,15.032 164.993 C 17.437 149.461,26.074 141.818,48.003 135.820 C 50.242 135.207,53.129 134.294,54.419 133.790 L 56.764 132.874 56.712 128.292 C 56.684 125.772,56.627 121.827,56.586 119.526 C 56.034 88.259,89.028 64.988,118.688 75.725 C 121.804 76.853,124.859 78.379,131.853 82.304 C 134.845 83.982,137.355 85.356,137.431 85.356 C 137.507 85.356,137.481 81.935,137.373 77.755 C 136.963 61.880,139.416 51.944,146.378 41.283 C 169.688 5.588,223.419 6.114,246.166 42.259 C 252.892 52.946,254.736 61.292,254.163 78.448 C 253.978 84.011,253.828 89.380,253.831 90.379 L 253.835 92.194 262.413 83.660 C 277.229 68.918,284.964 65.151,300.418 65.151 C 331.258 65.151,352.509 91.971,346.315 123.075 C 345.713 126.100,345.277 128.633,345.346 128.703 C 345.416 128.773,347.669 129.226,350.352 129.711 C 368.480 132.985,380.150 142.838,384.304 158.376 C 389.142 176.474,375.608 200.846,357.407 206.812 L 355.957 207.288 357.082 210.408 C 357.701 212.124,358.766 215.097,359.450 217.014 C 361.005 221.372,360.693 221.160,363.778 219.942 C 390.191 209.516,405.616 179.006,397.905 152.441 C 393.416 136.979,380.271 123.462,364.549 118.143 L 362.152 117.332 362.147 112.153 C 362.102 72.882,326.603 43.781,288.145 51.488 C 282.072 52.705,273.998 55.756,269.459 58.549 L 268.177 59.338 267.546 56.250 C 261.889 28.568,237.537 5.777,208.647 1.126 C 202.439 0.126,197.370 -0.115,191.074 0.289 M270.216 169.533 L 268.340 171.423 270.369 173.438 L 272.398 175.454 274.414 173.424 L 276.430 171.395 274.540 169.519 C 272.238 167.235,272.497 167.234,270.216 169.533 M276.649 175.465 L 272.823 177.400 269.008 175.729 C 266.910 174.810,265.056 174.059,264.888 174.059 C 264.721 174.059,266.056 175.535,267.857 177.340 L 271.130 180.622 271.130 185.422 L 271.130 190.221 268.372 188.556 C 264.918 186.469,265.141 186.413,264.711 189.470 C 264.146 193.498,264.446 193.490,260.591 189.591 L 257.183 186.143 257.183 181.440 C 257.183 175.977,257.146 175.972,255.347 181.195 L 253.994 185.123 249.661 186.774 L 245.328 188.424 249.949 188.563 L 254.569 188.703 258.103 192.046 C 260.887 194.680,261.533 195.426,261.153 195.566 C 260.887 195.663,259.289 196.029,257.601 196.379 C 255.914 196.729,254.483 197.056,254.423 197.107 C 254.362 197.157,255.272 198.320,256.445 199.692 C 257.618 201.063,258.577 202.258,258.577 202.348 C 258.577 202.437,256.445 202.510,253.840 202.510 L 249.102 202.510 245.820 199.130 C 242.004 195.199,241.900 195.261,243.883 200.290 L 245.371 204.066 243.886 207.821 C 241.881 212.891,241.912 212.907,245.816 208.832 L 249.233 205.265 254.031 205.352 L 258.830 205.439 256.592 208.325 C 255.361 209.912,254.400 211.257,254.457 211.314 C 254.514 211.371,255.809 211.612,257.336 211.849 C 262.019 212.576,261.945 212.104,258.002 216.056 L 254.541 219.526 249.958 219.526 C 247.437 219.526,245.459 219.611,245.563 219.714 C 245.666 219.818,247.602 220.540,249.863 221.318 L 253.975 222.734 255.394 226.904 L 256.812 231.075 256.996 228.299 C 257.097 226.772,257.180 224.705,257.181 223.706 L 257.183 221.888 260.500 218.579 C 263.197 215.889,263.845 215.369,263.968 215.794 C 264.051 216.082,264.337 217.605,264.604 219.177 C 265.184 222.589,264.918 222.536,268.354 219.934 L 271.130 217.832 271.130 222.790 L 271.130 227.748 267.852 230.857 C 263.906 234.600,263.939 234.736,268.316 232.786 C 270.196 231.949,271.974 231.188,272.268 231.095 C 272.605 230.988,274.204 231.555,276.602 232.630 C 278.692 233.568,280.445 234.292,280.498 234.239 C 280.551 234.186,279.156 232.707,277.396 230.953 L 274.198 227.764 274.198 222.792 L 274.198 217.821 277.050 219.767 C 280.423 222.068,280.167 222.126,280.598 218.974 C 281.206 214.526,280.831 214.571,284.712 218.478 L 288.109 221.897 288.311 226.499 L 288.512 231.102 289.876 227.018 L 291.240 222.934 295.286 221.459 C 300.472 219.568,300.468 219.526,295.112 219.526 L 290.609 219.526 287.285 216.272 C 283.446 212.514,283.575 212.771,285.286 212.316 C 288.943 211.344,290.406 210.799,290.275 210.459 C 290.200 210.264,289.305 209.024,288.285 207.702 L 286.430 205.300 291.303 205.300 L 296.176 205.300 299.453 208.793 C 301.256 210.714,302.781 212.235,302.843 212.173 C 302.905 212.112,302.185 210.210,301.245 207.947 L 299.534 203.833 301.239 199.925 C 302.177 197.776,302.897 195.970,302.840 195.913 C 302.782 195.855,301.268 197.319,299.474 199.166 L 296.214 202.523 291.382 202.447 L 286.549 202.371 288.337 199.618 C 289.320 198.104,290.079 196.820,290.023 196.764 C 289.967 196.708,288.504 196.392,286.773 196.062 L 283.625 195.463 287.206 191.874 L 290.787 188.285 295.231 188.285 C 297.675 188.285,299.610 188.220,299.530 188.140 C 299.451 188.061,297.596 187.339,295.408 186.537 L 291.430 185.077 289.857 180.893 L 288.285 176.709 288.145 181.351 L 288.006 185.994 284.669 189.547 C 280.853 193.610,281.217 193.648,280.598 189.116 C 280.165 185.945,280.374 185.993,277.028 188.310 L 274.198 190.271 274.198 185.472 L 274.198 180.674 277.406 177.370 C 279.170 175.554,280.614 173.940,280.614 173.784 C 280.614 173.424,281.050 173.238,276.649 175.465 M247.420 181.450 L 247.420 184.379 250.209 184.379 L 252.999 184.379 252.999 181.450 L 252.999 178.522 250.209 178.522 L 247.420 178.522 247.420 181.450 M292.329 181.450 L 292.329 184.379 295.119 184.379 L 297.908 184.379 297.908 181.450 L 297.908 178.522 295.119 178.522 L 292.329 178.522 292.329 181.450 M271.130 197.549 L 271.130 200.118 269.714 198.734 C 267.524 196.593,267.508 196.488,269.237 195.698 C 270.048 195.328,270.805 195.015,270.921 195.002 C 271.036 194.989,271.130 196.135,271.130 197.549 M276.513 195.760 L 278.132 196.513 276.304 198.318 L 274.477 200.123 274.477 197.551 C 274.477 196.137,274.571 194.985,274.686 194.993 C 274.801 195.000,275.624 195.346,276.513 195.760 M177.740 197.015 C 176.651 198.138,176.643 198.304,177.630 199.250 C 178.633 200.211,178.779 200.197,179.916 199.024 L 180.863 198.047 179.916 197.071 C 178.765 195.883,178.835 195.885,177.740 197.015 M268.040 201.785 L 268.716 202.510 266.128 202.510 C 264.176 202.510,263.569 202.425,263.664 202.162 C 263.732 201.970,264.019 201.161,264.301 200.364 L 264.813 198.915 266.089 199.987 C 266.790 200.577,267.668 201.386,268.040 201.785 M281.133 200.907 L 281.722 202.510 279.106 202.510 L 276.491 202.510 278.343 200.712 C 280.411 198.703,280.323 198.697,281.133 200.907 M174.895 199.378 C 174.895 199.501,175.586 200.282,176.430 201.116 L 177.964 202.631 177.964 204.826 L 177.964 207.021 176.660 206.292 C 175.245 205.501,174.912 205.630,174.895 206.974 C 174.877 208.448,174.499 208.408,172.871 206.759 L 171.292 205.160 171.211 202.929 L 171.130 200.697 170.468 202.510 C 169.618 204.841,169.662 204.796,167.516 205.554 C 165.135 206.394,165.211 206.695,167.801 206.695 L 169.912 206.695 171.553 208.139 C 173.401 209.766,173.416 209.915,171.756 210.188 C 169.756 210.518,169.682 210.663,170.849 211.955 L 171.892 213.110 169.566 213.110 L 167.241 213.110 165.629 211.515 C 163.811 209.716,163.725 209.787,164.730 212.259 L 165.444 214.015 164.730 215.797 C 163.700 218.370,163.817 218.452,165.768 216.519 L 167.518 214.784 169.697 214.784 L 171.875 214.784 170.875 216.146 C 169.611 217.867,169.571 217.762,171.579 217.995 L 173.283 218.193 171.657 219.836 L 170.031 221.478 167.861 221.478 C 165.169 221.478,165.134 221.713,167.695 222.598 L 169.699 223.291 170.414 225.384 L 171.130 227.476 171.210 225.225 L 171.290 222.974 172.938 221.344 L 174.585 219.714 174.777 221.160 C 175.022 223.009,175.212 223.099,176.644 222.044 L 177.824 221.175 177.907 223.328 L 177.989 225.481 176.388 227.099 C 174.435 229.073,174.508 229.205,176.956 228.127 L 178.869 227.284 180.788 228.131 C 183.106 229.155,183.155 229.016,181.172 227.057 L 179.637 225.542 179.637 223.224 L 179.637 220.906 181.102 221.894 L 182.566 222.882 182.845 221.193 L 183.124 219.503 184.728 221.126 C 186.197 222.613,186.332 222.854,186.335 223.997 C 186.337 224.683,186.419 225.737,186.519 226.339 L 186.700 227.434 187.422 225.387 L 188.145 223.340 189.958 222.669 C 192.632 221.679,192.628 221.478,189.935 221.478 L 187.568 221.478 186.064 219.956 L 184.561 218.433 185.377 218.122 C 185.825 217.951,186.538 217.742,186.960 217.658 C 187.910 217.467,187.910 217.467,186.890 216.179 C 185.769 214.763,185.749 214.785,188.215 214.777 L 190.377 214.771 191.956 216.521 C 193.888 218.661,194.056 218.569,192.963 215.971 L 192.113 213.951 192.959 212.066 C 194.042 209.654,193.920 209.588,191.965 211.522 L 190.360 213.110 188.207 213.110 C 185.766 213.110,185.813 213.154,186.750 211.775 C 187.669 210.424,187.655 210.386,186.189 210.166 C 184.461 209.907,184.465 209.796,186.275 208.009 L 187.866 206.438 190.098 206.357 L 192.329 206.276 190.211 205.488 L 188.094 204.699 187.460 202.904 C 186.587 200.432,186.332 200.444,186.332 202.958 L 186.332 205.113 184.688 206.825 L 183.044 208.537 182.861 206.918 C 182.647 205.028,182.729 205.065,181.172 206.137 C 179.573 207.237,179.637 207.292,179.637 204.819 L 179.637 202.665 181.373 200.914 C 183.319 198.950,183.185 198.772,180.703 200.026 C 178.824 200.974,179.142 201.001,175.941 199.610 C 175.366 199.360,174.895 199.256,174.895 199.378 M238.123 202.069 L 236.263 204.139 238.098 205.905 C 240.455 208.174,240.216 208.162,242.288 206.108 C 244.473 203.943,244.478 204.153,242.183 201.875 C 239.897 199.608,240.355 199.586,238.123 202.069 M302.232 201.952 L 300.295 203.904 301.961 205.598 C 304.455 208.136,304.277 208.125,306.619 205.882 L 308.647 203.939 306.702 201.969 C 304.335 199.573,304.592 199.574,302.232 201.952 M166.527 203.068 L 166.527 204.463 167.922 204.463 L 169.317 204.463 169.317 203.068 L 169.317 201.674 167.922 201.674 L 166.527 201.674 166.527 203.068 M188.285 203.068 L 188.285 204.463 189.819 204.463 L 191.353 204.463 191.353 203.068 L 191.353 201.674 189.819 201.674 L 188.285 201.674 188.285 203.068 M98.463 205.164 L 96.944 206.701 98.542 208.299 L 100.139 209.896 101.737 208.299 L 103.335 206.701 101.816 205.164 C 100.981 204.318,100.227 203.626,100.139 203.626 C 100.052 203.626,99.298 204.318,98.463 205.164 M267.051 207.327 L 265.132 209.355 264.522 207.880 C 263.357 205.065,263.198 205.300,266.265 205.300 L 268.969 205.300 267.051 207.327 M282.008 205.434 C 282.008 205.746,280.199 209.205,280.037 209.205 C 279.938 209.205,279.077 208.326,278.123 207.252 L 276.387 205.300 279.198 205.300 C 280.744 205.300,282.008 205.360,282.008 205.434 M271.036 213.018 C 270.972 213.082,270.199 212.815,269.317 212.425 C 267.496 211.619,267.477 211.761,269.719 209.402 L 270.990 208.065 271.071 210.483 C 271.116 211.813,271.100 212.954,271.036 213.018 M278.103 211.327 C 278.103 211.443,274.850 213.110,274.624 213.110 C 274.543 213.110,274.477 211.970,274.477 210.576 L 274.477 208.042 276.290 209.634 C 277.287 210.509,278.103 211.271,278.103 211.327 M103.367 209.805 L 100.598 211.213 97.573 209.890 C 93.782 208.233,93.758 208.277,96.801 211.306 L 99.303 213.796 99.303 217.358 C 99.303 219.317,99.224 220.921,99.129 220.921 C 99.033 220.921,98.014 220.349,96.865 219.651 C 94.425 218.170,94.610 218.107,94.241 220.540 C 94.081 221.593,93.887 222.643,93.811 222.873 C 93.715 223.162,92.861 222.429,91.049 220.502 L 88.427 217.713 88.426 214.249 C 88.424 210.218,88.336 210.212,87.013 214.154 L 86.021 217.111 82.690 218.388 L 79.358 219.665 82.845 219.743 L 86.332 219.820 88.912 222.387 C 92.024 225.483,92.011 225.162,89.052 225.774 C 87.709 226.052,86.513 226.339,86.393 226.411 C 86.272 226.484,86.944 227.412,87.886 228.474 L 89.597 230.404 85.867 230.404 L 82.136 230.404 79.646 227.903 C 76.630 224.873,76.631 224.873,78.105 228.704 L 79.287 231.774 78.137 234.740 C 76.589 238.734,76.627 238.757,79.576 235.619 L 82.148 232.885 85.830 232.970 L 89.513 233.054 87.848 235.197 C 86.932 236.375,86.279 237.396,86.397 237.467 C 86.514 237.537,87.782 237.754,89.213 237.948 L 91.815 238.300 89.087 241.039 L 86.358 243.778 82.858 243.855 L 79.358 243.933 82.476 244.995 C 86.109 246.233,85.849 245.982,87.008 249.372 C 88.284 253.108,88.424 253.078,88.424 249.074 L 88.424 245.596 91.026 243.004 L 93.629 240.413 93.997 242.782 C 94.515 246.112,94.436 246.078,97.040 244.096 L 99.303 242.374 99.303 246.088 L 99.303 249.802 96.792 252.301 C 93.630 255.449,93.644 255.487,97.339 253.840 L 100.396 252.478 103.393 253.844 C 107.178 255.568,107.217 255.487,104.100 252.357 L 101.534 249.780 101.534 246.083 L 101.534 242.386 103.733 243.927 C 104.942 244.774,105.996 245.467,106.075 245.467 C 106.154 245.467,106.377 244.369,106.571 243.026 C 106.764 241.684,106.970 240.529,107.027 240.461 C 107.084 240.392,108.319 241.519,109.772 242.966 L 112.413 245.596 112.413 249.074 C 112.413 253.094,112.556 253.108,113.821 249.208 L 114.734 246.393 118.062 245.163 L 121.391 243.933 117.931 243.855 L 114.470 243.778 111.698 241.171 L 108.926 238.564 111.018 237.953 C 112.169 237.617,113.330 237.279,113.598 237.202 C 114.300 237.000,114.238 236.838,112.698 234.848 L 111.309 233.054 114.969 232.976 L 118.628 232.898 121.134 235.568 C 124.181 238.814,124.192 238.808,122.501 234.811 L 121.144 231.602 122.496 228.584 C 124.197 224.785,124.122 224.746,121.138 227.872 L 118.689 230.438 115.010 230.351 L 111.331 230.265 112.566 228.312 C 114.113 225.867,114.189 226.084,111.646 225.661 C 110.457 225.464,109.376 225.242,109.245 225.168 C 109.114 225.095,110.178 223.858,111.611 222.420 L 114.215 219.805 117.793 219.805 C 122.028 219.805,122.043 219.707,118.029 218.271 L 114.953 217.171 113.760 214.025 C 112.257 210.061,112.134 210.090,112.134 214.407 L 112.134 217.935 109.699 220.474 C 108.359 221.870,107.191 223.046,107.103 223.088 C 107.015 223.129,106.781 222.021,106.583 220.627 C 106.172 217.718,106.307 217.763,103.644 219.663 C 102.675 220.355,101.804 220.921,101.708 220.921 C 101.612 220.921,101.534 219.317,101.534 217.358 L 101.534 213.796 104.045 211.297 C 107.523 207.835,107.470 207.719,103.367 209.805 M177.964 210.788 L 177.964 211.813 177.259 211.150 L 176.554 210.488 177.189 210.135 C 177.538 209.941,177.856 209.778,177.894 209.773 C 177.932 209.767,177.964 210.224,177.964 210.788 M181.167 210.314 C 181.237 210.427,180.984 210.810,180.605 211.166 L 179.916 211.813 179.916 210.814 C 179.916 209.860,180.695 209.549,181.167 210.314 M175.775 213.060 C 174.656 213.167,174.593 213.121,174.799 212.334 L 174.959 211.723 175.834 212.347 L 176.709 212.971 175.775 213.060 M182.980 212.762 C 182.983 212.968,182.624 213.110,182.099 213.110 L 181.214 213.110 181.872 212.410 C 182.525 211.714,182.969 211.855,182.980 212.762 M161.980 213.053 L 160.945 214.113 161.867 215.006 C 163.011 216.116,163.141 216.115,164.241 214.980 L 165.132 214.060 164.074 213.027 L 163.016 211.993 161.980 213.053 M193.300 212.976 L 192.349 213.958 193.385 214.994 L 194.421 216.030 195.457 214.994 L 196.493 213.958 195.542 212.976 C 195.019 212.436,194.514 211.994,194.421 211.994 C 194.328 211.994,193.824 212.436,193.300 212.976 M80.893 214.365 L 80.893 216.457 83.124 216.457 L 85.356 216.457 85.356 214.365 L 85.356 212.273 83.124 212.273 L 80.893 212.273 80.893 214.365 M115.481 214.365 L 115.481 216.457 117.713 216.457 L 119.944 216.457 119.944 214.365 L 119.944 212.273 117.713 212.273 L 115.481 212.273 115.481 214.365 M176.404 215.132 C 175.726 216.324,175.361 216.507,174.991 215.841 C 174.463 214.889,174.524 214.784,175.609 214.784 C 176.323 214.784,176.546 214.882,176.404 215.132 M183.254 214.993 C 183.248 215.108,183.086 215.487,182.892 215.835 L 182.541 216.468 181.734 215.626 L 180.928 214.784 182.096 214.784 C 182.738 214.784,183.259 214.878,183.254 214.993 M177.964 217.428 C 177.964 218.363,177.939 218.387,177.262 218.078 L 176.560 217.758 177.171 217.108 C 177.955 216.274,177.964 216.277,177.964 217.428 M181.240 217.722 C 180.270 218.487,179.916 218.399,179.916 217.395 L 179.916 216.360 180.613 217.014 C 180.996 217.374,181.278 217.693,181.240 217.722 M166.527 224.826 L 166.527 226.220 168.061 226.220 L 169.596 226.220 169.596 224.826 L 169.596 223.431 168.061 223.431 L 166.527 223.431 166.527 224.826 M188.285 224.826 L 188.285 226.220 189.679 226.220 L 191.074 226.220 191.074 224.826 L 191.074 223.431 189.679 223.431 L 188.285 223.431 188.285 224.826 M247.699 226.220 L 247.699 229.010 250.488 229.010 L 253.278 229.010 253.278 226.220 L 253.278 223.431 250.488 223.431 L 247.699 223.431 247.699 226.220 M291.771 226.220 L 291.771 229.010 294.700 229.010 L 297.629 229.010 297.629 226.220 L 297.629 223.431 294.700 223.431 L 291.771 223.431 291.771 226.220 M99.297 226.848 L 99.291 228.870 98.052 227.476 C 97.371 226.709,96.809 226.018,96.804 225.941 C 96.795 225.804,98.686 224.905,99.093 224.852 C 99.209 224.838,99.300 225.736,99.297 226.848 M104.324 225.944 C 104.324 226.032,103.759 226.659,103.068 227.336 L 101.813 228.568 101.813 226.710 L 101.813 224.852 103.068 225.318 C 103.759 225.573,104.324 225.855,104.324 225.944 M177.684 228.592 L 176.737 229.570 177.825 230.684 L 178.914 231.799 179.833 230.908 C 180.975 229.801,180.975 229.614,179.833 228.507 C 178.706 227.414,178.830 227.410,177.684 228.592 M97.071 230.309 C 97.071 230.361,96.263 230.404,95.275 230.404 L 93.479 230.404 93.905 229.154 L 94.331 227.903 95.701 229.058 C 96.455 229.693,97.071 230.256,97.071 230.309 M106.691 228.904 C 107.304 230.373,107.277 230.404,105.381 230.404 L 103.650 230.404 104.881 229.149 C 106.355 227.647,106.176 227.672,106.691 228.904 M73.637 230.268 L 72.119 231.806 73.716 233.403 L 75.314 235.001 76.911 233.403 L 78.509 231.806 76.991 230.268 C 76.156 229.423,75.401 228.731,75.314 228.731 C 75.227 228.731,74.472 229.423,73.637 230.268 M123.211 230.065 C 121.597 231.705,121.597 231.664,123.231 233.274 C 124.882 234.900,124.813 234.903,126.579 233.115 L 128.034 231.641 126.561 230.186 C 124.768 228.416,124.834 228.418,123.211 230.065 M270.430 234.033 L 268.490 235.988 270.507 238.006 L 272.524 240.023 274.542 238.006 L 276.559 235.988 274.619 234.033 C 273.552 232.958,272.609 232.078,272.524 232.078 C 272.439 232.078,271.497 232.958,270.430 234.033 M96.560 233.682 C 96.257 234.104,95.688 234.750,95.294 235.117 L 94.578 235.786 94.290 235.048 C 94.132 234.642,93.880 233.996,93.731 233.612 L 93.459 232.915 95.284 232.915 L 97.109 232.915 96.560 233.682 M107.379 233.124 C 107.372 233.239,107.087 233.868,106.744 234.522 L 106.122 235.711 104.745 234.313 L 103.368 232.915 105.380 232.915 C 106.487 232.915,107.386 233.009,107.379 233.124 M99.303 236.807 L 99.303 238.746 98.047 238.281 C 96.514 237.712,96.512 237.670,97.943 236.117 C 99.386 234.552,99.303 234.510,99.303 236.807 M104.324 237.380 C 104.324 237.471,103.759 237.820,103.068 238.156 L 101.813 238.765 101.813 236.758 L 101.813 234.751 103.068 235.983 C 103.759 236.661,104.324 237.290,104.324 237.380 M81.172 248.815 L 81.172 251.046 83.264 251.046 L 85.356 251.046 85.356 248.815 L 85.356 246.583 83.264 246.583 L 81.172 246.583 81.172 248.815 M115.202 248.815 L 115.202 251.046 117.434 251.046 L 119.665 251.046 119.665 248.815 L 119.665 246.583 117.434 246.583 L 115.202 246.583 115.202 248.815 M98.806 254.750 C 97.035 256.543,97.037 256.477,98.685 258.100 C 100.335 259.726,100.266 259.729,102.032 257.941 L 103.487 256.468 101.874 254.872 L 100.261 253.276 98.806 254.750 M219.104 257.465 L 217.727 258.864 219.184 260.321 L 220.642 261.779 222.099 260.321 L 223.557 258.864 222.179 257.465 C 221.422 256.696,220.730 256.067,220.642 256.067 C 220.553 256.067,219.861 256.696,219.104 257.465 M215.342 260.756 C 215.342 260.869,216.346 261.960,217.573 263.180 L 219.805 265.398 219.805 268.678 L 219.805 271.958 217.786 270.727 C 215.487 269.325,215.459 269.338,215.185 271.888 C 214.952 274.069,215.083 274.094,212.345 271.339 L 210.059 269.038 209.981 265.830 L 209.902 262.622 208.996 265.132 C 207.769 268.528,208.001 268.287,204.728 269.569 L 201.813 270.711 205.021 270.789 L 208.229 270.868 210.526 273.150 C 213.099 275.707,213.098 275.657,210.600 276.152 C 207.899 276.687,207.911 276.662,209.494 278.533 L 210.901 280.195 207.627 280.274 L 204.354 280.353 202.038 278.049 C 200.763 276.782,199.721 275.841,199.721 275.958 C 199.721 276.076,200.160 277.309,200.697 278.700 C 201.234 280.090,201.674 281.405,201.674 281.622 C 201.674 281.839,201.234 283.106,200.697 284.438 C 199.362 287.750,199.394 287.762,202.167 285.001 L 204.614 282.566 207.746 282.566 C 209.469 282.566,210.879 282.639,210.879 282.727 C 210.879 282.815,210.336 283.600,209.673 284.470 C 209.009 285.341,208.381 286.199,208.277 286.376 C 208.147 286.599,208.717 286.800,210.111 287.022 C 211.223 287.199,212.314 287.404,212.535 287.477 C 212.806 287.567,212.181 288.369,210.597 289.961 L 208.258 292.312 205.035 292.391 L 201.813 292.469 204.861 293.584 L 207.909 294.700 208.766 297.261 C 209.925 300.723,210.042 300.716,210.042 297.181 L 210.042 294.130 212.382 291.802 L 214.722 289.474 215.064 291.529 C 215.554 294.482,215.494 294.456,217.785 292.723 L 219.805 291.195 219.805 294.476 L 219.805 297.757 217.518 300.055 C 214.764 302.824,214.799 302.933,217.988 301.520 C 221.015 300.179,220.627 300.178,223.733 301.545 C 226.942 302.957,226.948 302.943,224.259 300.271 L 222.036 298.061 222.036 294.776 C 222.036 292.970,222.114 291.492,222.210 291.492 C 222.306 291.492,223.175 292.057,224.143 292.748 C 226.167 294.192,226.220 294.209,226.220 293.398 C 226.220 293.065,226.361 291.985,226.533 290.997 L 226.846 289.201 229.183 291.526 L 231.520 293.851 231.545 295.670 C 231.558 296.671,231.654 298.117,231.758 298.884 L 231.948 300.279 232.919 297.490 L 233.891 294.700 236.602 293.710 C 240.215 292.390,240.211 292.329,236.512 292.329 L 233.321 292.329 230.992 289.988 L 228.663 287.647 230.161 287.216 C 230.985 286.979,232.005 286.701,232.427 286.598 C 233.423 286.355,233.413 286.303,231.957 284.358 L 230.720 282.706 233.966 282.627 L 237.213 282.548 239.513 284.998 C 242.170 287.827,242.234 287.779,240.701 284.109 L 239.560 281.379 240.705 278.835 C 242.240 275.422,242.195 275.392,239.525 278.049 L 237.208 280.353 233.951 280.274 L 230.694 280.195 231.855 278.430 C 233.166 276.436,233.123 276.324,230.923 276.032 C 228.474 275.707,228.474 275.723,231.001 273.183 L 233.321 270.851 236.465 270.851 C 240.332 270.851,240.364 270.685,236.750 269.375 L 233.891 268.338 232.920 265.666 C 231.640 262.143,231.520 262.162,231.520 265.889 L 231.520 269.050 229.186 271.372 C 226.569 273.976,226.736 274.010,226.348 270.781 C 226.120 268.877,226.290 268.922,224.322 270.244 C 223.448 270.831,222.577 271.404,222.385 271.516 C 222.114 271.675,222.036 271.011,222.036 268.557 L 222.036 265.393 224.291 262.962 C 226.883 260.166,226.823 260.082,223.445 261.778 L 220.959 263.027 219.336 262.303 C 215.937 260.787,215.342 260.556,215.342 260.756 M203.068 265.830 L 203.068 267.782 205.160 267.782 L 207.252 267.782 207.252 265.830 L 207.252 263.877 205.160 263.877 L 203.068 263.877 203.068 265.830 M234.310 265.830 L 234.310 267.782 236.402 267.782 L 238.494 267.782 238.494 265.830 L 238.494 263.877 236.402 263.877 L 234.310 263.877 234.310 265.830 M291.270 270.653 L 290.095 271.851 291.154 272.885 C 292.446 274.147,292.552 274.152,293.669 272.999 C 294.792 271.840,294.786 271.742,293.503 270.489 L 292.445 269.456 291.270 270.653 M294.781 273.945 L 292.630 275.031 290.484 274.053 C 287.718 272.792,287.632 272.970,289.904 275.259 L 291.771 277.141 291.771 279.575 C 291.771 282.353,291.852 282.278,290.055 281.172 C 288.255 280.064,288.247 280.068,288.023 282.052 L 287.829 283.769 285.895 281.850 L 283.961 279.931 283.961 277.297 C 283.961 274.273,283.816 274.261,282.825 277.206 L 282.108 279.337 279.617 280.324 L 277.127 281.311 279.794 281.390 L 282.461 281.469 284.342 283.365 L 286.223 285.261 284.255 285.613 C 281.962 286.022,281.987 285.964,283.414 287.587 L 284.517 288.842 281.956 288.923 L 279.395 289.004 277.494 287.118 C 275.342 284.982,275.263 285.038,276.432 287.873 L 277.272 289.909 276.432 292.086 C 275.971 293.284,275.593 294.359,275.593 294.474 C 275.593 294.590,276.448 293.836,277.494 292.799 L 279.395 290.912 281.946 290.993 L 284.497 291.074 283.392 292.522 C 282.008 294.335,281.959 294.202,284.100 294.431 C 286.313 294.668,286.311 294.602,284.163 296.731 L 282.412 298.466 279.783 298.466 C 276.924 298.466,276.804 298.674,279.219 299.446 C 281.978 300.328,282.112 300.450,282.838 302.768 C 283.699 305.513,283.961 305.435,283.961 302.433 L 283.961 299.984 285.740 298.220 C 287.712 296.266,287.728 296.268,288.010 298.536 C 288.247 300.446,288.204 300.437,290.117 299.008 L 291.632 297.877 291.720 300.473 L 291.809 303.068 289.925 304.807 C 287.660 306.898,287.744 307.152,290.328 306.018 C 292.708 304.974,292.490 304.975,294.745 305.997 C 297.368 307.186,297.430 307.070,295.309 304.933 L 293.423 303.032 293.503 300.466 L 293.584 297.901 295.083 298.911 C 296.661 299.975,297.057 299.907,297.067 298.570 C 297.069 298.244,297.152 297.575,297.250 297.083 L 297.429 296.188 299.342 298.087 L 301.255 299.985 301.255 302.480 C 301.255 305.330,301.399 305.340,302.370 302.559 L 303.068 300.561 305.369 299.723 C 308.303 298.653,308.261 298.466,305.083 298.466 L 302.494 298.466 300.717 296.673 L 298.940 294.880 300.586 294.410 C 302.772 293.787,302.782 293.769,301.638 292.325 L 300.647 291.074 303.252 290.988 L 305.858 290.902 307.579 292.800 C 309.691 295.129,309.826 295.043,308.618 292.133 L 307.669 289.845 308.627 287.674 C 309.855 284.888,309.673 284.789,307.571 287.099 L 305.858 288.982 303.278 288.982 C 300.370 288.982,300.402 289.012,301.520 287.327 C 302.511 285.833,302.468 285.739,300.697 285.495 C 298.789 285.233,298.796 285.147,300.920 283.044 L 302.789 281.192 305.300 281.112 L 307.810 281.032 305.468 280.188 L 303.126 279.344 302.208 276.980 L 301.291 274.616 301.273 277.095 L 301.255 279.574 299.379 281.671 C 297.347 283.941,297.185 283.935,297.095 281.590 C 297.033 279.969,296.703 279.867,295.144 280.987 C 294.362 281.549,293.660 282.008,293.584 282.008 C 293.507 282.008,293.445 280.924,293.445 279.599 L 293.445 277.190 295.293 275.125 C 297.529 272.627,297.505 272.571,294.781 273.945 M219.805 277.044 L 219.805 278.774 218.689 277.685 C 217.343 276.371,217.343 276.367,218.480 275.801 C 219.796 275.145,219.805 275.153,219.805 277.044 M223.391 275.823 L 224.528 276.332 223.282 277.555 L 222.036 278.777 222.036 277.046 C 222.036 276.093,222.085 275.314,222.145 275.314 C 222.205 275.314,222.766 275.543,223.391 275.823 M278.382 277.406 L 278.382 278.940 280.056 278.940 L 281.729 278.940 281.729 277.406 L 281.729 275.872 280.056 275.872 L 278.382 275.872 278.382 277.406 M303.487 277.406 L 303.487 278.940 305.160 278.940 L 306.834 278.940 306.834 277.406 L 306.834 275.872 305.160 275.872 L 303.487 275.872 303.487 277.406 M216.399 280.281 C 214.694 280.385,214.646 280.343,215.057 279.098 L 215.385 278.102 216.591 279.149 L 217.797 280.195 216.399 280.281 M226.634 279.303 L 227.065 280.335 225.398 280.335 L 223.732 280.335 224.905 279.241 C 225.550 278.639,226.106 278.174,226.140 278.209 C 226.174 278.243,226.397 278.736,226.634 279.303 M196.852 279.995 C 195.228 281.644,195.227 281.602,196.959 283.093 L 198.381 284.318 199.752 282.948 L 201.122 281.577 199.645 280.118 L 198.168 278.659 196.852 279.995 M241.419 280.059 L 240.042 281.458 241.499 282.915 L 242.957 284.373 244.414 282.915 L 245.872 281.458 244.494 280.059 C 243.737 279.290,243.045 278.661,242.957 278.661 C 242.869 278.661,242.177 279.290,241.419 280.059 M216.946 283.752 C 215.769 285.176,215.635 285.173,215.013 283.708 L 214.528 282.566 216.226 282.566 L 217.924 282.566 216.946 283.752 M226.717 283.826 C 226.007 285.287,226.083 285.289,224.706 283.752 L 223.645 282.566 225.487 282.566 L 227.329 282.566 226.717 283.826 M219.805 286.196 L 219.805 287.874 218.773 287.443 C 217.341 286.844,217.344 286.869,218.555 285.629 C 219.902 284.250,219.805 284.206,219.805 286.196 M223.548 285.612 L 224.615 286.704 223.476 287.285 C 221.970 288.053,222.036 288.103,222.036 286.192 C 222.036 284.218,222.146 284.176,223.548 285.612 M291.771 286.387 L 291.771 287.697 290.779 286.735 L 289.786 285.774 290.569 285.438 C 291.735 284.938,291.771 284.967,291.771 286.387 M294.775 285.448 L 295.408 285.799 294.566 286.606 L 293.724 287.413 293.724 286.245 C 293.724 284.983,293.814 284.914,294.775 285.448 M290.098 288.876 C 290.098 288.934,289.539 288.982,288.857 288.982 L 287.616 288.982 287.906 288.150 L 288.196 287.319 289.147 288.044 C 289.670 288.443,290.098 288.817,290.098 288.876 M297.350 288.617 C 297.350 288.859,296.959 288.982,296.182 288.982 L 295.014 288.982 295.828 288.132 C 296.660 287.264,297.350 287.483,297.350 288.617 M273.282 288.642 C 271.997 289.957,271.998 290.022,273.337 291.329 L 274.428 292.395 275.628 291.276 L 276.827 290.157 275.739 288.942 C 274.347 287.387,274.489 287.405,273.282 288.642 M309.123 288.784 L 307.947 289.982 309.006 291.016 C 310.316 292.295,310.388 292.294,311.659 290.992 L 312.692 289.935 311.495 288.760 L 310.299 287.586 309.123 288.784 M289.400 291.771 C 288.959 292.232,288.524 292.608,288.433 292.608 C 288.342 292.608,288.125 292.232,287.951 291.771 L 287.636 290.934 288.919 290.934 L 290.202 290.934 289.400 291.771 M297.156 291.907 C 296.901 292.442,296.683 292.850,296.672 292.812 C 296.662 292.775,296.284 292.337,295.833 291.840 L 295.014 290.934 296.317 290.934 L 297.620 290.934 297.156 291.907 M291.771 293.584 C 291.771 294.937,291.460 295.147,290.500 294.442 C 289.973 294.055,289.981 294.021,290.777 293.187 C 291.809 292.107,291.771 292.092,291.771 293.584 M295.397 293.977 C 295.397 294.166,294.189 294.840,293.850 294.840 C 293.781 294.840,293.724 294.329,293.724 293.705 L 293.724 292.570 294.561 293.166 C 295.021 293.494,295.397 293.859,295.397 293.977 M203.347 297.071 L 203.347 299.024 205.439 299.024 L 207.531 299.024 207.531 297.071 L 207.531 295.119 205.439 295.119 L 203.347 295.119 203.347 297.071 M234.031 297.071 L 234.031 299.024 236.123 299.024 L 238.215 299.024 238.215 297.071 L 238.215 295.119 236.123 295.119 L 234.031 295.119 234.031 297.071 M278.661 302.371 L 278.661 304.045 280.195 304.045 L 281.729 304.045 281.729 302.371 L 281.729 300.697 280.195 300.697 L 278.661 300.697 278.661 302.371 M303.208 302.371 L 303.208 304.045 304.881 304.045 L 306.555 304.045 306.555 302.371 L 306.555 300.697 304.881 300.697 L 303.208 300.697 303.208 302.371 M219.167 302.311 L 217.852 303.645 219.326 305.101 L 220.800 306.557 222.175 305.161 L 223.549 303.766 222.176 302.371 C 220.515 300.685,220.764 300.690,219.167 302.311 M291.411 306.496 C 290.132 307.805,290.133 307.877,291.434 309.148 L 292.492 310.181 293.666 308.985 L 294.841 307.788 293.643 306.612 L 292.445 305.437 291.411 306.496 M141.281 308.231 L 139.340 310.186 141.358 312.204 L 143.375 314.221 145.393 312.204 L 147.410 310.186 145.470 308.231 C 144.403 307.156,143.460 306.276,143.375 306.276 C 143.290 306.276,142.348 307.156,141.281 308.231 M147.387 314.288 L 143.728 316.132 139.832 314.412 C 137.689 313.466,135.822 312.692,135.685 312.692 C 135.547 312.692,136.910 314.172,138.714 315.980 L 141.994 319.269 141.918 324.058 L 141.841 328.846 139.096 327.154 C 135.912 325.191,136.023 325.146,135.571 328.591 C 135.380 330.049,135.159 331.349,135.080 331.481 C 135.001 331.613,133.383 330.171,131.485 328.277 L 128.033 324.834 128.033 320.251 C 128.033 317.730,127.944 315.756,127.835 315.865 C 127.726 315.974,127.039 317.774,126.309 319.865 C 125.578 321.956,124.821 323.766,124.626 323.887 C 124.431 324.007,122.544 324.760,120.434 325.559 C 118.324 326.358,116.597 327.116,116.597 327.243 C 116.597 327.371,118.615 327.476,121.082 327.476 L 125.566 327.476 129.030 330.741 C 130.935 332.537,132.400 334.087,132.286 334.185 C 132.171 334.283,130.697 334.653,129.010 335.008 C 127.322 335.362,125.792 335.727,125.609 335.819 C 125.399 335.926,126.097 336.936,127.506 338.565 L 129.736 341.144 124.828 341.144 L 119.921 341.144 116.752 337.866 C 115.010 336.063,113.506 334.665,113.410 334.758 C 113.314 334.852,113.922 336.695,114.761 338.853 L 116.286 342.779 114.751 346.733 C 113.906 348.907,113.267 350.738,113.329 350.800 C 113.392 350.863,114.908 349.407,116.698 347.563 L 119.952 344.212 124.838 344.212 L 129.724 344.212 127.478 347.120 C 125.628 349.518,125.320 350.054,125.727 350.171 C 125.998 350.249,127.645 350.526,129.387 350.787 L 132.553 351.261 129.112 354.710 L 125.671 358.159 121.134 358.159 C 118.639 358.159,116.597 358.261,116.597 358.385 C 116.597 358.510,118.448 359.245,120.711 360.019 L 124.826 361.426 126.220 365.361 C 126.987 367.524,127.709 369.383,127.824 369.492 C 127.939 369.600,128.033 367.626,128.033 365.105 L 128.033 360.521 131.346 357.218 C 133.167 355.401,134.722 354.022,134.800 354.154 C 134.878 354.286,135.159 355.711,135.425 357.322 C 136.082 361.312,135.854 361.218,139.052 358.821 L 141.841 356.731 141.918 361.548 L 141.994 366.366 138.714 369.654 C 136.910 371.463,135.562 372.943,135.717 372.943 C 135.873 372.943,137.711 372.189,139.801 371.268 L 143.601 369.592 146.995 371.116 C 151.931 373.331,151.932 373.330,148.326 369.689 L 145.049 366.379 145.049 361.423 L 145.049 356.467 147.884 358.429 C 149.443 359.508,150.812 360.391,150.926 360.391 C 151.040 360.391,151.356 358.878,151.629 357.029 L 152.125 353.667 155.700 357.234 L 159.275 360.801 159.275 365.245 C 159.275 367.689,159.369 369.596,159.484 369.483 C 159.599 369.370,160.268 367.561,160.972 365.462 L 162.250 361.647 166.341 360.143 C 168.591 359.315,170.432 358.530,170.432 358.398 C 170.432 358.267,168.404 358.159,165.925 358.159 L 161.419 358.159 158.113 354.894 C 155.898 352.706,154.923 351.564,155.158 351.432 C 155.352 351.324,156.702 350.895,158.160 350.480 C 159.617 350.064,160.960 349.643,161.145 349.544 C 161.369 349.424,160.835 348.524,159.550 346.858 L 157.618 344.351 162.421 344.267 L 167.225 344.182 170.494 347.614 C 172.292 349.502,173.767 350.906,173.771 350.734 C 173.776 350.562,173.033 348.648,172.122 346.480 L 170.463 342.539 172.146 338.751 C 173.071 336.667,173.770 334.904,173.698 334.833 C 173.627 334.761,172.152 336.152,170.421 337.923 L 167.274 341.144 162.437 341.144 C 159.777 341.144,157.601 341.088,157.601 341.020 C 157.601 340.952,158.354 339.732,159.275 338.308 C 160.195 336.885,160.948 335.642,160.948 335.546 C 160.948 335.450,159.662 335.148,158.089 334.875 C 156.517 334.602,155.122 334.316,154.991 334.239 C 154.859 334.163,156.300 332.546,158.194 330.648 L 161.637 327.197 166.035 327.197 C 168.453 327.197,170.432 327.088,170.432 326.956 C 170.432 326.824,168.737 326.109,166.664 325.367 C 164.592 324.626,162.765 323.938,162.604 323.838 C 162.444 323.739,161.682 321.975,160.912 319.918 C 159.025 314.881,158.998 314.886,158.983 320.237 L 158.969 324.826 155.544 328.369 L 152.118 331.913 151.756 329.276 C 151.557 327.825,151.316 326.262,151.220 325.802 L 151.046 324.966 148.117 326.917 L 145.188 328.869 145.112 324.234 L 145.035 319.600 148.416 316.006 C 152.311 311.867,152.284 311.821,147.387 314.288 M118.271 320.223 L 118.271 323.013 121.060 323.013 L 123.849 323.013 123.849 320.223 L 123.849 317.434 121.060 317.434 L 118.271 317.434 118.271 320.223 M163.180 320.223 L 163.180 323.013 165.969 323.013 L 168.759 323.013 168.759 320.223 L 168.759 317.434 165.969 317.434 L 163.180 317.434 163.180 320.223 M141.975 336.192 L 141.970 338.773 140.232 336.983 L 138.494 335.194 140.167 334.424 C 141.088 334.001,141.872 333.645,141.911 333.634 C 141.949 333.622,141.978 334.773,141.975 336.192 M148.200 334.787 C 149.159 335.136,149.192 335.069,147.071 337.072 L 145.328 338.718 145.328 336.161 L 145.328 333.605 146.374 334.054 C 146.949 334.301,147.771 334.631,148.200 334.787 M152.461 340.656 C 152.603 341.097,152.370 341.143,150.019 341.133 L 147.420 341.122 149.367 339.346 L 151.314 337.569 151.809 338.868 C 152.081 339.583,152.375 340.387,152.461 340.656 M137.828 339.458 L 139.609 341.119 137.041 341.131 L 134.472 341.144 135.074 339.470 C 135.807 337.432,135.657 337.433,137.828 339.458 M173.423 340.523 C 171.149 342.815,171.156 342.584,173.299 344.708 C 175.448 346.838,175.204 346.850,177.545 344.491 L 179.483 342.538 177.545 340.586 C 175.215 338.237,175.685 338.244,173.423 340.523 M108.973 340.818 L 107.082 342.723 109.120 344.712 L 111.158 346.702 113.180 344.697 L 115.202 342.692 113.327 340.802 C 111.041 338.498,111.275 338.497,108.973 340.818 M138.683 345.258 C 137.645 346.559,136.167 347.977,136.014 347.818 C 135.951 347.752,135.582 346.914,135.194 345.955 L 134.488 344.212 137.003 344.212 L 139.517 344.212 138.683 345.258 M152.846 344.421 C 152.838 344.536,152.427 345.418,151.932 346.380 L 151.032 348.129 150.059 347.077 C 149.523 346.499,148.719 345.617,148.270 345.119 L 147.455 344.212 150.157 344.212 C 151.643 344.212,152.853 344.306,152.846 344.421 M141.889 351.649 C 141.782 351.756,138.898 350.706,138.669 350.478 C 138.613 350.421,139.303 349.565,140.204 348.576 L 141.841 346.778 141.922 349.156 C 141.967 350.464,141.952 351.586,141.889 351.649 M148.954 350.059 C 148.954 350.153,148.138 350.631,147.141 351.123 L 145.328 352.017 145.328 349.352 L 145.328 346.686 147.141 348.288 C 148.138 349.169,148.954 349.966,148.954 350.059 M118.550 364.854 L 118.550 367.643 121.339 367.643 L 124.128 367.643 124.128 364.854 L 124.128 362.064 121.339 362.064 L 118.550 362.064 118.550 364.854 M162.901 364.854 L 162.901 367.643 165.690 367.643 L 168.480 367.643 168.480 364.854 L 168.480 362.064 165.690 362.064 L 162.901 362.064 162.901 364.854 M141.485 372.740 L 139.469 374.770 141.359 376.646 C 143.661 378.930,143.402 378.931,145.684 376.632 L 147.559 374.742 145.530 372.726 L 143.501 370.711 141.485 372.740 " stroke="none" fill="#000000" fill-rule="evenodd"></path></g></svg>