<?xml version="1.0" standalone="no"?>
<!DOCTYPE svg PUBLIC "-//W3C//DTD SVG 20010904//EN"
 "http://www.w3.org/TR/2001/REC-SVG-20010904/DTD/svg10.dtd">
<svg version="1.0" xmlns="http://www.w3.org/2000/svg"
 width="136.000000pt" height="133.000000pt" viewBox="0 0 136.000000 133.000000"
 preserveAspectRatio="xMidYMid meet">
<metadata>
Created by potrace 1.15, written by Peter Selinger 2001-2017
</metadata>
<g transform="translate(0.000000,133.000000) scale(0.100000,-0.100000)"
fill="#000000" stroke="none">
<path d="M622 1289 c-10 -24 -50 -124 -88 -221 l-69 -177 -105 -25 c-58 -13
-162 -37 -232 -53 -71 -15 -127 -31 -125 -35 1 -3 82 -72 180 -153 l177 -147
0 -41 c-1 -23 -9 -130 -19 -237 -10 -107 -18 -196 -16 -198 1 -1 91 54 200
123 108 69 200 125 203 125 3 0 103 -41 220 -91 118 -50 215 -89 217 -87 1 2
-23 105 -55 230 l-58 228 154 177 c85 97 152 179 149 182 -5 5 -350 30 -427
31 l-37 0 -112 188 c-153 255 -135 234 -157 181z"/>
</g>
</svg>
