<?xml version="1.0" standalone="no"?>
<!DOCTYPE svg PUBLIC "-//W3C//DTD SVG 20010904//EN"
 "http://www.w3.org/TR/2001/REC-SVG-20010904/DTD/svg10.dtd">
<svg version="1.0" xmlns="http://www.w3.org/2000/svg"
 width="253.000000pt" height="246.000000pt" viewBox="0 0 253.000000 246.000000"
 preserveAspectRatio="xMidYMid meet">
<metadata>
Created by potrace 1.15, written by Peter Selinger 2001-2017
</metadata>
<g transform="translate(0.000000,246.000000) scale(0.100000,-0.100000)"
fill="#000000" stroke="none">
<path d="M1232 2448 c-16 -16 -17 -520 -2 -549 12 -22 59 -26 78 -7 9 9 12 84
12 274 0 225 -2 265 -16 278 -18 19 -55 21 -72 4z"/>
<path d="M1850 1970 c-163 -210 -182 -247 -140 -270 11 -6 29 -9 39 -5 10 3
89 96 175 206 137 175 157 205 154 232 -3 29 -7 32 -38 35 -34 2 -37 -1 -190
-198z"/>
<path d="M397 2104 c-4 -4 -7 -20 -7 -35 0 -22 38 -71 171 -223 173 -198 195
-216 227 -184 31 31 13 61 -155 253 -142 163 -171 190 -197 193 -18 2 -35 0
-39 -4z"/>
<path d="M1143 1745 c-104 -23 -189 -71 -273 -155 -87 -86 -122 -147 -150
-256 -37 -143 -24 -264 41 -401 68 -143 208 -257 365 -298 75 -19 213 -19 288
0 353 92 526 480 364 815 -43 89 -159 204 -250 248 -120 59 -256 75 -385 47z"/>
<path d="M2245 1399 c-126 -15 -238 -28 -247 -29 -27 0 -52 -44 -39 -68 6 -11
17 -22 24 -25 20 -8 520 53 535 65 19 16 15 66 -7 78 -11 5 -23 10 -28 9 -4
-1 -111 -14 -238 -30z"/>
<path d="M12 1338 c-15 -15 -16 -65 0 -74 14 -9 395 -43 484 -44 34 0 65 5 72
12 16 16 15 53 -1 66 -7 6 -122 21 -256 32 -285 24 -283 24 -299 8z"/>
<path d="M404 722 c-189 -120 -219 -142 -222 -166 -4 -33 13 -56 42 -56 11 1
118 63 236 138 192 123 215 140 218 167 4 29 -17 55 -43 55 -6 0 -110 -62
-231 -138z"/>
<path d="M1890 821 c-14 -28 -12 -46 8 -63 34 -30 440 -238 464 -238 56 0 66
59 16 90 -88 54 -438 230 -456 230 -12 0 -26 -9 -32 -19z"/>
<path d="M988 543 c-17 -19 -188 -470 -188 -494 0 -38 71 -55 89 -21 18 33
181 471 181 486 0 20 -28 46 -49 46 -10 0 -25 -8 -33 -17z"/>
<path d="M1458 549 c-10 -5 -18 -20 -17 -32 0 -12 37 -128 83 -256 91 -257
104 -278 151 -247 14 9 25 23 25 31 0 26 -171 499 -183 507 -16 10 -38 9 -59
-3z"/>
</g>
</svg>
