<?xml version="1.0" standalone="no"?>
<!DOCTYPE svg PUBLIC "-//W3C//DTD SVG 20010904//EN"
 "http://www.w3.org/TR/2001/REC-SVG-20010904/DTD/svg10.dtd">
<svg version="1.0" xmlns="http://www.w3.org/2000/svg"
 width="313.000000pt" height="303.000000pt" viewBox="0 0 313.000000 303.000000"
 preserveAspectRatio="xMidYMid meet">
<metadata>
Created by potrace 1.15, written by Peter Selinger 2001-2017
</metadata>
<g transform="translate(0.000000,303.000000) scale(0.100000,-0.100000)"
fill="#000000" stroke="none">
<path d="M1528 3019 c-17 -9 -18 -36 -18 -339 0 -317 1 -331 20 -350 26 -26
55 -25 82 2 21 21 21 22 14 347 -6 287 -9 327 -23 339 -20 14 -51 15 -75 1z"/>
<path d="M2478 2668 c-23 -19 -378 -477 -390 -504 -22 -47 43 -96 88 -66 7 4
98 117 203 252 202 259 214 282 169 314 -27 19 -49 20 -70 4z"/>
<path d="M492 2588 c-7 -7 -12 -26 -12 -42 1 -26 36 -72 207 -266 113 -129
214 -238 225 -242 48 -19 96 40 69 85 -7 11 -103 122 -213 248 -182 208 -203
229 -232 229 -18 0 -37 -5 -44 -12z"/>
<path d="M1404 2215 c-489 -106 -748 -648 -525 -1100 95 -193 280 -344 491
-401 101 -28 302 -26 405 4 174 50 339 171 435 319 299 456 46 1068 -486 1178
-89 18 -237 18 -320 0z m342 -156 c206 -62 380 -246 429 -450 19 -82 19 -219
0 -294 -55 -218 -238 -403 -455 -461 -93 -24 -235 -22 -325 6 -169 52 -309
170 -384 321 -93 189 -93 369 0 559 81 164 253 298 434 335 89 18 210 12 301
-16z"/>
<path d="M2716 1715 c-247 -30 -271 -34 -288 -55 -22 -27 -22 -39 -2 -68 9
-14 26 -22 44 -22 16 0 163 16 327 35 268 31 300 37 316 56 21 26 21 38 1 67
-20 29 -58 28 -398 -13z"/>
<path d="M17 1649 c-22 -13 -23 -72 -1 -90 11 -9 103 -21 283 -36 310 -26 382
-28 399 -11 16 16 15 73 -1 87 -8 6 -146 22 -313 36 -337 28 -342 28 -367 14z"/>
<path d="M505 889 c-137 -87 -258 -166 -267 -174 -27 -23 -23 -71 7 -91 34
-22 31 -23 295 143 307 194 300 189 300 223 0 36 -24 60 -58 59 -17 0 -124
-62 -277 -160z"/>
<path d="M2334 1005 c-35 -53 -22 -64 223 -193 383 -201 348 -185 380 -170 20
9 29 22 31 43 1 17 -1 35 -5 41 -14 21 -562 304 -587 304 -16 0 -32 -9 -42
-25z"/>
<path d="M1218 663 c-24 -28 -229 -583 -226 -612 4 -35 48 -59 80 -44 19 9 44
65 137 314 107 285 113 304 100 328 -18 33 -68 40 -91 14z"/>
<path d="M1792 668 c-7 -7 -12 -23 -12 -37 0 -36 205 -612 222 -622 39 -25 88
0 88 44 0 34 -192 590 -211 614 -14 16 -71 17 -87 1z"/>
</g>
</svg>
