<?xml version="1.0" standalone="no"?>
<!DOCTYPE svg PUBLIC "-//W3C//DTD SVG 20010904//EN"
 "http://www.w3.org/TR/2001/REC-SVG-20010904/DTD/svg10.dtd">
<svg version="1.0" xmlns="http://www.w3.org/2000/svg"
 width="68.000000pt" height="214.000000pt" viewBox="0 0 68.000000 214.000000"
 preserveAspectRatio="xMidYMid meet">
<metadata>
Created by potrace 1.15, written by Peter Selinger 2001-2017
</metadata>
<g transform="translate(0.000000,214.000000) scale(0.100000,-0.100000)"
fill="#000000" stroke="none">
<path d="M190 1393 l0 -748 -40 -23 c-52 -30 -114 -109 -135 -173 -26 -76 -17
-197 19 -267 33 -64 91 -123 154 -154 40 -20 62 -23 152 -23 91 0 111 3 148
23 67 36 129 98 159 161 23 48 27 69 28 146 0 77 -4 98 -26 145 -28 59 -80
117 -129 146 l-30 18 0 748 0 748 -150 0 -150 0 0 -747z m240 342 l0 -345 -95
0 -95 0 0 345 0 345 95 0 95 0 0 -345z"/>
</g>
</svg>
