<?xml version="1.0" standalone="no"?>
<!DOCTYPE svg PUBLIC "-//W3C//DTD SVG 20010904//EN"
 "http://www.w3.org/TR/2001/REC-SVG-20010904/DTD/svg10.dtd">
<svg version="1.0" xmlns="http://www.w3.org/2000/svg"
 width="359.000000pt" height="410.000000pt" viewBox="0 0 359.000000 410.000000"
 preserveAspectRatio="xMidYMid meet">
<metadata>
Created by potrace 1.15, written by Peter Selinger 2001-2017
</metadata>
<g transform="translate(0.000000,410.000000) scale(0.100000,-0.100000)"
fill="#000000" stroke="none">
<path d="M1648 4090 c-264 -48 -481 -245 -530 -483 -11 -51 -15 -58 -33 -53
-188 53 -390 5 -530 -125 -107 -100 -165 -217 -180 -361 -7 -61 -9 -67 -33
-73 -56 -14 -169 -74 -212 -112 -144 -129 -174 -391 -64 -565 59 -94 171 -172
289 -203 101 -26 110 -23 156 48 l40 62 -71 8 c-113 13 -176 41 -246 111 -69
70 -94 126 -94 216 0 166 73 245 284 311 l98 31 -6 76 c-19 221 129 412 349
453 94 17 191 -4 298 -67 32 -19 62 -34 68 -34 5 0 9 43 9 98 0 162 47 277
155 382 209 200 531 197 734 -7 117 -117 159 -240 148 -429 -4 -57 -3 -104 1
-104 4 0 39 32 77 70 39 39 91 85 118 101 213 138 489 56 600 -179 29 -61 32
-76 32 -162 0 -52 -2 -110 -5 -129 l-5 -34 63 -13 c86 -18 144 -47 196 -100
69 -69 91 -123 91 -224 0 -75 -4 -93 -32 -152 -37 -80 -108 -154 -176 -187
-27 -13 -46 -28 -44 -35 2 -6 12 -35 21 -64 16 -46 20 -52 39 -46 95 28 221
139 274 240 135 254 48 536 -202 660 l-75 37 0 61 c0 137 -57 265 -164 372
-81 81 -164 126 -271 149 -123 26 -250 12 -354 -38 l-50 -23 -25 80 c-62 196
-241 366 -446 421 -68 19 -229 27 -292 15z"/>
<path d="M2047 1902 l-268 -427 311 -3 c170 -1 310 -4 310 -6 0 -2 -147 -230
-326 -506 -179 -276 -324 -505 -322 -510 3 -8 930 1111 936 1130 2 6 -116 10
-332 10 l-335 0 166 338 c91 185 172 352 179 370 l14 32 -32 0 c-33 0 -37 -7
-301 -428z"/>
<path d="M1241 2063 c-17 -27 -151 -241 -300 -478 l-269 -430 347 -5 348 -5
-369 -569 c-203 -313 -367 -571 -364 -573 2 -3 56 58 119 134 63 76 300 363
527 638 l412 500 -376 5 -375 5 199 409 c110 225 200 411 200 413 0 1 -16 3
-35 3 -31 0 -39 -5 -64 -47z"/>
</g>
</svg>
