<?xml version="1.0" standalone="no"?>
<!DOCTYPE svg PUBLIC "-//W3C//DTD SVG 20010904//EN"
 "http://www.w3.org/TR/2001/REC-SVG-20010904/DTD/svg10.dtd">
<svg version="1.0" xmlns="http://www.w3.org/2000/svg"
 width="360.000000pt" height="460.000000pt" viewBox="0 0 360.000000 460.000000"
 preserveAspectRatio="xMidYMid meet">
<metadata>
Created by potrace 1.15, written by Peter Selinger 2001-2017
</metadata>
<g transform="translate(0.000000,460.000000) scale(0.100000,-0.100000)"
fill="#000000" stroke="none">
<path d="M1591 4580 c-193 -51 -340 -172 -426 -351 -19 -39 -39 -95 -45 -124
l-11 -52 -52 14 c-166 43 -367 -12 -500 -136 -104 -98 -161 -213 -175 -357
l-7 -65 -65 -23 c-180 -62 -276 -176 -301 -354 -35 -252 123 -465 386 -518 43
-9 80 -13 82 -8 2 5 21 36 43 69 l40 60 -78 6 c-97 7 -172 40 -241 104 -69 64
-96 129 -95 227 1 156 75 238 268 299 l104 32 4 111 c3 100 7 118 35 178 44
94 109 160 202 206 72 35 79 37 177 37 l103 0 99 -51 99 -51 6 111 c9 174 53
274 167 380 100 92 215 136 355 136 143 0 257 -45 360 -141 66 -62 123 -155
145 -239 8 -27 12 -99 11 -179 l-2 -134 91 87 c120 115 189 149 312 154 99 4
163 -12 240 -60 129 -81 208 -235 194 -377 -4 -37 -9 -80 -12 -97 -6 -31 -6
-31 53 -43 212 -42 336 -215 289 -402 -30 -115 -99 -207 -192 -255 -61 -32
-63 -40 -30 -118 18 -43 28 -44 92 -10 243 129 347 426 233 663 -43 87 -129
171 -218 213 l-71 33 0 45 c-1 143 -60 282 -165 387 -122 122 -247 169 -430
161 -96 -5 -126 -13 -241 -64 -7 -3 -14 10 -18 33 -4 21 -26 76 -48 123 -53
111 -176 237 -283 289 -148 73 -328 91 -484 51z"/>
<path d="M735 2574 c-8 -20 -15 -42 -15 -50 0 -26 265 -88 507 -118 431 -54
943 -44 1353 25 113 19 347 73 356 82 2 2 -3 25 -12 51 -12 34 -20 46 -31 42
-38 -15 -219 -57 -323 -75 -387 -69 -921 -79 -1338 -25 -146 19 -343 58 -418
84 -31 11 -59 20 -60 20 -2 0 -11 -16 -19 -36z"/>
<path d="M841 2194 c-7 -26 -11 -47 -9 -49 17 -12 459 -96 643 -121 180 -25
568 -25 750 0 200 27 563 101 596 122 8 5 -8 74 -20 87 -5 4 -62 -5 -127 -22
-384 -96 -774 -131 -1092 -97 -177 19 -388 54 -582 96 -74 17 -138 30 -141 30
-4 0 -12 -21 -18 -46z"/>
<path d="M2695 1859 c-65 -20 -278 -60 -401 -74 -295 -35 -782 -13 -1082 50
-70 14 -68 15 -85 -57 -6 -24 -4 -27 41 -37 214 -50 408 -66 772 -66 295 1
352 3 475 23 151 24 345 68 358 81 5 5 3 27 -4 50 -13 43 -21 47 -74 30z"/>
<path d="M2430 1543 c-25 -7 -106 -25 -180 -40 -126 -25 -153 -27 -415 -27
-295 0 -384 8 -554 55 -40 11 -75 18 -76 17 -36 -54 -47 -81 -34 -89 24 -14
160 -48 264 -64 138 -22 513 -31 657 -16 127 14 288 43 367 67 56 16 57 18 27
85 -11 25 -12 25 -56 12z"/>
<path d="M1091 1143 c-6 -21 -11 -43 -11 -49 0 -13 114 -36 287 -59 127 -17
393 -19 513 -5 88 11 282 48 289 55 6 6 -20 95 -28 95 -3 0 -24 -5 -46 -10
-178 -43 -394 -61 -575 -48 -109 7 -329 37 -396 54 -19 5 -24 0 -33 -33z"/>
<path d="M1075 744 c-3 -25 -5 -47 -3 -49 7 -7 285 -44 378 -50 100 -7 244 4
423 31 l108 17 -6 41 c-4 22 -10 44 -14 48 -4 4 -70 -2 -146 -14 -189 -28
-392 -28 -580 0 -77 12 -143 22 -146 22 -4 0 -10 -21 -14 -46z"/>
<path d="M1295 448 c-2 -7 -8 -29 -13 -49 l-10 -37 77 -16 c201 -43 317 -44
511 -6 57 10 104 21 106 22 1 2 -3 25 -9 51 -9 42 -13 48 -31 42 -89 -25 -269
-47 -346 -42 -73 5 -206 27 -263 43 -9 3 -19 -1 -22 -8z"/>
<path d="M1945 128 c-90 -29 -187 -34 -281 -13 -43 9 -84 19 -90 22 -6 2 -17
-16 -24 -42 -16 -58 -16 -58 100 -79 136 -25 225 -18 372 30 l47 15 -17 45
c-18 50 -21 50 -107 22z"/>
</g>
</svg>
