<?xml version="1.0" standalone="no"?>
<!DOCTYPE svg PUBLIC "-//W3C//DTD SVG 20010904//EN"
 "http://www.w3.org/TR/2001/REC-SVG-20010904/DTD/svg10.dtd">
<svg version="1.0" xmlns="http://www.w3.org/2000/svg"
 width="169.000000pt" height="160.000000pt" viewBox="0 0 169.000000 160.000000"
 preserveAspectRatio="xMidYMid meet">
<metadata>
Created by potrace 1.15, written by Peter Selinger 2001-2017
</metadata>
<g transform="translate(0.000000,160.000000) scale(0.100000,-0.100000)"
fill="#000000" stroke="none">
<path d="M524 1575 c-9 -14 -14 -36 -12 -50 4 -21 -3 -29 -58 -61 -350 -205
-531 -660 -423 -1066 13 -50 26 -48 40 4 38 144 141 248 279 284 55 14 75 15
129 5 35 -7 81 -21 102 -32 21 -10 41 -19 43 -19 3 0 17 25 31 55 32 66 109
154 123 140 6 -5 72 -163 147 -350 75 -187 147 -358 160 -381 34 -58 94 -96
159 -102 113 -9 186 77 186 222 0 79 -24 130 -63 134 -50 6 -60 -13 -52 -94 7
-77 -7 -125 -41 -138 -24 -9 -83 23 -99 53 -7 15 -77 183 -153 373 -100 247
-136 348 -127 351 42 17 107 18 165 3 35 -9 64 -15 65 -14 1 2 10 26 20 53 26
71 113 155 188 183 100 38 221 25 307 -32 22 -14 42 -21 45 -16 16 25 -93 187
-187 276 -113 109 -241 180 -395 220 -98 25 -292 23 -395 -5 l-78 -20 -25 24
c-31 32 -60 32 -81 0z"/>
</g>
</svg>
