<?xml version="1.0" standalone="no"?>
<!DOCTYPE svg PUBLIC "-//W3C//DTD SVG 20010904//EN"
 "http://www.w3.org/TR/2001/REC-SVG-20010904/DTD/svg10.dtd">
<svg version="1.0" xmlns="http://www.w3.org/2000/svg"
 width="335.000000pt" height="114.000000pt" viewBox="0 0 335.000000 114.000000"
 preserveAspectRatio="xMidYMid meet">
<metadata>
Created by potrace 1.15, written by Peter Selinger 2001-2017
</metadata>
<g transform="translate(0.000000,114.000000) scale(0.100000,-0.100000)"
fill="#000000" stroke="none">
<path d="M0 1095 c0 -44 1 -44 42 -56 31 -8 63 -31 118 -85 89 -87 126 -104
217 -104 90 1 131 21 220 108 120 119 176 118 304 -4 93 -88 126 -104 216
-104 91 1 135 22 223 109 120 117 173 117 300 -4 92 -88 129 -105 222 -105 88
0 128 20 223 110 120 113 174 114 290 1 90 -88 137 -110 228 -111 90 0 123 16
216 104 129 123 185 123 311 0 80 -77 127 -104 185 -104 35 0 35 0 35 45 0 43
-1 44 -41 55 -29 8 -63 33 -118 85 -92 88 -127 105 -218 105 -89 -1 -139 -24
-211 -98 -73 -74 -84 -82 -127 -92 -60 -14 -101 5 -186 86 -93 89 -125 104
-219 104 -90 0 -129 -19 -225 -110 -120 -113 -174 -114 -290 -1 -90 88 -137
110 -228 111 -90 0 -123 -16 -216 -104 -85 -81 -126 -100 -186 -86 -43 10 -54
18 -127 92 -72 74 -122 97 -211 98 -90 0 -123 -16 -216 -104 -129 -123 -182
-123 -310 0 -83 78 -128 104 -186 104 -35 0 -35 0 -35 -45z"/>
<path d="M0 691 l0 -48 40 -7 c31 -5 53 -20 107 -75 110 -110 194 -140 306
-107 45 13 71 30 134 90 91 85 109 96 158 96 54 0 93 -23 159 -90 96 -100 180
-128 290 -96 47 14 71 30 134 90 92 87 107 96 165 96 50 0 92 -26 167 -105 67
-70 110 -89 200 -89 93 0 121 13 215 104 83 80 101 90 155 90 55 0 71 -10 162
-96 63 -60 87 -76 134 -90 110 -32 194 -4 290 96 65 67 105 90 157 90 56 0 82
-15 149 -83 68 -70 123 -103 187 -113 l41 -7 0 51 c0 49 0 50 -36 56 -26 5
-57 28 -113 81 -90 87 -144 114 -220 115 -90 0 -127 -17 -216 -101 -136 -127
-184 -129 -306 -13 -96 91 -141 114 -229 114 -88 0 -134 -23 -220 -109 -117
-117 -185 -119 -294 -9 -90 91 -124 110 -206 116 -99 7 -143 -12 -245 -109
-127 -120 -173 -118 -310 10 -89 84 -126 101 -216 101 -76 -1 -127 -27 -218
-114 -122 -116 -169 -116 -291 0 -81 77 -143 113 -197 114 -33 0 -33 0 -33
-49z"/>
<path d="M0 251 l0 -48 39 -7 c31 -5 54 -21 110 -76 94 -92 136 -114 226 -114
89 -1 128 18 220 105 84 80 101 89 158 89 50 0 92 -26 167 -105 82 -85 170
-111 274 -81 47 14 71 30 134 90 91 86 107 96 162 96 55 0 84 -17 155 -90 70
-71 113 -96 182 -106 88 -11 151 15 241 100 91 86 107 96 162 96 55 0 71 -10
162 -96 63 -60 87 -76 134 -90 109 -31 192 -4 289 95 66 68 106 91 158 91 55
0 80 -14 151 -84 71 -71 119 -100 184 -111 l42 -7 0 51 c0 50 0 50 -37 57 -26
5 -57 26 -113 80 -89 86 -143 113 -219 114 -90 0 -127 -17 -216 -101 -136
-127 -184 -129 -306 -13 -96 91 -141 114 -229 114 -88 0 -134 -23 -220 -109
-120 -120 -180 -120 -303 1 -88 87 -130 108 -217 108 -88 0 -133 -23 -229
-114 -123 -117 -170 -114 -307 15 -91 85 -121 99 -214 99 -77 0 -141 -33 -220
-114 -112 -114 -170 -115 -290 0 -81 77 -143 113 -197 114 -33 0 -33 0 -33
-49z"/>
</g>
</svg>
